<svg width="147" height="31" viewBox="0 0 147 31" fill="none" xmlns="http://www.w3.org/2000/svg">
<path d="M47.4715 11.765C47.1 10.0552 46.2555 8.65507 44.7143 7.75562C43.4899 7.03861 42.143 6.81799 40.7454 6.91981C39.2253 7.03437 37.9629 7.59864 36.9368 8.55749C36.3246 8.986 36.4893 8.33687 36.6033 6.96224C36.7004 5.78278 37.3337 4.81544 38.2204 4.03479C39.124 3.24141 40.188 2.8426 41.3914 2.8129C41.8389 2.80017 42.1514 2.48621 42.1345 2.08316C42.1176 1.67586 41.7883 1.39584 41.3407 1.40857C39.7067 1.46373 38.2838 2.03224 37.0973 3.16928C36.8693 3.38566 36.6624 3.62749 36.4344 3.86508C36.4133 3.79296 36.3922 3.74205 36.3795 3.69113C35.8813 1.92618 34.7581 0.763683 33.0227 0.203649C32.7314 0.11031 32.4232 0.0678829 32.1192 0H28.6695C28.3698 0.148494 28.1417 0.352143 28.1544 0.725499C28.2009 2.4947 28.9567 3.86933 30.4218 4.84514C31.2325 5.38396 32.1445 5.61731 33.1114 5.62155C33.8968 5.62155 34.6779 5.62155 35.4632 5.62155C35.3577 6.13068 34.851 7.78532 34.8552 8.83326C33.4408 7.36954 31.68 6.74586 29.5984 6.92406C28.1797 7.04285 26.9046 7.50955 25.8575 8.50234C24.8526 9.4527 24.329 10.6534 24.0503 11.9898C23.5901 14.2087 24.0123 16.2707 25.0932 18.2308C25.6252 19.1939 26.2375 20.1061 26.9004 20.9801C25.1523 20.9801 23.4043 20.9801 21.6563 20.9801C21.3903 20.9801 21.1876 21.0904 21.0271 21.3025C20.7485 21.6674 20.4571 22.0238 20.1531 22.4056C20.0813 22.2953 20.0307 22.2189 19.9842 22.1383C19.5071 21.328 19.03 20.5219 18.5613 19.7073C18.384 19.4018 18.1602 19.1939 17.7928 19.249C17.4213 19.3084 17.2693 19.5757 17.1933 19.9194C16.8893 21.2898 16.581 22.6602 16.2728 24.0263C16.1419 24.616 16.0026 25.2058 15.8506 25.8719C15.8126 25.7361 15.7915 25.6852 15.7788 25.63C15.5677 24.4845 15.3566 23.3348 15.1455 22.1892C14.8457 20.5558 14.5417 18.9224 14.2377 17.2932C14.1659 16.9028 13.8872 16.661 13.541 16.678C13.1947 16.695 13.0132 16.9156 12.8781 17.2126C11.9956 19.1642 11.1089 21.1158 10.2222 23.0632C10.18 23.1566 10.1336 23.2457 10.0745 23.3772C9.77044 22.7747 9.47066 22.2147 9.20043 21.6419C9.02309 21.2686 8.75709 21.1201 8.34752 21.1201C5.86058 21.1286 3.37363 21.1286 0.886687 21.1201C0.4729 21.1201 0.173115 21.2516 0 21.6334V21.9771C0.16467 22.3717 0.460233 22.5032 0.878242 22.4989C3.18363 22.4862 5.49324 22.4989 7.79862 22.4862C8.03507 22.4862 8.14485 22.5626 8.24196 22.7705C8.62619 23.5639 9.03576 24.3445 9.42844 25.1336C9.57199 25.4264 9.75778 25.6428 10.1125 25.6428C10.4798 25.6428 10.6614 25.4094 10.8007 25.104C11.5691 23.4026 12.3418 21.7013 13.1145 20.0042C13.1567 19.9067 13.2074 19.8133 13.2834 19.6563C13.313 19.7836 13.3256 19.8261 13.3341 19.8685C13.9168 23.0208 14.5037 26.1731 15.0863 29.3254C15.1666 29.7624 15.3988 30 15.7535 30.0127C16.1081 30.0255 16.3657 29.7964 16.4628 29.3721C16.8386 27.7174 17.2144 26.0628 17.5902 24.4039C17.7844 23.5469 17.9786 22.6941 18.1855 21.7819C18.2657 21.9092 18.3206 21.9813 18.3671 22.0619C18.7175 22.6602 19.0638 23.2584 19.4184 23.8524C19.7604 24.4336 20.2798 24.4718 20.6894 23.9499C21.0567 23.4917 21.4283 23.0335 21.7787 22.5626C21.9012 22.3971 22.0321 22.3462 22.2305 22.3462C24.1854 22.3504 26.1446 22.3462 28.0995 22.3462C28.2304 22.3462 28.3655 22.3462 28.4964 22.325C28.6146 22.308 28.7118 22.2656 28.792 22.202C28.8553 22.1723 28.9144 22.1341 28.9735 22.0874C29.3873 21.7565 29.4507 21.188 29.1044 20.7552C28.2895 19.7412 27.5084 18.706 26.8708 17.5689C26.3853 16.7034 25.9588 15.8082 25.8195 14.8154C25.6252 13.4451 25.7688 12.1044 26.4064 10.857C27.0482 9.60119 28.146 8.99873 29.5056 8.82478C30.4936 8.6975 31.4605 8.77811 32.3556 9.25753C33.6476 9.94485 34.4119 11.0692 34.9059 12.4098C35.155 13.0844 35.9319 13.3093 36.4217 12.8256C36.5568 12.6899 36.6539 12.4947 36.7173 12.308C36.9495 11.6207 37.2788 10.9928 37.7433 10.437C38.7947 9.16419 40.1627 8.67628 41.7756 8.79508C42.5694 8.85448 43.321 9.0454 43.9881 9.49936C44.9381 10.14 45.4152 11.0861 45.6686 12.1765C46.0866 13.9796 45.7741 15.664 44.9086 17.2762C43.9417 19.0836 42.6834 20.6661 41.3027 22.1638C39.8545 23.7336 38.2964 25.1846 36.6286 26.5125C36.0839 26.9453 35.5139 26.9665 34.9777 26.5125C34.0572 25.7361 33.1536 24.9385 32.2501 24.1409C31.9714 23.8948 31.6758 23.7717 31.3127 23.8651C30.6245 24.0433 30.3542 24.9258 30.882 25.4052C31.9249 26.3555 32.9805 27.3101 34.0952 28.1714C35.1086 28.9521 36.561 28.9139 37.5744 28.1247C38.5709 27.3441 39.5293 26.5125 40.4582 25.6513C42.2907 23.9584 43.9754 22.1298 45.3899 20.0636C46.3146 18.7187 47.1042 17.3017 47.5011 15.6979C47.594 15.3288 47.6446 14.9512 47.7164 14.5779V13.3135C47.6404 12.8002 47.5897 12.2783 47.48 11.7734L47.4715 11.765ZM32.2585 4.10692C30.958 3.90327 29.7969 2.64743 29.6407 1.42554C29.6913 1.4213 29.742 1.40857 29.7927 1.40857C30.5907 1.4213 31.3929 1.38736 32.1867 1.46373C33.5632 1.59525 34.8468 2.85533 35.0621 4.2639C34.1079 4.21723 33.1705 4.25117 32.2585 4.10692ZM57.47 10.2758C58.5213 10.2758 58.8718 10.5049 59.3447 11.6122L62.9885 20.0636C63.0392 20.1867 63.111 20.2206 63.2334 20.2206H63.4445C63.567 20.2206 63.6388 20.1867 63.6894 20.0636L67.3333 11.6122C67.8062 10.5049 68.1566 10.2758 69.1911 10.2758H71.0658C72.2903 10.2758 72.607 10.7679 72.607 12.1044V22.2104C72.607 22.4735 72.4676 22.5965 72.2058 22.5965H70.4198C70.158 22.5965 70.0356 22.4735 70.0356 22.2104V13.0208C70.0356 12.8978 70.0018 12.8426 69.8962 12.8426H69.74C69.6176 12.8426 69.5458 12.8765 69.512 12.9826L65.9737 20.8698C65.3953 22.1383 64.9055 22.5965 63.7317 22.5965H62.8914C61.7176 22.5965 61.2278 22.1383 60.6494 20.8698L57.1111 12.9826C57.0773 12.8765 57.0055 12.8426 56.8831 12.8426H56.7268C56.6213 12.8426 56.5875 12.8935 56.5875 13.0208V22.2104C56.5875 22.4735 56.4651 22.5965 56.2033 22.5965H54.4172C54.1554 22.5965 54.0161 22.4735 54.0161 22.2104V12.1044C54.0161 10.7679 54.3328 10.2758 55.5741 10.2758H57.4826H57.47ZM82.6476 12.9359C85.8017 12.9359 86.8193 13.9584 86.8193 16.5083V21.1922C86.8193 22.3377 86.5406 22.6008 85.523 22.6008H77.184C75.115 22.6008 74.4859 21.8456 74.4859 20.1018V19.2575C74.4859 17.7768 75.115 16.9495 77.184 16.9495H84.3155V16.6143C84.3155 15.4858 83.9312 15.0488 82.407 15.0488H75.0855C74.8744 15.0488 74.7688 14.9597 74.7688 14.7306V13.2499C74.7688 13.0378 74.8744 12.9317 75.0855 12.9317H82.6561L82.6476 12.9359ZM84.3112 20.0636V18.5151H77.8975C77.1797 18.5151 76.918 18.8163 76.918 19.3763V19.7454C76.918 20.3776 77.1797 20.6619 77.8975 20.6619H83.8003C84.1677 20.6619 84.307 20.5049 84.307 20.0636H84.3112ZM99.482 12.9359C99.6931 12.9359 99.7987 13.042 99.7987 13.2541V14.7348C99.7987 14.9639 99.6931 15.053 99.482 15.053H92.6841C91.1598 15.053 90.7756 15.5112 90.7756 16.9877V18.5532C90.7756 20.0339 91.1598 20.4879 92.6841 20.4879H99.482C99.6931 20.4879 99.7987 20.594 99.7987 20.8061V22.2868C99.7987 22.4989 99.6931 22.605 99.482 22.605H92.4392C89.2851 22.605 88.2676 21.5995 88.2676 19.0496V16.5125C88.2676 13.9584 89.2851 12.9402 92.4392 12.9402H99.482V12.9359ZM110.485 12.9359C110.697 12.9359 110.802 13.042 110.802 13.2541V14.7348C110.802 14.9639 110.697 15.053 110.485 15.053H105.824C104.317 15.053 103.915 15.5112 103.915 16.9877V22.2147C103.915 22.4777 103.793 22.6008 103.531 22.6008H101.813C101.551 22.6008 101.412 22.4777 101.412 22.2147V16.5125C101.412 13.9584 102.429 12.9402 105.583 12.9402H110.49L110.485 12.9359ZM121.172 12.9359C124.326 12.9359 125.344 13.9584 125.344 16.5083V19.0454C125.344 21.5995 124.326 22.6008 121.172 22.6008H116.215C113.061 22.6008 112.043 21.5953 112.043 19.0454V16.5083C112.043 13.9542 113.061 12.9359 116.215 12.9359H121.172ZM114.551 18.6042C114.551 20.0849 114.953 20.5388 116.46 20.5388H120.927C122.451 20.5388 122.853 20.0806 122.853 18.6042V16.9325C122.853 15.4518 122.451 15.0149 120.927 15.0149H116.46C114.953 15.0149 114.551 15.4561 114.551 16.9325V18.6042ZM135.241 10.2758C136.136 10.2758 136.676 10.5558 137.255 11.6122L143.052 22.1935C143.175 22.4226 143.124 22.5965 142.841 22.5965H140.616C140.388 22.5965 140.299 22.5456 140.215 22.3674L138.969 20.0976H130.736L129.528 22.3674C129.439 22.5414 129.334 22.5965 129.127 22.5965H126.851C126.551 22.5965 126.501 22.4183 126.623 22.1935L132.37 11.6122C132.948 10.5558 133.472 10.2758 134.211 10.2758H135.245H135.241ZM131.842 18.0569H137.867L135.08 12.8978C135.03 12.8087 134.975 12.7747 134.886 12.7747H134.781C134.692 12.7747 134.641 12.8087 134.586 12.8978L131.838 18.0569H131.842ZM146.612 9.35936C146.873 9.35936 146.996 9.48239 146.996 9.74544V11.4171C146.996 11.6801 146.873 11.8201 146.612 11.8201H144.893C144.631 11.8201 144.492 11.6801 144.492 11.4171V9.74544C144.492 9.48239 144.631 9.35936 144.893 9.35936H146.612ZM146.612 12.9317C146.873 12.9317 146.996 13.0717 146.996 13.3348V22.2062C146.996 22.4692 146.873 22.5923 146.612 22.5923H144.893C144.631 22.5923 144.509 22.4692 144.509 22.2062V13.3348C144.509 13.0717 144.631 12.9317 144.893 12.9317H146.612Z" fill="currentColor"/>
</svg>
