<svg width="203" height="111" viewBox="0 0 203 111" fill="none" xmlns="http://www.w3.org/2000/svg">
<g clip-path="url(#clip0_2327_929)">
<path d="M167.342 32.7459C166.3 27.984 163.951 24.0846 159.665 21.5798C156.247 19.5796 152.5 18.9649 148.607 19.2585C144.367 19.5796 140.848 21.1486 137.987 23.8185C136.279 25.0113 136.745 23.2038 137.055 19.3686C137.329 16.0839 139.093 13.3864 141.561 11.2211C144.083 9.00992 147.053 7.89974 150.398 7.82634C151.641 7.79882 152.519 6.91801 152.473 5.79865C152.418 4.66094 151.504 3.88106 150.261 3.92693C145.71 4.07373 141.734 5.66102 138.435 8.8356C137.805 9.44115 137.22 10.1109 136.589 10.7715C136.525 10.5697 136.48 10.4321 136.434 10.2853C135.045 5.36742 131.91 2.13779 127.076 0.568855C126.262 0.302778 125.403 0.183502 124.562 0H114.948C114.107 0.412878 113.477 0.981733 113.504 2.01852C113.641 6.94553 115.743 10.7807 119.828 13.4874C122.095 14.9921 124.626 15.6435 127.331 15.6435C129.516 15.6435 131.7 15.6435 133.884 15.6435C133.582 17.0565 132.184 21.6715 132.184 24.5984C128.245 20.5246 123.338 18.7906 117.525 19.2768C113.577 19.6071 110.022 20.9008 107.098 23.6717C104.301 26.3141 102.839 29.663 102.062 33.3789C100.783 39.5629 101.952 45.3065 104.977 50.7565C106.467 53.4448 108.167 55.9771 110.013 58.4085C105.142 58.4085 100.262 58.4085 95.3906 58.4085C94.6503 58.4085 94.0837 58.7113 93.6359 59.2985C92.8591 60.317 92.0457 61.3079 91.2049 62.3722C91.013 62.0694 90.8668 61.8492 90.7297 61.629C89.4045 59.3719 88.0611 57.1332 86.7633 54.867C86.2698 54.0137 85.6484 53.4356 84.6157 53.5916C83.583 53.7476 83.1626 54.5091 82.9432 55.4633C82.1025 59.2802 81.2342 63.097 80.3752 66.9047C80.0005 68.547 79.6258 70.1893 79.1962 72.0427C79.0866 71.6665 79.0226 71.5197 78.9952 71.3637C78.4012 68.1708 77.8163 64.9687 77.2222 61.7758C76.3814 57.2249 75.5406 52.6833 74.6907 48.1416C74.4897 47.059 73.7128 46.38 72.7441 46.4259C71.7754 46.4718 71.2636 47.0865 70.8889 47.9214C68.4305 53.3623 65.9538 58.7847 63.4863 64.2164C63.3675 64.4733 63.2395 64.7302 63.075 65.088C62.2251 63.409 61.3935 61.8492 60.6349 60.2527C60.1414 59.2159 59.392 58.7939 58.2588 58.8031C51.3314 58.8306 44.3949 58.8306 37.4675 58.8031C36.3069 58.8031 35.4844 59.1701 35 60.2344V61.1886C35.457 62.2804 36.2795 62.6474 37.4493 62.6474C43.8831 62.6107 50.3078 62.6474 56.7417 62.6107C57.3997 62.6107 57.7013 62.8309 57.9846 63.3998C59.0539 65.611 60.1962 67.7855 61.2929 69.9875C61.695 70.7949 62.216 71.4096 63.203 71.4005C64.2266 71.4005 64.7292 70.7582 65.113 69.8957C67.2516 65.1522 69.4084 60.4271 71.5652 55.6927C71.684 55.4266 71.8211 55.1697 72.0404 54.7202C72.1227 55.078 72.1592 55.1973 72.1775 55.3165C73.8042 64.0971 75.431 72.8776 77.0669 81.6582C77.2953 82.8693 77.9442 83.5391 78.9312 83.5758C79.9182 83.6125 80.6311 82.9702 80.9052 81.7866C81.9562 77.1807 82.9981 72.5657 84.0399 67.9506C84.5791 65.5651 85.1183 63.1888 85.6941 60.6473C85.9226 60.9959 86.0688 61.2069 86.1967 61.4271C87.1746 63.0878 88.1433 64.7577 89.1212 66.4184C90.0717 68.0332 91.5156 68.1433 92.6671 66.6936C93.6816 65.4091 94.7234 64.143 95.7013 62.8309C96.0394 62.3722 96.4141 62.2345 96.9625 62.2345C102.418 62.2529 107.874 62.2437 113.33 62.2345C113.696 62.2345 114.071 62.2345 114.436 62.1703C114.756 62.1244 115.03 62.0052 115.259 61.8217C115.432 61.7391 115.606 61.629 115.761 61.5005C116.913 60.583 117.096 58.9866 116.118 57.7846C113.842 54.9679 111.667 52.0777 109.894 48.9032C108.542 46.4901 107.354 43.9945 106.961 41.2328C106.421 37.416 106.823 33.6817 108.596 30.2135C110.388 26.7178 113.449 25.0296 117.233 24.5525C119.993 24.2039 122.68 24.4241 125.184 25.7544C128.785 27.672 130.914 30.8007 132.294 34.535C132.988 36.4159 135.154 37.0398 136.516 35.6911C136.9 35.3149 137.165 34.7644 137.339 34.2506C137.987 32.3421 138.911 30.5897 140.19 29.0299C143.114 25.4884 146.935 24.1305 151.431 24.4516C153.643 24.6167 155.735 25.1581 157.6 26.415C160.25 28.2042 161.584 30.8374 162.288 33.8744C163.458 38.8932 162.581 43.5816 160.168 48.0774C157.472 53.1053 153.962 57.5277 150.115 61.6932C146.085 66.0697 141.734 70.1068 137.083 73.8043C135.566 75.0062 133.975 75.0705 132.477 73.8043C129.909 71.639 127.395 69.4186 124.873 67.1983C124.105 66.5193 123.274 66.1707 122.259 66.4276C120.349 66.923 119.591 69.3819 121.053 70.7123C123.968 73.3639 126.902 76.0155 130.018 78.4194C132.842 80.5939 136.9 80.4929 139.715 78.2909C142.493 76.1164 145.162 73.7951 147.757 71.4096C152.857 66.6936 157.563 61.6015 161.511 55.8487C164.089 52.0961 166.282 48.1508 167.397 43.6825C167.653 42.6549 167.799 41.609 168 40.563V37.049C167.781 35.6176 167.644 34.168 167.333 32.755L167.342 32.7459ZM124.937 11.4138C121.309 10.8449 118.074 7.34924 117.644 3.94528C117.781 3.92693 117.927 3.89941 118.064 3.89941C120.285 3.93611 122.524 3.84436 124.736 4.05538C128.565 4.42239 132.157 7.93644 132.751 11.845C130.101 11.7166 127.478 11.8083 124.937 11.4046V11.4138Z" fill="#0098FF"/>
<path d="M40.0035 92.8893C41.5023 92.8893 42.0049 93.2196 42.6812 94.7977L47.8905 106.863C47.9636 107.037 48.0641 107.092 48.2377 107.092H48.5393C48.713 107.092 48.8135 107.046 48.8866 106.863L54.0958 94.7977C54.7721 93.2104 55.2748 92.8893 56.7462 92.8893H59.4239C61.1786 92.8893 61.6264 93.5958 61.6264 95.5042V109.937C61.6264 110.313 61.4253 110.487 61.0506 110.487H58.5009C58.1262 110.487 57.9525 110.313 57.9525 109.937V96.8162C57.9525 96.6419 57.9068 96.5685 57.7515 96.5685H57.523C57.3493 96.5685 57.2488 96.6144 57.194 96.7704L52.1401 108.037C51.3176 109.845 50.6139 110.505 48.9323 110.505H47.726C46.0444 110.505 45.3498 109.854 44.5182 108.037L39.4643 96.7704C39.4186 96.6236 39.3181 96.5685 39.1353 96.5685H38.9068C38.7606 96.5685 38.7058 96.6419 38.7058 96.8162V109.937C38.7058 110.313 38.5321 110.487 38.1574 110.487H35.6168C35.2421 110.487 35.041 110.313 35.041 109.937V95.5042C35.041 93.5958 35.4888 92.8893 37.2709 92.8893H40.0035Z" fill="#0098FF"/>
<path d="M75.9837 96.6786C80.4893 96.6786 81.9424 98.1375 81.9424 101.78V108.469C81.9424 110.102 81.5403 110.478 80.0872 110.478H68.1699C65.218 110.478 64.3132 109.395 64.3132 106.909V105.698C64.3132 103.587 65.218 102.404 68.1699 102.404H78.3599V101.927C78.3599 100.321 77.8115 99.6881 75.6273 99.6881H65.1632C64.8616 99.6881 64.7153 99.5596 64.7153 99.2385V97.1282C64.7153 96.8254 64.8616 96.6786 65.1632 96.6786H75.9837ZM78.3599 106.863V104.652H69.1935C68.1699 104.652 67.7952 105.083 67.7952 105.881V106.413C67.7952 107.322 68.1699 107.725 69.1935 107.725H77.6288C78.1588 107.725 78.3507 107.496 78.3507 106.872L78.3599 106.863Z" fill="#0098FF"/>
<path d="M100.047 96.6786C100.348 96.6786 100.495 96.8254 100.495 97.1282V99.2385C100.495 99.5688 100.348 99.6881 100.047 99.6881H90.332C88.157 99.6881 87.5995 100.339 87.5995 102.45V104.688C87.5995 106.799 88.1478 107.45 90.332 107.45H100.047C100.348 107.45 100.495 107.597 100.495 107.9V110.01C100.495 110.313 100.348 110.46 100.047 110.46H89.9848C85.4792 110.46 84.0261 109.028 84.0261 105.386V101.762C84.0261 98.1191 85.4792 96.6603 89.9848 96.6603H100.047V96.6786Z" fill="#0098FF"/>
<path d="M115.775 96.6786C116.077 96.6786 116.223 96.8254 116.223 97.1282V99.2385C116.223 99.5688 116.077 99.6881 115.775 99.6881H109.113C106.956 99.6881 106.38 100.339 106.38 102.45V109.918C106.38 110.294 106.207 110.469 105.832 110.469H103.383C103.008 110.469 102.807 110.294 102.807 109.918V101.771C102.807 98.1283 104.26 96.6695 108.766 96.6695H115.775V96.6786Z" fill="#0098FF"/>
<path d="M131.056 96.6786C135.561 96.6786 137.014 98.1375 137.014 101.78V105.404C137.014 109.047 135.561 110.478 131.056 110.478H123.973C119.467 110.478 118.014 109.047 118.014 105.404V101.78C118.014 98.1375 119.467 96.6786 123.973 96.6786H131.056ZM121.588 104.771C121.588 106.881 122.163 107.533 124.32 107.533H130.708C132.883 107.533 133.459 106.881 133.459 104.771V102.386C133.459 100.275 132.883 99.6422 130.708 99.6422H124.32C122.163 99.6422 121.588 100.275 121.588 102.386V104.771Z" fill="#0098FF"/>
<path d="M151.161 92.8893C152.441 92.8893 153.218 93.293 154.04 94.7977L162.329 109.909C162.503 110.239 162.43 110.487 162.028 110.487H158.847C158.518 110.487 158.399 110.414 158.271 110.157L156.489 106.918H144.718L142.991 110.157C142.863 110.405 142.717 110.487 142.415 110.487H139.162C138.732 110.487 138.659 110.239 138.833 109.909L147.049 94.7977C147.871 93.293 148.63 92.8893 149.681 92.8893H151.161ZM146.299 104H154.917L150.933 96.6327C150.86 96.5043 150.787 96.4584 150.659 96.4584H150.512C150.384 96.4584 150.311 96.5043 150.238 96.6327L146.308 104H146.299Z" fill="#0098FF"/>
<path d="M167.41 91.5773C167.785 91.5773 167.959 91.7516 167.959 92.1278V94.5133C167.959 94.8895 167.785 95.0913 167.41 95.0913H164.952C164.577 95.0913 164.376 94.8895 164.376 94.5133V92.1278C164.376 91.7516 164.577 91.5773 164.952 91.5773H167.41ZM167.41 96.6786C167.785 96.6786 167.959 96.8805 167.959 97.2566V109.927C167.959 110.304 167.785 110.478 167.41 110.478H164.952C164.577 110.478 164.404 110.304 164.404 109.927V97.2566C164.404 96.8805 164.577 96.6786 164.952 96.6786H167.41Z" fill="#0098FF"/>
</g>
<defs>
<clipPath id="clip0_2327_929">
<rect width="203" height="110.505" fill="white"/>
</clipPath>
</defs>
</svg>
