<svg width="215" height="215" viewBox="0 0 215 215" fill="none" xmlns="http://www.w3.org/2000/svg">
<g clip-path="url(#clip0_2307_294)">
<path d="M107.497 3.36243C49.9881 3.36243 3.3623 49.9883 3.3623 107.497C3.3623 165.006 49.9881 211.632 107.497 211.632C165.006 211.632 211.632 165.006 211.632 107.497C211.632 49.9883 165.012 3.36243 107.497 3.36243ZM23.2287 107.497C23.2287 60.9554 60.9553 23.2288 107.497 23.2288C126.719 23.2288 144.428 29.6679 158.606 40.5006L41.1393 157.967C40.9208 158.186 40.7246 158.421 40.5397 158.662C29.679 144.473 23.2231 126.742 23.2231 107.497H23.2287ZM107.497 191.766C88.6058 191.766 71.1659 185.545 57.1109 175.049C57.3127 174.886 57.5144 174.718 57.6993 174.527L175.077 57.1503C185.556 71.1997 191.765 88.6227 191.765 107.497C191.765 154.039 154.039 191.766 107.497 191.766Z" fill="#00DDAA"/>
<path d="M194.646 99.0182C193.273 85.0417 188.745 72.1972 181.191 60.4062C178.064 55.5251 172.712 54.9367 168.565 58.9884C165.662 61.8241 162.815 64.7157 159.963 67.6018C158.04 69.5465 157.794 71.3678 159.212 72.7128C160.792 74.2034 162.737 74.0521 164.558 72.2476C167.192 69.6361 169.798 67.0022 172.426 64.3795C174.432 62.3789 174.768 62.4013 176.27 64.839C187.299 82.7889 191.076 102.207 187.097 122.864C176.495 177.884 114.693 205.613 66.7501 177.01C64.2694 175.531 63.8827 173.649 65.59 171.367C66.7557 169.814 66.4923 168.29 65.3883 166.945C64.3684 165.707 62.9729 165.662 61.5943 166.418C55.4243 169.792 55.0936 177.397 61.0059 181.118C81.8418 194.248 104.381 198.137 128.26 192.528C167.231 183.376 195.33 147.874 195.01 107.273C194.932 104.88 194.938 101.955 194.652 99.0126L194.646 99.0182Z" fill="#5C5C5C"/>
<path d="M63.6284 139.412C63.8694 137.983 63.5164 136.829 62.1153 136.072C60.4229 135.159 59.0555 135.534 57.7778 136.818C53.0424 141.576 48.2957 146.328 43.5491 151.08C41.6605 152.969 41.257 152.929 39.8224 150.632C32.9294 139.581 28.8216 127.588 27.8073 114.575C26.0644 92.2038 32.4754 72.427 46.8611 55.2618C52.6165 48.3912 59.431 42.7479 67.1478 38.1918C68.2462 37.5417 69.3502 36.8748 69.4679 35.429C69.5744 34.1344 69.4398 32.8903 68.2014 32.0889C66.6714 31.1026 65.2872 31.6182 63.9086 32.4756C36.1237 49.8034 22.0463 74.9769 20.8862 107.559C21.1104 110.568 21.1048 113.494 21.3962 116.436C22.7804 130.485 27.3645 143.38 34.9973 155.199C37.945 159.766 43.2969 160.433 47.1917 156.651C52.3138 151.685 57.2958 146.574 62.3395 141.525C62.9391 140.926 63.4939 140.27 63.634 139.412H63.6284Z" fill="#5C5C5C"/>
<path d="M80.6704 31.7302C81.2756 31.5677 81.8697 31.3603 82.4693 31.1698C106.023 23.6771 128.473 26.1597 149.791 38.696C153.092 40.635 153.069 40.6799 150.766 43.6949C149.645 45.1631 149.707 46.9788 151.069 48.2622C152.313 49.4334 153.77 49.3045 155.109 48.4303C160.702 44.7708 160.674 37.861 155.02 34.252C140.656 25.0726 124.954 20.4492 106.163 20.4828C103.552 20.3371 99.2479 20.7686 94.9664 21.4187C89.3735 22.2761 83.8927 23.5987 78.6025 25.6161C76.7419 26.3223 75.8957 28.0091 76.4449 29.6118C77.0334 31.3267 78.8042 32.2233 80.6704 31.7302Z" fill="#5C5C5C"/>
<path d="M107.497 0C48.223 0 0 48.223 0 107.497C0 166.771 48.223 214.994 107.497 214.994C166.771 214.994 214.994 166.771 214.994 107.497C214.994 48.223 166.771 0 107.497 0ZM107.497 208.275C51.9329 208.275 6.72488 163.067 6.72488 107.503C6.72488 51.9385 51.9329 6.72488 107.497 6.72488C163.062 6.72488 208.27 51.9329 208.27 107.497C208.27 163.062 163.062 208.27 107.497 208.27V208.275Z" fill="#5C5C5C"/>
<path d="M126.708 100.615C126.708 100.615 128.468 118.515 132.575 114.407C136.683 110.299 136.683 96.9447 137.86 95.1851C139.037 93.4254 150.553 78.356 149.965 70.4319C149.376 62.5077 146.955 46.4689 132.721 46.3232C118.487 46.1775 107.973 69.0365 116.486 82.2397C124.999 95.4428 126.702 100.615 126.702 100.615H126.708Z" fill="white"/>
<path d="M81.5782 108.629C81.5782 108.629 78.4735 107.2 76.7587 101.075C75.0439 94.9497 71.7319 89.6763 69.5295 88.208C67.3271 86.7397 64.3849 62.1043 65.8532 53.0369C67.3215 43.9695 74.433 46.665 74.433 46.665H86.8068L94.7534 47.3263C96.8269 47.5001 98.4184 49.2317 98.4184 51.3052L98.4464 84.5261L88.5216 95.0618L85.686 107.385L81.5782 108.618V108.629Z" fill="white"/>
<path d="M102.313 65.8029C102.313 69.8658 102.358 73.9232 102.302 77.9861C102.213 84.5093 99.4946 89.7323 94.294 93.6327C92.3998 95.0505 91.5872 96.8606 91.5424 99.2087C91.3967 107.127 92.3662 114.979 92.8986 122.858C93.3693 129.762 93.7616 136.672 94.1595 143.576C94.4621 148.749 94.9273 153.921 94.9553 159.094C94.9889 166.743 88.7908 172.751 81.4887 172.431C77.9357 172.28 74.9936 170.722 72.8248 167.954C70.5944 165.113 69.1373 161.963 69.227 158.152C69.4288 149.617 70.1573 141.122 70.8858 132.626C71.8217 121.687 73.0882 110.776 72.8977 99.7635C72.8472 97.0176 71.9674 95.0057 69.7482 93.3133C64.7774 89.5249 62.1883 84.3916 62.1267 78.1206C62.0426 69.4399 62.0146 60.7536 62.1267 52.0729C62.2219 44.6419 68.9916 40.7471 75.5372 44.2609C76.3162 44.6812 76.8317 44.726 77.6051 44.2609C80.6873 42.4059 83.8368 42.4283 86.9191 44.2833C87.5915 44.6868 88.0959 44.8213 88.802 44.3337C94.0138 40.7023 102.51 44.0087 102.42 52.5717C102.375 56.9821 102.414 61.3925 102.414 65.8029H102.313ZM95.9192 65.8085H96.0873C96.0873 62.2387 96.0873 58.6633 96.0873 55.0935C96.0873 54.1857 96.1097 53.2722 96.0761 52.3643C96.0145 50.7504 95.5045 49.3718 93.6383 49.2989C91.7554 49.2261 91.1445 50.5374 91.0324 52.1794C90.9876 52.8071 90.9876 53.4403 90.9876 54.068C90.9876 59.6721 90.9876 65.2761 90.9876 70.8746C90.9876 71.5751 91.0044 72.2812 90.9147 72.9705C90.6906 74.6629 89.6538 75.638 87.9894 75.7165C86.3194 75.7949 85.193 74.9039 84.8287 73.2451C84.6662 72.5054 84.6718 71.7152 84.6718 70.953C84.6606 64.7213 84.6494 58.4896 84.6718 52.2523C84.6774 50.543 84.1058 49.2821 82.2341 49.2821C80.3679 49.2821 79.7627 50.571 79.7514 52.2523C79.7514 52.7398 79.7514 53.233 79.7514 53.7205C79.7514 59.3246 79.7514 64.9287 79.7514 70.5271C79.7514 71.2949 79.7795 72.0739 79.6786 72.836C79.4376 74.6629 78.1039 75.8734 76.4338 75.7277C74.6574 75.5764 73.6542 74.5396 73.4749 72.7575C73.4076 72.0626 73.4245 71.3565 73.4245 70.6616C73.4189 64.4972 73.4245 58.3383 73.4076 52.1738C73.402 50.4926 72.7015 49.2485 70.8354 49.2821C69.0925 49.3157 68.42 50.515 68.42 52.1066C68.4256 61.0002 68.392 69.8939 68.5097 78.7875C68.5601 82.6487 70.3198 85.8655 73.402 88.1351C77.6107 91.2342 79.3816 95.2859 79.2023 100.453C79.0397 105.093 79.1686 105.048 83.7472 104.863C84.98 104.813 85.3387 104.353 85.249 103.227C85.1874 102.459 85.2883 101.686 85.2322 100.918C84.8343 95.4428 86.7846 91.1725 91.2846 87.8885C94.2324 85.7366 95.7959 82.5366 95.8968 78.838C96.0088 74.5004 95.9248 70.1573 95.9248 65.8141L95.9192 65.8085Z" fill="#5C5C5C"/>
<path d="M153.966 66.6323C153.092 59.2517 150.357 52.9584 144.719 47.9764C137.092 41.2347 126.529 41.2066 119.042 48.0828C112.793 53.8214 109.991 61.1571 109.952 69.4623C109.907 78.7651 112.451 87.16 120.028 93.3077C121.687 94.6582 122.275 96.3787 122.292 98.469C122.37 107.777 122.191 117.08 121.233 126.349C121.194 126.742 121.177 127.111 121.199 127.464L119.591 145.549L119.832 145.734C119.624 148.777 119.411 151.82 119.198 154.863C119.165 154.863 119.137 154.863 119.103 154.868C119.103 156.129 119.103 157.385 119.103 158.645C119.126 166.469 125.06 172.628 132.402 172.437C139.199 172.263 144.725 166.054 144.658 158.494C144.602 151.702 143.896 144.938 143.481 138.163C142.713 125.66 141.178 113.213 141.138 100.66C141.127 97.0231 141.873 94.1202 144.977 91.9347C146.255 91.0324 147.308 89.6986 148.211 88.3817C152.711 81.8361 154.93 74.7022 153.972 66.6267L153.966 66.6323ZM139.306 88.5666C136.353 90.9595 135.024 94.1987 134.901 97.9478C134.839 99.7691 134.834 101.59 134.901 103.406C134.946 104.516 134.526 104.802 133.455 104.852C128.933 105.054 128.781 105.082 128.972 100.632C129.207 95.1346 127.324 90.9315 123.11 87.216C113.858 79.0565 113.88 61.6559 122.802 53.1041C128.199 47.9315 135.63 47.9427 141.038 53.1321C145.257 57.1782 147.633 63.3988 147.594 71.3005C147.398 77.549 145.134 83.848 139.311 88.5666H139.306Z" fill="#5C5C5C"/>
</g>
<defs>
<clipPath id="clip0_2307_294">
<rect width="215" height="215" fill="white"/>
</clipPath>
</defs>
</svg>
