<svg width="238" height="196" viewBox="0 0 238 196" fill="none" xmlns="http://www.w3.org/2000/svg">
<g clip-path="url(#clip0_1_46)">
<path d="M236.806 58.3633C234.942 49.8786 230.739 42.9305 223.069 38.4674C216.953 34.9035 210.247 33.8082 203.281 34.3313C195.692 34.9035 189.396 37.6991 184.277 42.4564C181.219 44.5817 182.053 41.3611 182.609 34.5275C183.1 28.6748 186.256 23.8684 190.672 20.0102C195.185 16.0702 200.5 14.0921 206.486 13.9613C208.71 13.9122 210.28 12.3428 210.198 10.3483C210.1 8.32112 208.465 6.93151 206.241 7.01326C198.096 7.27483 190.982 10.1031 185.079 15.7596C183.95 16.8386 182.904 18.032 181.775 19.2091C181.661 18.8494 181.579 18.6042 181.497 18.3426C179.011 9.57994 173.402 3.82533 164.751 1.02977C163.295 0.555669 161.758 0.343141 160.253 0.0161743H143.049C141.544 0.751849 140.416 1.76544 140.465 3.6128C140.71 12.3919 144.472 19.2255 151.782 24.0482C155.838 26.7293 160.368 27.8901 165.209 27.8901C169.117 27.8901 173.026 27.8901 176.934 27.8901C176.395 30.4077 173.893 38.6309 173.893 43.846C166.844 36.5874 158.062 33.4975 147.661 34.364C140.596 34.9525 134.234 37.2576 129.001 42.1948C123.996 46.9032 121.38 52.8703 119.99 59.4914C117.7 70.5101 119.793 80.7442 125.207 90.4551C127.872 95.2451 130.914 99.7573 134.218 104.09C125.501 104.09 116.768 104.09 108.051 104.09C106.727 104.09 105.713 104.629 104.911 105.675C103.521 107.49 102.066 109.256 100.561 111.152C100.218 110.613 99.956 110.22 99.7107 109.828C97.3393 105.806 94.9353 101.817 92.613 97.7791C91.7299 96.2587 90.6178 95.2288 88.7698 95.5067C86.9218 95.7846 86.1695 97.1415 85.7771 98.8418C84.2725 105.643 82.7188 112.444 81.1816 119.228C80.5111 122.154 79.8405 125.081 79.0719 128.383C78.8757 127.713 78.7612 127.451 78.7121 127.173C77.6491 121.484 76.6024 115.779 75.5394 110.089C74.0349 101.981 72.5303 93.8882 71.0094 85.7958C70.6496 83.8667 69.2595 82.6569 67.526 82.7387C65.7924 82.8204 64.8766 83.9158 64.2061 85.4035C59.8069 95.098 55.3749 104.76 50.9594 114.438C50.7468 114.896 50.5178 115.354 50.2234 115.991C48.7025 112.999 47.2143 110.22 45.8569 107.376C44.9738 105.528 43.6328 104.776 41.6049 104.793C29.2085 104.842 16.7958 104.842 4.39947 104.793C2.32251 104.793 0.85065 105.446 -0.0161133 107.343V109.043C0.801588 110.989 2.27345 111.643 4.36676 111.643C15.88 111.577 27.3769 111.643 38.8901 111.577C40.0676 111.577 40.6073 111.969 41.1142 112.983C43.0277 116.923 45.0719 120.798 47.0344 124.721C47.754 126.16 48.6861 127.255 50.4524 127.239C52.284 127.239 53.1835 126.094 53.8704 124.558C57.6972 116.106 61.5568 107.686 65.4163 99.2505C65.6289 98.7764 65.8742 98.3186 66.2667 97.5176C66.4139 98.1551 66.4793 98.3677 66.512 98.5802C69.423 114.226 72.3341 129.871 75.2614 145.516C75.6703 147.674 76.8314 148.868 78.5976 148.933C80.3639 148.998 81.6395 147.854 82.1301 145.745C84.0108 137.538 85.8752 129.315 87.7395 121.092C88.7044 116.841 89.6693 112.607 90.6996 108.079C91.1085 108.7 91.3701 109.076 91.5991 109.468C93.349 112.427 95.0825 115.403 96.8324 118.362C98.5332 121.239 101.117 121.435 103.178 118.852C104.993 116.563 106.857 114.307 108.607 111.969C109.212 111.152 109.883 110.907 110.864 110.907C120.627 110.94 130.391 110.923 140.154 110.907C140.808 110.907 141.479 110.907 142.133 110.792C142.705 110.711 143.196 110.498 143.605 110.171C143.916 110.024 144.226 109.828 144.504 109.599C146.565 107.964 146.892 105.12 145.142 102.978C141.07 97.959 137.178 92.8092 134.005 87.1527C131.585 82.8531 129.459 78.4064 128.755 73.4855C127.791 66.6846 128.51 60.0309 131.683 53.8512C134.888 47.6225 140.367 44.6144 147.137 43.7643C152.076 43.143 156.884 43.5354 161.365 45.9059C167.809 49.3227 171.619 54.8975 174.089 61.5513C175.332 64.9027 179.208 66.0143 181.644 63.6111C182.331 62.9409 182.805 61.96 183.116 61.0445C184.277 57.644 185.929 54.5215 188.219 51.7423C193.452 45.4318 200.288 43.0123 208.334 43.5844C212.292 43.8787 216.037 44.8433 219.373 47.083C224.116 50.2709 226.503 54.9629 227.763 60.3742C229.856 69.3167 228.286 77.6707 223.968 85.6814C219.144 94.6403 212.864 102.52 205.979 109.942C198.767 117.74 190.982 124.934 182.658 131.522C179.943 133.664 177.098 133.778 174.416 131.522C169.82 127.664 165.323 123.708 160.809 119.751C159.436 118.541 157.947 117.92 156.132 118.378C152.714 119.261 151.357 123.642 153.973 126.013C159.19 130.737 164.44 135.462 170.017 139.745C175.07 143.62 182.331 143.44 187.368 139.516C192.34 135.642 197.115 131.506 201.76 127.255C210.885 118.852 219.308 109.779 226.373 99.5284C230.984 92.8419 234.909 85.8122 236.905 77.8505C237.362 76.0195 237.624 74.1558 237.984 72.2921V66.0307C237.591 63.4804 237.346 60.8973 236.79 58.3797L236.806 58.3633ZM160.924 20.3535C154.431 19.3399 148.642 13.1112 147.873 7.04595C148.119 7.01326 148.38 6.96421 148.626 6.96421C152.6 7.0296 156.606 6.86612 160.564 7.24213C167.416 7.89606 173.843 14.1575 174.906 21.1219C170.164 20.893 165.47 21.0565 160.924 20.3371V20.3535Z" fill="url(#paint0_linear_1_46)"/>
<path d="M8.94566 164.644C11.6277 164.644 12.5272 165.232 13.7374 168.044L23.0592 189.542C23.19 189.853 23.3699 189.951 23.6806 189.951H24.2203C24.531 189.951 24.7109 189.869 24.8418 189.542L34.1636 168.044C35.3737 165.216 36.2732 164.644 38.9062 164.644H43.6979C46.8379 164.644 47.6393 165.903 47.6393 169.303V195.019C47.6393 195.689 47.2795 196 46.609 196H42.0462C41.3757 196 41.0649 195.689 41.0649 195.019V171.641C41.0649 171.33 40.9832 171.2 40.7052 171.2H40.2963C39.9856 171.2 39.8057 171.281 39.7076 171.559L30.6638 191.635C29.1919 194.856 27.9327 196.033 24.9235 196.033H22.7648C19.7557 196.033 18.5128 194.872 17.0245 191.635L7.98077 171.559C7.899 171.298 7.71911 171.2 7.39203 171.2H6.98318C6.72151 171.2 6.62339 171.33 6.62339 171.641V195.019C6.62339 195.689 6.31266 196 5.64215 196H1.09573C0.425218 196 0.0654297 195.689 0.0654297 195.019V169.303C0.0654297 165.903 0.866776 164.644 4.05581 164.644H8.94566Z" fill="#1660AF"/>
<path d="M73.3313 171.396C81.3939 171.396 83.9942 173.995 83.9942 180.485V192.403C83.9942 195.313 83.2746 195.984 80.6743 195.984H59.3487C54.0663 195.984 52.4473 194.055 52.4473 189.624V187.466C52.4473 183.706 54.0663 181.597 59.3487 181.597H77.5834V180.747C77.5834 177.886 76.6022 176.758 72.6935 176.758H53.9682C53.4285 176.758 53.1668 176.529 53.1668 175.957V172.197C53.1668 171.657 53.4285 171.396 53.9682 171.396H73.3313ZM77.5834 189.542V185.602H61.1803C59.3487 185.602 58.6781 186.371 58.6781 187.793V188.741C58.6781 190.36 59.3487 191.079 61.1803 191.079H76.2751C77.2236 191.079 77.567 190.67 77.567 189.559L77.5834 189.542Z" fill="#1660AF"/>
<path d="M116.391 171.396C116.931 171.396 117.193 171.657 117.193 172.197V175.957C117.193 176.545 116.931 176.758 116.391 176.758H99.0072C95.1149 176.758 94.1173 177.919 94.1173 181.679V185.668C94.1173 189.428 95.0986 190.589 99.0072 190.589H116.391C116.931 190.589 117.193 190.85 117.193 191.39V195.15C117.193 195.689 116.931 195.951 116.391 195.951H98.3857C90.3232 195.951 87.7229 193.401 87.7229 186.91V180.453C87.7229 173.962 90.3232 171.363 98.3857 171.363H116.391V171.396Z" fill="#1660AF"/>
<path d="M144.537 171.396C145.077 171.396 145.338 171.657 145.338 172.197V175.957C145.338 176.545 145.077 176.758 144.537 176.758H132.615C128.755 176.758 127.725 177.919 127.725 181.679V194.986C127.725 195.657 127.414 195.967 126.744 195.967H122.361C121.69 195.967 121.331 195.657 121.331 194.986V180.469C121.331 173.979 123.931 171.379 131.993 171.379H144.537V171.396Z" fill="#1660AF"/>
<path d="M171.881 171.396C179.943 171.396 182.543 173.995 182.543 180.485V186.943C182.543 193.433 179.943 195.984 171.881 195.984H159.206C151.144 195.984 148.543 193.433 148.543 186.943V180.485C148.543 173.995 151.144 171.396 159.206 171.396H171.881ZM154.938 185.815C154.938 189.575 155.968 190.736 159.828 190.736H171.259C175.151 190.736 176.182 189.575 176.182 185.815V181.564C176.182 177.804 175.151 176.676 171.259 176.676H159.828C155.968 176.676 154.938 177.804 154.938 181.564V185.815Z" fill="#1660AF"/>
<path d="M207.859 164.644C210.149 164.644 211.539 165.363 213.011 168.044L227.844 194.97C228.155 195.559 228.024 196 227.304 196H221.613C221.024 196 220.812 195.869 220.583 195.411L217.394 189.641H196.33L193.239 195.411C193.01 195.853 192.748 196 192.209 196H186.387C185.618 196 185.487 195.559 185.798 194.97L200.5 168.044C201.972 165.363 203.329 164.644 205.21 164.644H207.859ZM199.159 184.442H214.581L207.451 171.314C207.32 171.085 207.189 171.003 206.96 171.003H206.698C206.469 171.003 206.339 171.085 206.208 171.314L199.176 184.442H199.159Z" fill="#1660AF"/>
<path d="M236.937 162.306C237.608 162.306 237.918 162.617 237.918 163.287V167.538C237.918 168.208 237.608 168.568 236.937 168.568H232.538C231.867 168.568 231.508 168.208 231.508 167.538V163.287C231.508 162.617 231.867 162.306 232.538 162.306H236.937ZM236.937 171.396C237.608 171.396 237.918 171.755 237.918 172.426V195.003C237.918 195.673 237.608 195.984 236.937 195.984H232.538C231.867 195.984 231.557 195.673 231.557 195.003V172.426C231.557 171.755 231.867 171.396 232.538 171.396H236.937Z" fill="#1660AF"/>
</g>
<defs>
<linearGradient id="paint0_linear_1_46" x1="118.992" y1="-0.000174003" x2="118.992" y2="148.884" gradientUnits="userSpaceOnUse">
<stop stop-color="#00CDB0"/>
<stop offset="0.35" stop-color="#099DAF"/>
<stop offset="0.71" stop-color="#1271AF"/>
<stop offset="0.89" stop-color="#1660AF"/>
</linearGradient>
<clipPath id="clip0_1_46">
<rect width="238" height="196" fill="white"/>
</clipPath>
</defs>
</svg>
