<svg width="24" height="24" viewBox="0 0 24 24" fill="none" xmlns="http://www.w3.org/2000/svg">
<path d="M12 0.5C5.64874 0.5 0.5 5.64874 0.5 12C0.5 18.3513 5.64874 23.5 12 23.5C18.3512 23.5 23.5 18.3513 23.5 12C23.5 5.64874 18.3512 0.5 12 0.5ZM12 2.99878C16.9712 2.99878 20.9998 7.03001 20.9998 12C20.9998 16.97 16.9712 20.9998 12 20.9998C7.02874 20.9998 3.00018 16.97 3.00018 12C3.0002 7.03001 7.02874 2.99878 12 2.99878ZM16.4066 6.53919L9.74127 13.2059L7.5794 11.044L5.45824 13.1638L7.62011 15.3256L9.7553 17.4608L11.8751 15.3397L18.5417 8.67437L16.4066 6.53919Z" fill="currentColor"/>
</svg>
