<svg width="20" height="24" viewBox="0 0 20 24" fill="none" xmlns="http://www.w3.org/2000/svg">
<path d="M14.3844 12.0126V4.82015C14.3844 2.16253 12.2446 0 9.61458 0C9.5302 0.000506954 9.44616 0.0105604 9.36404 0.0299686C8.13323 0.0896424 6.97246 0.620175 6.1219 1.5118C5.27133 2.40342 4.79606 3.58789 4.79443 4.82015V12.0126C4.79443 14.657 6.94498 16.8076 9.58941 16.8076C12.2338 16.8076 14.3844 14.657 14.3844 12.0126ZM7.19192 12.0126V4.82015C7.19192 3.49793 8.26719 2.42266 9.58941 2.42266C9.65495 2.42268 9.72036 2.41666 9.7848 2.40468C11.0135 2.49459 11.9869 3.54349 11.9869 4.82015V12.0126C11.9869 13.3348 10.9116 14.4101 9.58941 14.4101C8.26719 14.4101 7.19192 13.3348 7.19192 12.0126Z" fill="currentColor"/>
<path d="M2.39749 12.0126H0C0 16.8939 3.66935 20.9264 8.3912 21.5198V24H10.7887V21.5198C15.5105 20.9264 19.1799 16.8951 19.1799 12.0126H16.7824C16.7824 15.9792 13.5566 19.205 9.58995 19.205C5.6233 19.205 2.39749 15.9792 2.39749 12.0126Z" fill="currentColor"/>
</svg>
