<svg width="25" height="34" viewBox="0 0 25 34" fill="none" xmlns="http://www.w3.org/2000/svg">
<path d="M17.9276 7.49578C18.9216 7.49578 19.8749 7.10091 20.5778 6.39805C21.2807 5.69518 21.6755 4.74189 21.6755 3.74789C21.6755 2.75389 21.2807 1.8006 20.5778 1.09773C19.8749 0.394866 18.9216 0 17.9276 0C16.9336 0 15.9803 0.394866 15.2775 1.09773C14.5746 1.8006 14.1798 2.75389 14.1798 3.74789C14.1798 4.74189 14.5746 5.69518 15.2775 6.39805C15.9803 7.10091 16.9336 7.49578 17.9276 7.49578ZM10.3985 11.0621C9.35996 11.3203 8.6512 11.7084 8.07902 12.1898C7.22117 12.9127 6.52822 13.9555 5.59209 15.5946C5.37285 15.9781 5.01022 16.2589 4.58398 16.3751C4.15773 16.4913 3.70277 16.4334 3.3192 16.2142C2.93562 15.995 2.65485 15.6323 2.53864 15.2061C2.42243 14.7798 2.48031 14.3249 2.69955 13.9413C3.63152 12.3114 4.57349 10.7864 5.93356 9.64207C7.35276 8.44608 9.09012 7.76979 11.433 7.50911C12.4124 7.40083 13.4901 7.42249 14.5004 7.87307C15.5606 8.34697 16.3352 9.19566 16.8632 10.33C17.5745 11.8567 18.1034 12.7653 18.5265 13.2925C18.7305 13.5449 18.8729 13.6623 18.9537 13.7148C19.0179 13.7564 19.0453 13.7598 19.0553 13.7614C19.1278 13.7697 19.3635 13.7614 20.0531 13.4558C20.3538 13.3225 20.6819 13.1626 21.0834 12.9669L21.1791 12.9202C21.6701 12.678 22.1655 12.4448 22.665 12.2206C23.0683 12.0436 23.5252 12.0335 23.936 12.1925C24.3467 12.3515 24.6777 12.6667 24.8566 13.0691C25.0356 13.4716 25.0478 13.9285 24.8907 14.34C24.7336 14.7514 24.42 15.0839 24.0184 15.2647C23.5555 15.4724 23.0965 15.6887 22.6417 15.9135L22.5325 15.9668C22.1486 16.1542 21.7621 16.3433 21.3999 16.5032C20.6503 16.8347 19.6925 17.1945 18.6539 17.0687C17.5578 16.9355 16.7133 16.3166 16.0179 15.4863L13.7417 19.878L16.8899 23.974C17.0776 24.2185 17.1938 24.5103 17.2255 24.8169L17.9185 31.4764C17.9449 31.6959 17.9274 31.9183 17.8669 32.1309C17.8065 32.3435 17.7044 32.5419 17.5665 32.7146C17.4286 32.8873 17.2578 33.0309 17.0639 33.1369C16.87 33.243 16.6569 33.3093 16.4371 33.3322C16.2173 33.3551 15.9951 33.334 15.7836 33.2702C15.572 33.2063 15.3752 33.101 15.2047 32.9604C15.0343 32.8198 14.8935 32.6467 14.7906 32.4511C14.6877 32.2555 14.6247 32.0414 14.6053 31.8213L13.9607 25.6306L12.0485 23.142L12.0318 23.1728L11.9618 23.0295L8.42882 18.4321C8.25515 18.2062 8.14235 17.9394 8.10123 17.6574C8.06011 17.3754 8.09203 17.0875 8.19395 16.8214L10.3985 11.0621Z" fill="currentColor"/>
<path d="M7.87634 20.8275L6.65037 24.1257L1.81975 23.7425C1.60013 23.7221 1.37864 23.7456 1.16814 23.8115C0.957641 23.8774 0.762325 23.9844 0.593525 24.1264C0.424724 24.2683 0.285803 24.4424 0.184821 24.6385C0.0838401 24.8346 0.0228101 25.0488 0.00527328 25.2687C-0.0122635 25.4886 0.0140419 25.7097 0.0826633 25.9194C0.151285 26.129 0.260855 26.3229 0.405016 26.4898C0.549177 26.6568 0.725058 26.7934 0.922452 26.8918C1.11984 26.9903 1.33482 27.0485 1.5549 27.0632L7.64148 27.5462C8.0027 27.575 8.36345 27.4851 8.66901 27.2904C8.97457 27.0956 9.20828 26.8064 9.33469 26.4668L10.2717 23.9449L7.87634 20.8275Z" fill="currentColor"/>
</svg>
