<svg width="22" height="22" viewBox="0 0 22 22" fill="none" xmlns="http://www.w3.org/2000/svg">
<path d="M11 0.75C16.6612 0.75 21.25 5.33912 21.25 11C21.25 16.6612 16.6612 21.25 11 21.25C5.33912 21.25 0.75 16.6612 0.75 11C0.75 5.33912 5.33912 0.75 11 0.75ZM11 2.5C6.31338 2.5 2.5 6.31338 2.5 11C2.50002 15.6874 6.31413 19.5195 11 19.5195C15.6859 19.5195 19.5 15.6873 19.5 11C19.5 6.3134 15.6866 2.5 11 2.5ZM11 5.75C11.4831 5.75 11.875 6.14193 11.875 6.625V10.125H15.375C15.8581 10.125 16.25 10.5169 16.25 11C16.25 11.4831 15.8581 11.875 15.375 11.875H11.875V15.375C11.875 15.8581 11.4831 16.25 11 16.25C10.5169 16.25 10.125 15.8581 10.125 15.375V11.875H6.625C6.14193 11.875 5.75 11.4831 5.75 11C5.75 10.5169 6.14193 10.125 6.625 10.125H10.125V6.625C10.125 6.14193 10.5169 5.75 11 5.75Z" fill="currentColor" stroke="white" stroke-width="0.5"/>
</svg>
