<svg width="44" height="44" viewBox="0 0 44 44" fill="none" xmlns="http://www.w3.org/2000/svg">
<rect x="0.75" y="0.75" width="42.5" height="42.5" rx="21.25" stroke="currentColor" stroke-width="1.5"/>
<path d="M22 23.8099L15.6654 30.1445C15.4284 30.3815 15.1267 30.5 14.7605 30.5C14.3942 30.5 14.0925 30.3815 13.8555 30.1445C13.6185 29.9075 13.5 29.6058 13.5 29.2395C13.5 28.8733 13.6185 28.5716 13.8555 28.3346L20.1901 22L13.8555 15.6654C13.6185 15.4284 13.5 15.1267 13.5 14.7605C13.5 14.3942 13.6185 14.0925 13.8555 13.8555C14.0925 13.6185 14.3942 13.5 14.7605 13.5C15.1267 13.5 15.4284 13.6185 15.6654 13.8555L22 20.1901L28.3346 13.8555C28.5716 13.6185 28.8733 13.5 29.2395 13.5C29.6058 13.5 29.9075 13.6185 30.1445 13.8555C30.3815 14.0925 30.5 14.3942 30.5 14.7605C30.5 15.1267 30.3815 15.4284 30.1445 15.6654L23.8099 22L30.1445 28.3346C30.3815 28.5716 30.5 28.8733 30.5 29.2395C30.5 29.6058 30.3815 29.9075 30.1445 30.1445C29.9075 30.3815 29.6058 30.5 29.2395 30.5C28.8733 30.5 28.5716 30.3815 28.3346 30.1445L22 23.8099Z" fill="currentColor"/>
</svg>
