<svg width="30" height="30" viewBox="0 0 30 30" fill="none" xmlns="http://www.w3.org/2000/svg">
<path d="M24.6429 3.21429C25.2112 3.21429 25.7562 3.44005 26.1581 3.84191C26.5599 4.24378 26.7857 4.78882 26.7857 5.35714V6.96429C26.7857 7.39053 26.955 7.79931 27.2564 8.10071C27.5578 8.40211 27.9666 8.57143 28.3929 8.57143C28.8191 8.57143 29.2279 8.40211 29.5293 8.10071C29.8307 7.79931 30 7.39053 30 6.96429V5.35714C30 3.93634 29.4356 2.57373 28.4309 1.56907C27.4263 0.564412 26.0637 0 24.6429 0H23.0357C22.6095 6.35148e-09 22.2007 0.169324 21.8993 0.470721C21.5979 0.772119 21.4286 1.1809 21.4286 1.60714C21.4286 2.03338 21.5979 2.44217 21.8993 2.74356C22.2007 3.04496 22.6095 3.21429 23.0357 3.21429H24.6429ZM24.6429 26.7857C25.2112 26.7857 25.7562 26.5599 26.1581 26.1581C26.5599 25.7562 26.7857 25.2112 26.7857 24.6429V23.0357C26.7857 22.6095 26.955 22.2007 27.2564 21.8993C27.5578 21.5979 27.9666 21.4286 28.3929 21.4286C28.8191 21.4286 29.2279 21.5979 29.5293 21.8993C29.8307 22.2007 30 22.6095 30 23.0357V24.6429C30 26.0637 29.4356 27.4263 28.4309 28.4309C27.4263 29.4356 26.0637 30 24.6429 30H23.0357C22.6095 30 22.2007 29.8307 21.8993 29.5293C21.5979 29.2279 21.4286 28.8191 21.4286 28.3929C21.4286 27.9666 21.5979 27.5578 21.8993 27.2564C22.2007 26.955 22.6095 26.7857 23.0357 26.7857H24.6429ZM3.21429 5.35714C3.21429 4.78882 3.44005 4.24378 3.84192 3.84191C4.24378 3.44005 4.78882 3.21429 5.35714 3.21429H6.96429C7.39053 3.21429 7.79931 3.04496 8.10071 2.74356C8.40211 2.44217 8.57143 2.03338 8.57143 1.60714C8.57143 1.1809 8.40211 0.772119 8.10071 0.470721C7.79931 0.169324 7.39053 6.35148e-09 6.96429 0H5.35714C3.93634 0 2.57373 0.564412 1.56907 1.56907C0.564413 2.57373 0 3.93634 0 5.35714V6.96429C0 7.39053 0.169325 7.79931 0.470722 8.10071C0.772121 8.40211 1.1809 8.57143 1.60714 8.57143C2.03338 8.57143 2.44217 8.40211 2.74356 8.10071C3.04496 7.79931 3.21429 7.39053 3.21429 6.96429V5.35714ZM5.35714 26.7857C4.78882 26.7857 4.24378 26.5599 3.84192 26.1581C3.44005 25.7562 3.21429 25.2112 3.21429 24.6429V23.0357C3.21429 22.6095 3.04496 22.2007 2.74356 21.8993C2.44217 21.5979 2.03338 21.4286 1.60714 21.4286C1.1809 21.4286 0.772121 21.5979 0.470722 21.8993C0.169325 22.2007 0 22.6095 0 23.0357V24.6429C0 26.0637 0.564413 27.4263 1.56907 28.4309C2.57373 29.4356 3.93634 30 5.35714 30H6.96429C7.39053 30 7.79931 29.8307 8.10071 29.5293C8.40211 29.2279 8.57143 28.8191 8.57143 28.3929C8.57143 27.9666 8.40211 27.5578 8.10071 27.2564C7.79931 26.955 7.39053 26.7857 6.96429 26.7857H5.35714ZM22.5 13.6821V19.2857C22.5 19.854 22.2742 20.3991 21.8724 20.8009C21.4705 21.2028 20.9255 21.4286 20.3571 21.4286H9.64286C9.07454 21.4286 8.52949 21.2028 8.12763 20.8009C7.72577 20.3991 7.5 19.854 7.5 19.2857V13.6821C7.5 13.1138 7.72577 12.5688 8.12763 12.1669C8.52949 11.765 9.07454 11.5393 9.64286 11.5393H11.25L12.4929 9.56786C12.6866 9.26196 12.9546 9.01013 13.272 8.83588C13.5894 8.66163 13.9458 8.57065 14.3079 8.57143H15.6964C16.058 8.5716 16.4136 8.66326 16.7302 8.83785C17.0468 9.01245 17.3141 9.26431 17.5071 9.57L18.7521 11.5393H20.3571C20.9255 11.5393 21.4705 11.765 21.8724 12.1669C22.2742 12.5688 22.5 13.1138 22.5 13.6821ZM12.8571 16.0714C12.8571 16.6397 13.0829 17.1848 13.4848 17.5867C13.8866 17.9885 14.4317 18.2143 15 18.2143C15.5683 18.2143 16.1134 17.9885 16.5152 17.5867C16.9171 17.1848 17.1429 16.6397 17.1429 16.0714C17.1429 15.5031 16.9171 14.9581 16.5152 14.5562C16.1134 14.1543 15.5683 13.9286 15 13.9286C14.4317 13.9286 13.8866 14.1543 13.4848 14.5562C13.0829 14.9581 12.8571 15.5031 12.8571 16.0714Z" fill="currentColor"/>
</svg>
