<svg width="20" height="20" viewBox="0 0 20 20" fill="none" xmlns="http://www.w3.org/2000/svg">
<g clip-path="url(#clip0_2317_269)">
<path d="M16.6668 14.5833C16.9878 14.5835 17.2965 14.7072 17.5288 14.9287C17.7611 15.1502 17.8993 15.4526 17.9148 15.7733C17.9302 16.0939 17.8217 16.4082 17.6117 16.651C17.4017 16.8938 17.1063 17.0465 16.7868 17.0775L16.6668 17.0833H3.3335C3.01248 17.0832 2.70383 16.9595 2.47151 16.738C2.23918 16.5165 2.10099 16.2141 2.08556 15.8934C2.07013 15.5728 2.17866 15.2585 2.38864 15.0157C2.59863 14.7729 2.89398 14.6201 3.2135 14.5892L3.3335 14.5833H16.6668ZM16.6668 8.75001C16.9984 8.75001 17.3163 8.8817 17.5507 9.11612C17.7851 9.35054 17.9168 9.66848 17.9168 10C17.9168 10.3315 17.7851 10.6495 17.5507 10.8839C17.3163 11.1183 16.9984 11.25 16.6668 11.25H3.3335C3.00198 11.25 2.68403 11.1183 2.44961 10.8839C2.21519 10.6495 2.0835 10.3315 2.0835 10C2.0835 9.66848 2.21519 9.35054 2.44961 9.11612C2.68403 8.8817 3.00198 8.75001 3.3335 8.75001H16.6668ZM16.6668 2.91667C16.9984 2.91667 17.3163 3.04837 17.5507 3.28279C17.7851 3.51721 17.9168 3.83515 17.9168 4.16667C17.9168 4.49819 17.7851 4.81614 17.5507 5.05056C17.3163 5.28498 16.9984 5.41667 16.6668 5.41667H3.3335C3.00198 5.41667 2.68403 5.28498 2.44961 5.05056C2.21519 4.81614 2.0835 4.49819 2.0835 4.16667C2.0835 3.83515 2.21519 3.51721 2.44961 3.28279C2.68403 3.04837 3.00198 2.91667 3.3335 2.91667H16.6668Z" fill="currentColor"/>
</g>
<defs>
<clipPath id="clip0_2317_269">
<rect width="20" height="20" fill="currentColor"/>
</clipPath>
</defs>
</svg>
