<svg width="27" height="27" viewBox="0 0 27 27" fill="none" xmlns="http://www.w3.org/2000/svg">
<g clip-path="url(#clip0_2217_57)">
<path d="M1.47631 7.74211C2.2098 7.74671 2.85443 7.19464 2.91173 6.46079C2.9534 5.92772 2.93164 5.38945 2.93409 4.85362C2.93961 3.77369 3.7785 2.93471 4.85943 2.93256C5.33402 2.93164 5.80892 2.93838 6.2832 2.93072C7.0985 2.91754 7.72414 2.29864 7.73977 1.4995C7.75478 0.727339 7.16315 0.0931162 6.36286 0.0431508C6.0528 0.0238391 5.74059 0.0400855 5.42931 0.0400855C5.429 0.0321155 5.42869 0.0241456 5.42839 0.0158691C5.03131 0.0364071 4.62902 0.0235325 4.23807 0.0833071C2.30324 0.379727 0.986395 1.45751 0.30346 3.29059C-0.0795233 4.3181 0.0123926 5.3965 0.0614144 6.45895C0.0951169 7.18789 0.74772 7.73782 1.476 7.74242L1.47631 7.74211Z" fill="currentColor"/>
<path d="M6.27799 24.0916C5.78777 24.0907 5.29755 24.0978 4.80733 24.088C3.75888 24.0674 2.93745 23.2247 2.9347 22.1749C2.93347 21.7049 2.93868 21.2347 2.93347 20.7648C2.92458 19.943 2.31947 19.3063 1.52777 19.2787C0.748934 19.2517 0.0773353 19.8495 0.048535 20.6646C0.0231049 21.3825 -0.00385708 22.1142 0.100621 22.8204C0.391688 24.7908 1.52562 26.0998 3.40255 26.7588C4.06434 26.9912 4.75433 27.0013 5.44553 26.9623C5.81289 26.9623 6.18638 27.0062 6.54607 26.9531C7.28875 26.8437 7.7995 26.1562 7.7321 25.4263C7.66071 24.6529 7.0513 24.0932 6.27829 24.0916H6.27799Z" fill="currentColor"/>
<path d="M20.7159 2.92961C21.2055 2.9434 21.6957 2.93083 22.1857 2.93298C23.1192 2.93727 23.936 3.62207 24.0479 4.5518C24.1079 5.05053 24.0724 5.56091 24.0834 6.06578C24.0871 6.23866 24.0846 6.41462 24.115 6.58382C24.2363 7.26464 24.8963 7.77931 25.5838 7.74161C26.3047 7.70207 26.9297 7.14846 26.9558 6.45784C26.9827 5.73962 27.0158 5.01037 26.9255 4.30136C26.6736 2.32665 25.5703 0.993832 23.7093 0.295237C23.0334 0.0414251 22.3241 0.015063 21.7301 0.0334551C21.3311 0.0334551 21.0502 0.032842 20.7695 0.0334551C20.2741 0.0346813 19.8599 0.216457 19.5642 0.618019C19.2198 1.08579 19.1696 1.59893 19.4254 2.11974C19.6846 2.6479 20.1326 2.91305 20.7156 2.92961H20.7159Z" fill="currentColor"/>
<path d="M25.5176 19.2783C24.7182 19.2854 24.0837 19.9334 24.0825 20.7448C24.0816 21.2349 24.0874 21.7254 24.0794 22.2155C24.0632 23.2372 23.2341 24.0689 22.212 24.0879C21.7221 24.0971 21.2322 24.0879 20.7423 24.0937C20.616 24.0952 20.4864 24.109 20.3645 24.1403C19.6723 24.3165 19.2063 24.9728 19.2771 25.6613C19.3534 26.4038 19.926 26.9515 20.6672 26.9794C20.9678 26.9908 21.2692 26.9813 21.5704 26.9813C21.5704 26.9822 21.5704 26.9828 21.5704 26.9837C21.7644 26.9837 21.9583 26.9837 22.1522 26.9837C22.7764 26.9846 23.3839 26.8819 23.9565 26.634C25.6803 25.8875 26.695 24.5808 26.9273 22.7152C27.0094 22.0555 26.9717 21.3796 26.9671 20.7114C26.9619 19.904 26.3108 19.2716 25.5173 19.2786L25.5176 19.2783Z" fill="currentColor"/>
<path d="M20.2704 15.5353H25.7777C26.2854 15.5353 26.6969 15.1237 26.6969 14.6157C26.6969 14.1078 26.2854 13.6961 25.7777 13.6961H20.3905C20.3672 13.2421 20.2977 12.79 20.1663 12.3409C19.7707 10.9906 18.9802 9.97845 17.6138 9.50638C16.5533 9.14007 15.4985 9.25809 14.4564 9.61183C14.2913 9.66793 14.1271 9.72586 13.9147 9.79974C13.972 9.70257 13.9966 9.65935 14.0226 9.61674C14.7414 8.44669 15.6164 7.41857 16.7304 6.60288C17.0209 6.39014 16.9985 6.26017 16.6725 6.1069C16.3539 5.957 16.0343 5.80925 15.7148 5.66212C15.3204 5.48065 15.1369 5.51866 14.9261 5.90551C14.5055 6.67798 14.098 7.45811 13.7107 8.24805C13.4683 8.7425 13.2729 9.26024 13.048 9.78748C12.9591 9.75315 12.8831 9.72433 12.8078 9.69429C11.9226 9.34423 11.0093 9.20782 10.0699 9.39297C7.99843 9.80097 6.75603 11.5378 6.61999 13.5367C6.61632 13.5901 6.61325 13.6434 6.6108 13.6964H1.22238C0.7147 13.6964 0.303223 14.1081 0.303223 14.616C0.303223 15.124 0.7147 15.5356 1.22238 15.5356H6.71896C6.87981 16.5153 7.196 17.465 7.61483 18.3907C8.13293 19.535 8.80085 20.5736 9.80304 21.3595C10.8074 22.147 11.922 22.4192 13.1549 22.0026C13.3905 21.9232 13.5835 21.9116 13.8222 21.9974C14.712 22.3174 15.599 22.2957 16.463 21.8883C17.4808 21.4086 18.191 20.6027 18.7688 19.669C19.5418 18.4198 20.0167 17.0536 20.2579 15.6098C20.2622 15.585 20.2661 15.5602 20.2701 15.5353H20.2704Z" fill="currentColor"/>
<path d="M12.881 8.60724C13.3868 8.61704 13.5259 8.4788 13.518 7.97362C13.4389 5.98543 12.0954 4.80312 10.1964 4.7835C9.85513 4.77983 9.69642 4.95302 9.69091 5.2994C9.66119 7.16468 11.0173 8.57106 12.881 8.60724Z" fill="currentColor"/>
</g>
<defs>
<clipPath id="clip0_2217_57">
<rect width="27" height="27" fill="white"/>
</clipPath>
</defs>
</svg>
