<svg width="30" height="30" viewBox="0 0 30 30" fill="none" xmlns="http://www.w3.org/2000/svg">
<path d="M8.5 2H5.25C4.38805 2 3.5614 2.34241 2.9519 2.9519C2.34241 3.5614 2 4.38805 2 5.25V24.75C2 25.612 2.34241 26.4386 2.9519 27.0481C3.5614 27.6576 4.38805 28 5.25 28H24.75C25.612 28 26.4386 27.6576 27.0481 27.0481C27.6576 26.4386 28 25.612 28 24.75V8.2205C27.9998 7.35862 27.6573 6.5321 27.0477 5.92275L24.0773 2.95225C23.4679 2.34271 22.6414 2.00018 21.7795 2H19.875M8.5 2V8.5C8.5 8.93098 8.67121 9.3443 8.97595 9.64905C9.2807 9.95379 9.69402 10.125 10.125 10.125H18.25C18.681 10.125 19.0943 9.95379 19.399 9.64905C19.7038 9.3443 19.875 8.93098 19.875 8.5V2M8.5 2H19.875M6.875 23.125V18.25C6.875 17.819 7.04621 17.4057 7.35095 17.101C7.6557 16.7962 8.06902 16.625 8.5 16.625H21.5C21.931 16.625 22.3443 16.7962 22.649 17.101C22.9538 17.4057 23.125 17.819 23.125 18.25V23.125" stroke="currentColor" stroke-width="3" stroke-linecap="round" stroke-linejoin="round"/>
</svg>
