<svg width="24" height="23" viewBox="0 0 24 23" fill="none" xmlns="http://www.w3.org/2000/svg">
<path d="M1.79026 0.123307C0.827263 -0.336693 -0.230737 0.543307 0.0442634 1.57431L2.06026 9.10731C2.11079 9.29663 2.21582 9.46694 2.36231 9.59708C2.50881 9.72721 2.6903 9.81144 2.88426 9.83931L12.7683 11.2513C13.0543 11.2913 13.0543 11.7053 12.7683 11.7463L2.88526 13.1573C2.69131 13.1852 2.50981 13.2694 2.36331 13.3995C2.21682 13.5297 2.11179 13.7 2.06126 13.8893L0.0442634 21.4263C-0.230737 22.4563 0.827263 23.3363 1.79026 22.8773L23.2883 12.6283C24.2373 12.1763 24.2373 10.8243 23.2883 10.3713L1.79026 0.123307Z" fill="currentColor"/>
</svg>
