<svg width="20" height="21" viewBox="0 0 20 21" fill="none" xmlns="http://www.w3.org/2000/svg">
<path d="M10.0001 0.499512C15.293 0.499512 19.5834 4.97651 19.5834 10.4995C19.5834 16.0225 15.293 20.4995 10.0001 20.4995C8.47058 20.5017 6.96296 20.1203 5.60421 19.3875L1.93763 20.4545C1.73307 20.5141 1.517 20.5158 1.31157 20.4596C1.10615 20.4033 0.918746 20.2911 0.768569 20.1344C0.618393 19.9777 0.510842 19.7821 0.456936 19.5678C0.403031 19.3534 0.404708 19.128 0.461798 18.9145L1.4853 15.0915C0.78126 13.6724 0.414765 12.0975 0.416756 10.4995C0.416756 4.97651 4.70721 0.499512 10.0001 0.499512ZM10.0001 1.99951C7.83968 1.99951 5.76776 2.89504 4.24012 4.4891C2.71248 6.08316 1.85426 8.24517 1.85426 10.4995C1.85426 11.9695 2.21171 13.3825 2.88255 14.6365L3.0263 14.9065L1.96063 18.8905L5.78151 17.7785L6.04026 17.9285C7.12737 18.5592 8.33847 18.9217 9.58067 18.9883C10.8229 19.0549 12.0632 18.8238 13.2065 18.3126C14.3498 17.8015 15.3658 17.0239 16.1765 16.0395C16.9872 15.0551 17.5711 13.8901 17.8834 12.6338C18.1957 11.3774 18.2282 10.0632 17.9782 8.7917C17.7283 7.52025 17.2027 6.3254 16.4417 5.29878C15.6806 4.27216 14.7044 3.44103 13.5878 2.86914C12.4712 2.29724 11.2439 1.99976 10.0001 1.99951ZM6.88551 11.4995H11.1961C11.3782 11.4996 11.5535 11.5718 11.6866 11.7015C11.8196 11.8312 11.9005 12.0088 11.9129 12.1984C11.9254 12.388 11.8683 12.5754 11.7534 12.7228C11.6385 12.8702 11.4742 12.9666 11.2938 12.9925L11.1961 12.9995H6.88551C6.7034 12.9995 6.5281 12.9273 6.39504 12.7975C6.26197 12.6678 6.18106 12.4902 6.16865 12.3006C6.15623 12.111 6.21325 11.9236 6.32817 11.7762C6.44309 11.6288 6.60735 11.5324 6.78776 11.5065L6.88551 11.4995ZM6.88551 7.99951H13.1195C13.3015 7.99982 13.4766 8.07218 13.6095 8.20199C13.7424 8.3318 13.8231 8.50938 13.8354 8.69889C13.8477 8.8884 13.7906 9.07571 13.6757 9.22301C13.5608 9.37031 13.3966 9.46662 13.2163 9.49251L13.1195 9.49951H6.88551C6.7034 9.49945 6.5281 9.42727 6.39504 9.29754C6.26197 9.16781 6.18106 8.99021 6.16865 8.80063C6.15623 8.61105 6.21325 8.42362 6.32817 8.27621C6.44309 8.12881 6.60735 8.03241 6.78776 8.00651L6.88551 7.99951Z" fill="currentColor"/>
</svg>
