<svg width="33" height="34" viewBox="0 0 33 34" fill="none" xmlns="http://www.w3.org/2000/svg">
<g clip-path="url(#clip0_2332_1314)">
<path d="M3.13486 26.6883C4.55939 25.8633 5.96049 25.0508 7.36315 24.2398C8.947 23.324 10.5324 22.4113 12.1116 21.4861C12.3162 21.3655 12.4474 21.3749 12.6286 21.5221C13.5767 22.2923 14.6435 22.7902 15.8697 22.9154C17.4457 23.0751 18.8765 22.6837 20.1245 21.7146C20.501 21.4219 20.7509 21.4391 21.1445 21.6708C23.9295 23.3099 26.7333 24.9193 29.5292 26.5381C29.6323 26.5975 29.7354 26.6586 29.8385 26.7212C23.5 35.4663 10.1685 36.0644 3.1333 26.6899L3.13486 26.6883ZM6.42284 27.2238C11.8007 32.664 20.9321 32.8613 26.549 27.2817C26.5177 27.2519 26.4896 27.2175 26.4537 27.1956C24.5949 26.1185 22.7377 25.0398 20.8727 23.9737C20.7868 23.9236 20.6181 23.944 20.5229 23.9941C17.8284 25.4375 15.1434 25.4344 12.4568 23.9721C12.3506 23.9142 12.1584 23.9158 12.0522 23.9737C11.4634 24.2899 10.8885 24.6328 10.3106 24.9678C9.02198 25.7146 7.73334 26.4629 6.42284 27.2238Z" fill="currentColor"/>
<path d="M31.6145 23.6809C29.5105 22.4629 27.4237 21.2559 25.3369 20.0489C24.4356 19.5276 23.5391 18.9984 22.6315 18.4896C22.416 18.3691 22.3598 18.2469 22.3926 17.998C22.7081 15.6544 21.9911 13.6975 20.1199 12.2306C19.6357 11.8502 19.0374 11.6185 18.5001 11.3038C18.4001 11.2459 18.2799 11.1097 18.2799 11.0079C18.2689 7.54492 18.2721 4.08352 18.2736 0.620544C18.2736 0.589233 18.2861 0.557922 18.2924 0.526611C29.0185 1.67885 36.1411 12.9492 31.6145 23.6809ZM30.4618 20.5765C31.4239 16.3151 30.7976 12.3871 28.3578 8.80362C26.41 5.94494 23.739 4.0663 20.4167 3.08314C20.3948 3.16611 20.3807 3.19742 20.3807 3.22873C20.3792 5.38291 20.3745 7.53553 20.3854 9.68971C20.3854 9.78834 20.4932 9.91358 20.5822 9.9809C20.9665 10.2705 21.3898 10.5148 21.7506 10.8294C23.5812 12.4216 24.509 14.4505 24.5778 16.8724C24.584 17.0978 24.6434 17.234 24.8496 17.3342C25.1338 17.4751 25.4025 17.6473 25.6774 17.807C27.2503 18.7166 28.8248 19.6278 30.4618 20.5733V20.5765Z" fill="currentColor"/>
<path d="M14.7499 0.5V0.913302C14.7499 4.16649 14.7421 7.41968 14.7609 10.6744C14.764 11.0862 14.6484 11.2787 14.2642 11.4416C12.3867 12.24 11.1902 13.6443 10.6997 15.6356C10.5045 16.4262 10.5248 17.2247 10.6138 18.0278C10.6263 18.1358 10.5591 18.3143 10.4748 18.3644C7.47267 20.1131 4.46585 21.8524 1.45748 23.5901C1.44029 23.6011 1.41686 23.6027 1.39656 23.6089C-2.83798 14.1092 2.83202 2.09059 14.7499 0.5ZM2.58523 20.4951C2.70394 20.4309 2.80078 20.3823 2.8945 20.3276C4.64861 19.3131 6.40115 18.2924 8.15994 17.2857C8.36769 17.1667 8.43329 17.0337 8.44422 16.7973C8.58324 13.8368 9.90312 11.5621 12.4257 10.0044C12.6038 9.8948 12.6491 9.77582 12.6491 9.58169C12.6428 7.52771 12.646 5.47215 12.6444 3.41816C12.6444 3.3211 12.635 3.22404 12.6303 3.12384C5.32494 4.96179 0.557774 12.9758 2.58523 20.4951Z" fill="currentColor"/>
</g>
<defs>
<clipPath id="clip0_2332_1314">
<rect width="33" height="33" fill="currentColor" transform="translate(0 0.5)"/>
</clipPath>
</defs>
</svg>
