<svg width="21" height="16" viewBox="0 0 21 16" fill="none" xmlns="http://www.w3.org/2000/svg">
<path d="M14 4.43C14.4748 4.89543 14.8521 5.4509 15.1096 6.06389C15.3672 6.67689 15.4999 7.3351 15.5 8C15.5 9.126 15 10.5 14 11.5M16.864 1.636C17.7011 2.47075 18.3649 3.46272 18.8172 4.55488C19.2696 5.64705 19.5016 6.81786 19.5 8C19.5 10.023 19 12.5 17 14M6.3 3.5L8.86 1.367C9.006 1.24539 9.18363 1.1679 9.37208 1.14359C9.56054 1.11928 9.75201 1.14917 9.92409 1.22976C10.0962 1.31034 10.2417 1.43828 10.3437 1.5986C10.4457 1.75892 10.4999 1.94499 10.5 2.135V8M10.5 12.5V13.865C10.4999 14.055 10.4457 14.2411 10.3437 14.4014C10.2417 14.5617 10.0962 14.6897 9.92409 14.7702C9.75201 14.8508 9.56054 14.8807 9.37208 14.8564C9.18363 14.8321 9.006 14.7546 8.86 14.633L4.5 11H2.5C2.23478 11 1.98043 10.8946 1.79289 10.7071C1.60536 10.5196 1.5 10.2652 1.5 10V6C1.5 5.73478 1.60536 5.48043 1.79289 5.29289C1.98043 5.10536 2.23478 5 2.5 5M3.5 1L17.5 15" stroke="currentColor" stroke-width="2" stroke-linecap="round" stroke-linejoin="round"/>
</svg>
