<svg width="36" height="34" viewBox="0 0 36 34" fill="none" xmlns="http://www.w3.org/2000/svg">
<g clip-path="url(#clip0_2332_1294)">
<path d="M0.156062 19.8541C0.214639 19.8677 0.258571 19.8722 0.297622 19.8902C1.90359 20.4908 3.50467 21.0959 5.11064 21.6965C6.98508 22.3964 8.86928 23.0873 10.7437 23.7872C12.3936 24.4013 14.0386 25.0245 15.6885 25.6386C15.8203 25.6883 15.8789 25.7515 15.8838 25.887C15.9131 26.6275 16.0156 27.3545 16.2548 28.0635C16.4891 28.7589 16.8259 29.4046 17.3726 29.9375C18.1048 30.6554 19.0225 30.9173 20.0671 30.9173C21.7414 30.9173 22.8983 30.1226 23.7818 28.8898C24.4652 27.937 24.9924 26.912 25.4659 25.8599C26.7058 23.1234 27.7553 20.3192 28.878 17.5421C29.864 15.1037 30.8159 12.6563 31.7726 10.2088C32.1338 9.2831 32.4706 8.34837 32.827 7.41816C32.8807 7.28269 32.8026 7.27366 32.7049 7.25108C31.8263 7.04336 30.9477 6.84016 30.069 6.63244C28.6632 6.29829 27.2622 5.96413 25.8564 5.62998C23.1326 4.98425 20.4039 4.34303 17.6801 3.6973C16.8894 3.50765 16.0937 3.32702 15.3029 3.13285C15.1662 3.10124 15.1125 3.12382 15.0588 3.25026C13.8873 6.03638 12.7109 8.81799 11.5345 11.5996C10.6022 13.8032 9.66494 16.0023 8.7326 18.2059C8.4446 18.8833 8.16637 19.5561 7.87837 20.2334C7.8442 20.3192 7.80027 20.4005 7.75145 20.4908C7.36094 20.3553 6.98508 20.2199 6.60922 20.0889C6.18454 19.9444 5.76474 19.8044 5.33518 19.6735C5.1985 19.6329 5.17898 19.5877 5.23267 19.4658C6.01369 17.646 6.78494 15.8217 7.56108 13.9974C8.53735 11.6989 9.50874 9.40502 10.4899 7.10658C11.2953 5.21003 12.1105 3.31348 12.9208 1.41693C13.1893 0.77571 13.6969 0.446072 14.3462 0.50929C14.6049 0.531868 14.8587 0.608633 15.1174 0.667336C16.9528 1.07826 18.7882 1.48918 20.6236 1.90009C22.7421 2.37423 24.8655 2.83934 26.9889 3.31348C28.6876 3.69279 30.3863 4.07661 32.085 4.45592C33.0076 4.66364 33.9302 4.85781 34.8527 5.06101C35.502 5.20551 35.8827 5.59385 35.9901 6.19895C36.0145 6.3299 35.995 6.48343 35.951 6.61438C35.6972 7.34139 35.4336 8.06389 35.1651 8.78638C34.7942 9.77982 34.4232 10.7732 34.0424 11.7622C33.1101 14.178 32.1875 16.5984 31.2259 19.0052C30.2594 21.4346 29.2782 23.8549 28.2678 26.2708C27.6869 27.6616 26.9986 29.0072 26.0761 30.24C25.2999 31.2741 24.3871 32.1636 23.157 32.7462C22.2344 33.1842 21.2484 33.3829 20.2282 33.4777C19.0908 33.5815 17.9925 33.4054 16.904 33.1029C15.9473 32.8365 15.0637 32.4075 14.1607 32.0282C11.3002 30.8361 8.44949 29.6304 5.59389 28.4292C5.07159 28.208 4.5444 27.9957 4.03186 27.7654C2.02562 26.8623 0.771113 25.3948 0.25369 23.3898C0.0681981 22.6719 -0.0343104 21.9403 0.00962181 21.1998C0.0389099 20.7572 0.102368 20.3192 0.151181 19.8586L0.156062 19.8541Z" fill="currentColor"/>
<path d="M25.8126 17.1987C25.798 18.156 24.812 18.7475 23.8796 18.4224C22.4738 17.9392 21.0533 17.4787 19.6377 17.0135C19.1252 16.842 18.6126 16.6839 18.1001 16.5078C17.3825 16.2594 17.0555 15.8034 17.1287 15.1531C17.2068 14.4397 17.9976 13.8255 18.7932 14.0694C19.5694 14.3042 20.3406 14.5661 21.1119 14.819C22.3273 15.2209 23.5428 15.6227 24.7631 16.0246C25.3147 16.2053 25.7004 16.5259 25.8029 17.0858C25.8126 17.1355 25.8126 17.1806 25.8175 17.2032L25.8126 17.1987Z" fill="currentColor"/>
<path d="M22.1126 23.8547C22.0248 23.8366 21.8442 23.8185 21.6831 23.7644C19.7598 23.1367 17.8414 22.5 15.9182 21.8723C15.3324 21.6827 14.937 21.3395 14.8638 20.7525C14.7613 19.89 15.6497 19.1494 16.4991 19.3978C17.1971 19.601 17.8805 19.8358 18.5688 20.0616C19.8623 20.4815 21.1559 20.9105 22.4543 21.3305C22.8936 21.475 23.2646 21.6917 23.455 22.1117C23.8211 22.9154 23.1816 23.8005 22.1126 23.8547Z" fill="currentColor"/>
<path d="M19.5352 10.1227C19.5303 9.26026 20.3455 8.65517 21.2485 8.88546C22.054 9.09318 22.8496 9.33251 23.6502 9.55829C24.807 9.88792 25.9639 10.2221 27.1159 10.5517C27.4479 10.6465 27.7456 10.782 27.9653 11.0394C28.3363 11.4774 28.3704 12.0057 28.058 12.4618C27.7261 12.954 27.1843 13.1843 26.6034 13.0398C25.9542 12.8773 25.3147 12.6831 24.6752 12.4979C23.3573 12.1231 22.0393 11.7484 20.7213 11.369C20.5896 11.3329 20.4529 11.2878 20.326 11.2336C19.8183 11.0213 19.5449 10.6285 19.5401 10.1182L19.5352 10.1227Z" fill="currentColor"/>
<path d="M14.2681 15.248C13.4285 15.248 12.7354 14.6293 12.7403 13.8888C12.7451 13.1482 13.4481 12.5115 14.2584 12.5115C15.1175 12.5115 15.7911 13.1301 15.7862 13.9023C15.7765 14.6519 15.1077 15.248 14.2681 15.248Z" fill="currentColor"/>
<path d="M10.4167 19.163C10.4167 18.4224 11.1343 17.7812 11.9593 17.7857C12.7647 17.7902 13.4627 18.4269 13.4676 19.1584C13.4725 19.899 12.7744 20.5402 11.9593 20.5357C11.1197 20.5312 10.4167 19.9035 10.4216 19.163H10.4167Z" fill="currentColor"/>
<path d="M14.9126 8.75452C14.9126 8.00493 15.5911 7.38177 16.4209 7.37726C17.2361 7.37726 17.9342 8.00944 17.939 8.75452C17.939 9.49959 17.2556 10.1227 16.4209 10.1227C15.5862 10.1227 14.9175 9.51765 14.9126 8.75V8.75452Z" fill="currentColor"/>
</g>
<defs>
<clipPath id="clip0_2332_1294">
<rect width="36" height="33" fill="currentColor" transform="translate(0 0.5)"/>
</clipPath>
</defs>
</svg>
