<svg width="33" height="34" viewBox="0 0 33 34" fill="none" xmlns="http://www.w3.org/2000/svg">
<g clip-path="url(#clip0_2332_1308)">
<path d="M16.5139 0.500106C19.199 0.541851 21.7519 1.12629 24.1379 2.39258C26.816 3.81193 28.9306 5.82964 30.5514 8.39701C31.5323 9.94856 32.1861 11.6253 32.5826 13.4065C32.8817 14.7424 33.0417 16.0921 32.9861 17.4628C32.9304 19.0004 32.6522 20.4963 32.214 21.9713C31.7549 23.495 31.0384 24.8935 30.1619 26.2085C29.6054 27.0365 28.9585 27.8018 28.2629 28.5254C27.2125 29.6247 26.0091 30.5362 24.7013 31.2945C22.8231 32.3869 20.7919 33.0548 18.6355 33.347C17.286 33.5279 15.9366 33.5558 14.5871 33.3888C12.9037 33.187 11.2898 32.7348 9.74557 32.032C8.95953 31.6772 8.20826 31.2598 7.49874 30.7866C6.71269 30.2648 6.56661 29.2629 7.15093 28.5254C7.5196 28.0592 8.3613 27.7114 9.14039 28.2054C9.89861 28.6924 10.6986 29.1168 11.5333 29.4577C12.8898 30.0143 14.3088 30.3066 15.7696 30.3761C17.4878 30.4527 19.1642 30.2648 20.7919 29.7012C22.7118 29.0333 24.4091 28.0036 25.8699 26.5634C27.3655 25.0883 28.4715 23.3768 29.1532 21.4008C29.8141 19.4944 30.0367 17.5324 29.8141 15.5286C29.508 12.7246 28.4228 10.2547 26.5516 8.14653C25.2648 6.69239 23.7414 5.53742 21.9536 4.74426C20.8267 4.25026 19.6651 3.90238 18.4477 3.72844C17.2095 3.5545 15.9713 3.53363 14.7401 3.70061C11.7142 4.11111 9.11952 5.39827 6.97007 7.57601C6.03099 8.5292 5.23798 9.58676 4.61889 10.7626C3.91632 12.1054 3.42243 13.5248 3.22766 15.0346C3.06766 16.287 3.0468 17.5324 3.20679 18.7917C3.38765 20.2041 3.7911 21.5469 4.43107 22.8132C4.68845 23.3211 4.97365 23.8221 5.27277 24.316C5.89882 25.3527 5.26581 26.4103 4.3476 26.6399C3.74937 26.793 3.03288 26.5216 2.69899 25.9998C2.10076 25.0536 1.54427 24.0934 1.14777 23.0428C0.730396 21.9435 0.417369 20.8164 0.222597 19.6544C0.0765177 18.7778 0 17.8942 0 16.9966C0 15.7721 0.146079 14.5684 0.410413 13.3787C0.806914 11.5836 1.48166 9.90681 2.46248 8.35526C3.42938 6.82458 4.59106 5.44697 6.00316 4.29201C7.33874 3.19271 8.79954 2.30213 10.4134 1.67594C11.4846 1.25849 12.5837 0.938436 13.7175 0.743622C14.6358 0.590555 15.5748 0.493148 16.5139 0.500106Z" fill="currentColor"/>
<path d="M18.0443 24.2185C18.3782 24.2185 18.6912 24.2185 18.9973 24.2185C19.839 24.2324 20.4372 24.7125 20.5972 25.5057C20.7642 26.3267 20.152 27.1755 19.3103 27.2799C19.1364 27.3007 18.9556 27.3147 18.7817 27.3147C17.1957 27.3147 15.6027 27.3147 14.0167 27.3147C13.2306 27.3147 12.5976 26.8485 12.4168 26.1458C12.1872 25.2552 12.7855 24.3577 13.7037 24.2603C14.1071 24.2185 14.5175 24.2533 14.9349 24.2533V15.9737C14.8793 15.9737 14.8236 15.9737 14.768 15.9737C14.4062 15.9668 14.0445 15.9737 13.6898 15.9389C13.0011 15.8694 12.4237 15.2501 12.3681 14.5613C12.3124 13.8377 12.7715 13.142 13.4463 12.9611C13.648 12.9054 13.8706 12.8846 14.0793 12.8776C14.8445 12.8706 15.6166 12.8706 16.3818 12.8776C17.0148 12.8776 17.5296 13.1142 17.8426 13.6986C17.9956 13.9769 18.0304 14.29 18.0304 14.6031C18.0304 17.734 18.0304 20.8649 18.0304 23.9889V24.2185H18.0443Z" fill="currentColor"/>
<path d="M18.5591 8.76567C18.5591 9.89976 17.627 10.8182 16.4723 10.8182C15.3384 10.8182 14.4272 9.87193 14.4341 8.71001C14.4341 7.62462 15.3871 6.6923 16.4931 6.69926C17.627 6.69926 18.5661 7.63854 18.5591 8.77263V8.76567Z" fill="currentColor"/>
</g>
<defs>
<clipPath id="clip0_2332_1308">
<rect width="33" height="33" fill="white" transform="translate(0 0.5)"/>
</clipPath>
</defs>
</svg>
