<svg width="17" height="26" viewBox="0 0 17 26" fill="none" xmlns="http://www.w3.org/2000/svg">
<path d="M8.50594 17.0038C10.87 17.0038 12.4619 15.185 12.4619 12.585V4.41878C12.4619 1.80657 10.87 0 8.50594 0C6.12998 0 4.53809 1.80657 4.53809 4.41878V12.585C4.53809 15.185 6.12998 17.0038 8.50594 17.0038ZM0 12.7803C0 17.5653 3.07687 20.9221 7.60307 21.3127V24.1568H3.19567C2.69672 24.1568 2.2928 24.5718 2.2928 25.0845C2.2928 25.5972 2.69672 26 3.19567 26H13.8043C14.3033 26 14.7072 25.5972 14.7072 25.0845C14.7072 24.5718 14.3033 24.1568 13.8043 24.1568H9.39692V21.3127C13.935 20.9221 17 17.5653 17 12.7803V10.3023C17 9.78967 16.608 9.38685 16.109 9.38685C15.6101 9.38685 15.2061 9.78967 15.2061 10.3023V12.707C15.2061 16.8695 12.5688 19.6282 8.50594 19.6282C4.43117 19.6282 1.79385 16.8695 1.79385 12.707V10.3023C1.79385 9.78967 1.40182 9.38685 0.890985 9.38685C0.392034 9.38685 0 9.78967 0 10.3023V12.7803Z" fill="currentColor"/>
</svg>
