<svg width="33" height="26" viewBox="0 0 33 26" fill="none" xmlns="http://www.w3.org/2000/svg">
<g clip-path="url(#clip0_2335_1472)">
<path d="M31.5885 14.3702C30.8237 13.0651 29.6776 12.0573 28.2758 11.4557C26.8712 10.8528 25.3451 10.7172 23.864 11.0618C22.352 11.4139 21.0899 12.1648 20.1137 13.2932C18.9641 14.621 18.4128 16.1392 18.4395 17.9116L17.2245 16.7195L15.7996 18.1541L19.5632 21.8038L23.2453 18.1274L21.7592 16.7051L20.5246 17.9719C20.5204 17.8719 20.5176 17.7732 20.519 17.6739C20.533 16.255 21.1805 14.9218 22.2944 14.014C23.3963 13.1165 24.8367 12.7376 26.2469 12.974C28.2575 13.3104 29.5842 14.4305 30.1896 16.303C30.7872 18.1514 30.349 19.8457 28.9226 21.2022C27.5026 22.5526 25.777 22.9253 23.7931 22.3094C23.7874 22.3073 23.2102 22.1402 23.0212 22.4944C22.8752 22.7677 22.753 23.0507 22.6343 23.3241C22.5964 23.4118 22.5584 23.5001 22.5198 23.5871L22.3829 23.8961L22.6975 24.0352C23.5669 24.4182 24.5038 24.6032 25.4428 24.6032C27.3368 24.6032 29.2372 23.8502 30.5913 22.456C32.6981 20.2862 33.1083 16.9614 31.5899 14.3702H31.5885Z" fill="currentColor"/>
<path d="M15.3471 19.5854C15.3492 19.4333 15.3043 19.3107 15.213 19.2209C15.0753 19.0853 14.892 19.0873 14.833 19.0873L14.5226 19.0894C13.9798 19.0935 13.4179 19.0976 12.8694 19.0853C12.4726 19.077 12.125 19.186 11.8026 19.4217C11.2591 19.8183 10.7043 20.2185 10.167 20.6055L10.0048 20.7227C9.68593 20.9529 9.36639 21.1824 9.04684 21.4112C8.81789 21.5757 8.58895 21.7401 8.36 21.9045C8.24482 21.9874 8.13035 22.0703 8.01517 22.1532C7.92388 22.219 7.83187 22.2855 7.74058 22.3512C7.74058 21.7867 7.74058 21.2228 7.74058 20.6583V20.1712C7.74058 19.8526 7.60433 19.5758 7.33535 19.3497C7.06638 19.1229 6.76369 19.0983 6.50103 19.0935C6.218 19.088 5.93147 19.0887 5.65547 19.0894C5.49535 19.0894 5.33452 19.0901 5.1744 19.0894C5.10206 19.0894 5.02902 19.0901 4.95669 19.0921C4.78392 19.0955 4.62029 19.0983 4.4721 19.0764C3.96786 19.0017 3.53454 18.7592 3.1841 18.357C2.83295 17.9535 2.66229 17.5081 2.66229 16.995C2.66229 15.5651 2.66229 14.1353 2.66229 12.7054C2.66229 10.0657 2.66159 7.42591 2.66229 4.78614V4.76628C2.66229 4.5765 2.66229 4.37987 2.71005 4.22914C2.88 3.69201 3.19042 3.28368 3.65955 2.98017C4.0416 2.73353 4.4714 2.61226 4.97354 2.61021C5.36261 2.60883 5.7587 2.61363 6.14216 2.61774C6.45257 2.62117 6.77282 2.62528 7.08885 2.62528C7.34448 2.62528 7.60574 2.62048 7.85716 2.61637C8.04678 2.61295 8.2364 2.60952 8.42602 2.60815C8.77576 2.60541 9.13252 2.60746 9.47805 2.60815H9.65643C10.5596 2.61226 11.4775 2.61158 12.3652 2.61089C13.7417 2.61021 15.1645 2.60815 16.5635 2.62391C17.7932 2.63761 19.0433 2.63418 20.2519 2.63076C20.9858 2.6287 21.7443 2.62665 22.4901 2.6287C22.7338 2.6287 22.9775 2.62733 23.2212 2.62528C23.8463 2.62048 24.4924 2.61569 25.1209 2.65542C25.3386 2.66913 25.5184 2.69105 25.6884 2.75065C25.8394 2.80341 25.9904 2.87672 26.1491 2.97332C26.7517 3.33986 27.0712 3.8674 27.1267 4.58472C27.1435 4.79848 27.1393 5.01566 27.1351 5.24517C27.133 5.35 27.1309 5.45551 27.1316 5.56033V5.84876C27.1316 6.76271 27.1323 7.67666 27.1316 8.5913C27.1316 8.64268 27.1302 8.68105 27.1232 8.71256C27.0824 8.89138 27.1218 9.0702 27.2313 9.20174C27.3402 9.33328 27.5101 9.40933 27.6976 9.40933H27.7012C27.8093 9.40933 27.9175 9.40796 28.0249 9.40659C28.2784 9.40385 28.5411 9.40111 28.7967 9.4059C28.8649 9.40727 29.0418 9.41001 29.1795 9.2771C29.3178 9.14419 29.3171 8.96606 29.3171 8.90782C29.3136 8.00758 29.3136 7.09157 29.3136 6.20571C29.3136 5.77066 29.3136 5.33561 29.3136 4.90056C29.3136 4.57102 29.2764 4.22024 29.2034 3.85712C29.013 2.91166 28.5151 2.1176 27.7229 1.4962C27.1456 1.04334 26.6077 0.776141 26.0304 0.656245L25.9679 0.643228C25.6308 0.57266 25.2825 0.497297 24.906 0.500723C23.5555 0.504834 22.1818 0.504149 20.8531 0.503463C20.3474 0.503463 19.8418 0.503463 19.3361 0.503463H12.0182C11.3504 0.502778 10.6811 0.503463 10.0132 0.503463C8.38669 0.504149 6.70469 0.504834 5.05079 0.500723H5.03464C4.12447 0.500723 3.34282 0.698722 2.64544 1.10568C2.33713 1.28518 1.98388 1.50305 1.68751 1.80725C1.38412 2.11897 1.13129 2.50059 0.891109 3.00826C0.628451 3.55635 0.502038 4.08321 0.501336 4.61692C0.499229 8.23229 0.499229 12.193 0.501336 17.082C0.501336 17.2306 0.506954 17.4266 0.546985 17.626C0.790681 18.8318 1.39325 19.7786 2.33924 20.4384C2.91301 20.8392 3.57387 21.0838 4.35974 21.1865C4.67928 21.2283 4.9925 21.2242 5.29519 21.2194C5.39281 21.218 5.48692 21.2167 5.57892 21.2167V21.6545C5.58032 22.5746 5.58102 23.5269 5.57822 24.4621C5.57751 24.7183 5.66811 25.0787 6.10634 25.3425C6.27981 25.4466 6.46591 25.4987 6.65413 25.4987C6.88097 25.4987 7.11132 25.4233 7.32552 25.274C7.66965 25.0342 8.01096 24.7827 8.34104 24.5388C8.46815 24.445 8.59527 24.3511 8.72309 24.2579C9.09671 23.9846 9.48227 23.7112 9.85518 23.4467C10.3749 23.0781 10.9114 22.6979 11.4304 22.3067C11.8904 21.96 12.3771 21.6271 12.8477 21.3044L12.9207 21.2544C12.9748 21.2174 12.9979 21.2139 13.0218 21.2146C13.3147 21.2167 13.6068 21.2174 13.8997 21.218C14.2143 21.218 14.5289 21.2187 14.8436 21.2215C14.9033 21.2215 15.0831 21.2235 15.2214 21.0872C15.3591 20.9508 15.3555 20.7755 15.3541 20.7179C15.345 20.3308 15.3429 19.9492 15.3485 19.5833L15.3471 19.5854Z" fill="currentColor"/>
<path d="M21.8758 7.61562H22.1694C22.4896 7.61494 22.8204 7.61494 23.1448 7.61905H23.1624C23.1828 7.61905 23.2024 7.61973 23.2228 7.61973C23.3583 7.61973 23.4946 7.60672 23.6105 7.49504C23.7439 7.36556 23.7432 7.21209 23.7418 7.04492C23.7397 6.71058 23.739 6.37624 23.7397 6.03916C23.7397 5.89255 23.7397 5.74045 23.6091 5.61439C23.4791 5.48901 23.3239 5.48901 23.1736 5.48901H14.8992L14.5488 5.49107H8.5217C7.86997 5.49107 7.21824 5.49107 6.56651 5.49107C6.48153 5.49107 6.28208 5.49107 6.14584 5.64796C6.00959 5.80485 6.0426 5.99395 6.05665 6.07479C6.06788 6.14125 6.07069 6.21318 6.07139 6.30157V6.4749C6.0735 6.69003 6.07491 6.91269 6.07139 7.12987C6.07069 7.18537 6.06788 7.35391 6.20132 7.48545C6.29051 7.57315 6.41271 7.61973 6.563 7.61631C7.0209 7.61425 7.48722 7.61494 7.93879 7.61631C8.20566 7.61631 8.47113 7.61836 8.7387 7.61699C9.54072 7.61699 10.3427 7.61631 11.1455 7.61562C14.2075 7.61357 17.2688 7.61425 20.3308 7.61562H21.8751H21.8758Z" fill="currentColor"/>
<path d="M17.7899 10.3088C17.766 10.0122 17.5862 9.84844 17.2828 9.84844H17.2814C15.8312 9.85118 14.3809 9.85118 12.9307 9.85118H12.2776V9.84913H10.9292C10.1538 9.84913 9.37849 9.84913 8.60245 9.84913H8.20496C7.66068 9.84913 7.09674 9.84913 6.54403 9.8457C6.48223 9.84639 6.29191 9.84365 6.15496 9.993C6.06507 10.091 6.02855 10.2184 6.04681 10.3712C6.06015 10.4842 6.06788 10.5959 6.06998 10.7014C6.0742 10.9727 6.07701 11.218 6.06998 11.4653C6.06858 11.5249 6.06296 11.7058 6.20131 11.8442C6.33405 11.9764 6.51102 11.9826 6.58125 11.9826H6.59109C7.68456 11.9778 8.79699 11.9778 9.8729 11.9785H17.2575C17.3973 11.9785 17.5539 11.9798 17.6824 11.8531C17.8116 11.7257 17.8102 11.5715 17.8088 11.4359C17.8081 11.3324 17.8088 11.2283 17.8088 11.1248C17.8102 10.8604 17.8109 10.5863 17.7892 10.3102L17.7899 10.3088Z" fill="currentColor"/>
<path d="M15.8655 16.157C15.9568 16.0563 15.9962 15.9192 15.9765 15.7719C15.9407 15.5006 15.9498 15.2238 15.9596 14.9306C15.9617 14.8669 15.9638 14.8025 15.9653 14.7388C15.9681 14.6182 15.973 14.4531 15.8402 14.3209C15.7082 14.1886 15.5361 14.1886 15.4231 14.1886H14.2292C13.0353 14.1886 11.8414 14.1886 10.6468 14.1886H9.53154C8.56027 14.1893 7.55599 14.19 6.56856 14.1873C6.50044 14.1873 6.32417 14.1873 6.19073 14.3209C6.05659 14.4551 6.06221 14.6305 6.06432 14.697C6.07696 15.0841 6.07555 15.4561 6.0601 15.8041C6.05589 15.8918 6.04887 16.0549 6.17809 16.1864C6.30801 16.3187 6.48359 16.3166 6.54328 16.318C7.71892 16.3152 8.91422 16.3152 10.0709 16.3152H10.6482V16.3166H12.057C13.1708 16.3166 14.3226 16.3159 15.4547 16.3193H15.4575C15.6738 16.3193 15.7988 16.2317 15.8655 16.1577V16.157Z" fill="currentColor"/>
</g>
<defs>
<clipPath id="clip0_2335_1472">
<rect width="32" height="25" fill="white" transform="translate(0.5 0.5)"/>
</clipPath>
</defs>
</svg>
