<svg width="32" height="34" viewBox="0 0 32 34" fill="none" xmlns="http://www.w3.org/2000/svg">
<g clip-path="url(#clip0_2332_1304)">
<path d="M1.74677 22.0314C1.58572 21.8695 1.44944 21.746 1.32555 21.6097C0.652434 20.8897 0.474863 19.8587 0.900208 18.9598C1.02409 18.6999 1.19754 18.4571 1.38337 18.2355C1.62288 17.9544 1.8913 17.6945 2.15147 17.4346C3.07649 16.5144 4.50119 16.5101 5.41795 17.4431C6.70225 18.7553 7.97415 20.0802 9.25432 21.3967C9.34517 21.4904 9.44015 21.5841 9.55165 21.6906C9.61359 21.631 9.67966 21.5671 9.74574 21.5032C13.1278 18.014 16.5058 14.5249 19.8879 11.04C20.082 10.8397 20.2761 10.631 20.4785 10.4393C20.5735 10.3498 20.5693 10.3029 20.4785 10.2092C19.2024 8.90131 17.9347 7.58914 16.6586 6.2855C16.3324 5.9532 16.0351 5.60812 15.8988 5.14375C15.6428 4.26188 15.7873 3.46095 16.3778 2.77079C16.6751 2.42145 17.0014 2.09341 17.34 1.78241C18.2196 0.964435 19.6443 0.994257 20.4991 1.84205C20.623 1.9656 20.7345 2.10193 20.8625 2.24251C20.9286 2.17861 20.974 2.14027 21.0194 2.09341C21.3126 1.79519 21.5976 1.48845 21.8949 1.19449C22.8447 0.244451 24.3355 0.270012 25.2605 1.24561C25.913 1.93152 26.5778 2.60464 27.2344 3.29054C27.3253 3.38853 27.3666 3.32036 27.4203 3.26498C27.7465 2.92842 28.0686 2.58334 28.4031 2.25103C28.8078 1.84631 29.291 1.7398 29.8154 1.9443C30.6744 2.28086 30.9469 3.39705 30.3399 4.11703C30.0219 4.49193 29.6668 4.83701 29.324 5.18636C29.2249 5.28434 29.2249 5.3312 29.324 5.43345C29.9847 6.10657 30.6248 6.79674 31.2897 7.46134C32.2147 8.38581 32.2477 9.95359 31.2897 10.9292C30.9593 11.2658 30.6537 11.6236 30.3275 11.9857C30.3977 12.0624 30.5133 12.1732 30.6248 12.2925C31.397 13.1275 31.554 14.2522 31.0254 15.1937C30.9469 15.3386 30.8519 15.4749 30.7404 15.5984C30.4431 15.9222 30.1458 16.246 29.8278 16.5485C28.8574 17.4602 27.474 17.4218 26.5324 16.459C25.2192 15.1085 23.9101 13.7537 22.6011 12.399C22.5075 12.3024 22.4139 12.3024 22.3203 12.399C18.8143 16.0202 15.3041 19.6457 11.7981 23.2669C11.6784 23.3905 11.5586 23.5183 11.3976 23.6844C12.1326 24.4257 12.8594 25.15 13.578 25.8785C14.2139 26.5218 14.8457 27.1693 15.4693 27.8254C15.9731 28.3537 16.2581 28.9799 16.2168 29.7383C16.1879 30.3006 15.9896 30.7948 15.6221 31.208C15.3248 31.5403 15.0151 31.8599 14.6971 32.1666C13.8216 33.0144 12.401 33.0229 11.5669 32.1709C11.4223 32.026 11.2902 31.8684 11.1415 31.7022C11.0053 31.8471 10.8938 31.9664 10.7781 32.0814C10.5345 32.3328 10.2991 32.5926 10.0513 32.8355C9.1263 33.7301 7.72638 33.7173 6.822 32.8014C6.14063 32.107 5.46751 31.404 4.79439 30.7011C4.7118 30.6159 4.6705 30.6073 4.58378 30.7011C4.2658 31.0419 3.9437 31.3785 3.61333 31.7065C2.89892 32.4137 1.77155 32.1751 1.42466 31.2421C1.23057 30.7181 1.32555 30.2197 1.69721 29.8064C2.01519 29.4528 2.35381 29.1163 2.69657 28.784C2.79568 28.686 2.78742 28.6348 2.69657 28.5411C2.01106 27.8382 1.31729 27.1395 0.644175 26.4195C-0.206516 25.5078 -0.227164 24.119 0.59462 23.1774C0.916726 22.8068 1.276 22.4702 1.62288 22.1166C1.64766 22.0911 1.6807 22.074 1.73851 22.0314H1.74677Z" fill="currentColor"/>
</g>
<defs>
<clipPath id="clip0_2332_1304">
<rect width="32" height="33" fill="white" transform="translate(0 0.5)"/>
</clipPath>
</defs>
</svg>
