<svg width="101" height="86" viewBox="0 0 101 86" fill="none" xmlns="http://www.w3.org/2000/svg">
<g clip-path="url(#clip0_2316_386)">
<path d="M60.7917 20.9261C60.8407 32.5513 51.6396 40.7698 42.4589 41.7338C35.8872 42.4241 30.1758 40.5533 25.4061 35.9743C21.1052 31.8487 18.9934 26.7469 19.0138 20.7954C19.0587 9.36224 28.3331 -0.257315 40.5102 0.00410759C51.4154 0.241022 60.8325 9.30096 60.7917 20.9261Z" fill="currentColor"/>
<path d="M100.923 36.5012C101.012 38.3393 100.258 39.8548 99.023 41.1374C97.4249 42.7958 95.7739 44.4092 94.1432 46.0391C93.5507 46.6327 93.5399 47.2168 94.1106 47.7914C95.6312 49.315 97.1396 50.8509 98.6765 52.3581C100.046 53.7061 100.902 55.3032 100.992 57.2353C101.025 57.9706 100.943 58.7222 100.678 59.4329C100.275 60.5194 99.7487 61.5406 98.8885 62.329C97.2823 63.7995 95.3907 64.3754 93.23 64.0527C91.7584 63.8322 90.5394 63.1459 89.4999 62.1002C88.0893 60.6828 86.6747 59.2695 85.2601 57.8562C84.9299 57.5253 84.5752 57.2108 84.2695 56.8554C83.9433 56.4796 83.6498 56.5736 83.3726 56.8718C81.64 58.7344 79.8137 60.499 78.0077 62.2881C76.3974 63.8771 74.355 64.4816 72.2106 64.0772C69.3366 63.534 67.2248 61.4262 66.7682 58.4362C66.4258 56.1774 67.1759 54.2943 68.7128 52.7013C70.4454 50.9121 72.2188 49.1598 73.9921 47.4115C74.3264 47.0807 74.3305 46.8846 73.9962 46.5537C72.3166 44.9035 70.6615 43.2206 68.99 41.5622C67.9342 40.5124 67.1392 39.3197 66.8457 37.8369C66.3402 35.2839 67.1433 33.1558 69.043 31.4525C70.8001 29.8758 72.8833 29.4714 75.154 30.0473C76.1609 30.3047 77.0497 30.8071 77.7998 31.5464C79.6669 33.3927 81.5462 35.2227 83.4052 37.0771C83.7436 37.4162 83.9596 37.4366 84.2939 37.0771C85.3131 35.9906 86.4057 34.9776 87.4167 33.8788C88.3095 32.9107 89.2634 31.9794 90.303 31.1788C94.347 28.0826 100.005 30.4231 100.911 35.4841C100.968 35.8109 100.919 36.1622 100.919 36.5012H100.923Z" fill="currentColor"/>
<path d="M79.4626 75.6615C79.2873 74.9916 79.0305 74.3422 78.8715 73.6641C78.7248 73.0432 78.3986 72.5 78.2519 71.8668C77.9543 70.5842 77.4895 69.3384 77.1145 68.0721C77.0085 67.7167 76.8617 67.6064 76.4948 67.7576C75.7651 68.0558 74.9905 68.166 74.2078 68.1946C73.7634 68.1946 73.3191 68.2028 72.8747 68.2069C72.3366 68.166 71.7781 68.1987 71.2603 68.068C69.2995 67.5656 67.4976 66.7323 66.0218 65.3067C64.1873 63.534 63.005 61.4181 62.6871 58.8569C62.5566 57.8153 62.5362 56.7656 62.7238 55.728C63.0907 53.6816 63.9508 51.872 65.3206 50.2994C65.4877 50.1074 65.7038 49.9318 65.8873 49.7316L67.1551 48.4327C67.4119 48.1958 67.5954 47.7914 67.253 47.6035C66.1604 47.003 65.0067 46.5496 63.8 46.2555C63.5513 46.1943 63.2945 46.1126 63.0377 46.0635C62.312 45.8838 61.4274 45.9247 61.4274 45.9247C60.241 45.9328 59.0751 46.0717 57.9255 46.3781C56.9593 46.6395 56.038 47.0316 55.0922 47.3502C50.7383 48.8207 46.2743 49.6254 41.6758 49.6704C41.6391 49.6704 41.6024 49.6704 41.5657 49.6704C39.3276 49.895 37.0977 49.6254 34.8718 49.5152C33.7833 49.4621 32.6704 49.3313 31.5778 49.0944C29.6455 48.6778 27.7009 48.3265 25.8175 47.7015C25.2916 47.5259 24.7249 47.4401 24.2316 47.2277C22.3971 46.4353 20.5178 45.9042 18.508 45.9124C18.4631 45.9124 18.4224 45.9165 18.3775 45.9206C18.0555 45.9451 17.7334 45.9614 17.4154 45.9982C15.1773 46.2555 13.1471 47.0602 11.3534 48.4164C10.6277 48.9637 9.96731 49.5764 9.36803 50.3035C8.60569 51.2307 8.01457 52.2438 7.46829 53.2731C6.98724 54.1758 6.73041 55.2093 6.4532 56.2059C6.06999 57.5907 5.54002 58.9223 5.16496 60.3111C4.26402 63.6238 3.05732 66.8385 2.08706 70.1308C1.65493 71.5972 1.19427 73.0718 0.656145 74.5096C0.346317 75.3429 0.113946 76.213 0.0324118 77.0749C-0.142886 78.8762 0.313704 80.5714 1.27988 82.1113C2.18898 83.5614 3.44868 84.6112 5.02228 85.277C5.76424 85.5915 6.53881 85.9265 7.33784 85.9551C9.36803 86.0245 11.4023 85.9877 13.4325 85.9877C32.6419 85.9877 51.8512 85.9877 71.0606 85.9877C71.8107 85.9877 72.5649 86.0163 73.3068 85.8121C77.8116 84.5826 80.7427 80.6082 79.4586 75.6615H79.4626Z" fill="currentColor"/>
</g>
<defs>
<clipPath id="clip0_2316_386">
<rect width="101" height="86" fill="white"/>
</clipPath>
</defs>
</svg>
