<svg width="24" height="25" viewBox="0 0 24 25" fill="none" xmlns="http://www.w3.org/2000/svg">
<path d="M12 3.50543H19C19.5304 3.50543 20.0391 3.71615 20.4142 4.09122C20.7893 4.46629 21 4.975 21 5.50543V19.5054C21 20.0359 20.7893 20.5446 20.4142 20.9196C20.0391 21.2947 19.5304 21.5054 19 21.5054H12M12 3.50543H5C4.46957 3.50543 3.96086 3.71615 3.58579 4.09122C3.21071 4.46629 3 4.975 3 5.50543V19.5054C3 20.0359 3.21071 20.5446 3.58579 20.9196C3.96086 21.2947 4.46957 21.5054 5 21.5054H12M12 3.50543V21.5054" stroke="currentColor" stroke-width="2" stroke-linecap="round" stroke-linejoin="round"/>
</svg>
