<svg width="25" height="25" viewBox="0 0 25 25" fill="none" xmlns="http://www.w3.org/2000/svg">
<path d="M21.3401 5.11543C20.8294 4.60443 20.2229 4.19907 19.5555 3.92251C18.888 3.64595 18.1726 3.5036 17.4501 3.5036C16.7276 3.5036 16.0122 3.64595 15.3448 3.92251C14.6773 4.19907 14.0709 4.60443 13.5601 5.11543L12.5001 6.17543L11.4401 5.11543C10.4084 4.08373 9.00915 3.50414 7.55012 3.50414C6.09109 3.50414 4.69181 4.08373 3.66012 5.11543C2.62843 6.14712 2.04883 7.54639 2.04883 9.00543C2.04883 10.4645 2.62843 11.8637 3.66012 12.8954L4.72012 13.9554L12.5001 21.7354L20.2801 13.9554L21.3401 12.8954C21.8511 12.3847 22.2565 11.7782 22.533 11.1108C22.8096 10.4433 22.9519 9.72791 22.9519 9.00543C22.9519 8.28294 22.8096 7.56753 22.533 6.90007C22.2565 6.23261 21.8511 5.62618 21.3401 5.11543Z" stroke="currentColor" stroke-width="2" stroke-linecap="round" stroke-linejoin="round"/>
</svg>
