<svg width="18" height="23" viewBox="0 0 18 23" fill="none" xmlns="http://www.w3.org/2000/svg">
<g clip-path="url(#clip0_2327_955)">
<path d="M11.6871 0.00543213C11.8501 0.0564406 12.0168 0.0972473 12.1747 0.159658C13.2076 0.568925 13.7933 1.6431 13.5461 2.66687C13.2938 3.71164 12.3143 4.44197 11.2254 4.39756C10.0823 4.35075 9.15634 3.54242 9.01102 2.46464C8.8701 1.41627 9.55392 0.410499 10.624 0.0906462C10.7121 0.0642418 10.7989 0.0336368 10.8863 0.00543213C11.153 0.00543213 11.4198 0.00543213 11.6871 0.00543213Z" fill="currentColor"/>
<path d="M7.24827 7.17961C6.93625 7.20662 6.6475 7.22222 6.36315 7.26543C6.30842 7.27383 6.24425 7.38725 6.23167 7.45986C6.06748 8.41162 5.92594 9.36697 5.74602 10.3157C5.69318 10.5966 5.57365 10.878 5.42644 11.1271C5.14713 11.5987 4.63443 11.7764 4.09404 11.6377C3.50522 11.4865 3.15671 11.1283 3.1718 10.5696C3.18816 9.96647 3.26239 9.36337 3.34984 8.76507C3.47188 7.92854 3.62915 7.0968 3.77384 6.26326C3.79397 6.14564 3.82983 6.03042 3.85688 5.9134C3.98144 5.37091 4.33435 5.04026 4.90179 4.95144C5.58183 4.84523 6.26753 4.77141 6.95072 4.6844C7.60308 4.60099 8.25733 4.52657 8.90843 4.43476C9.84639 4.30274 10.6975 4.51337 11.4833 5.00005C11.8601 5.23349 12.0929 5.57015 12.2577 5.96201C12.6345 6.85616 13.0214 7.74671 13.4045 8.63845C13.4278 8.69306 13.4561 8.74587 13.4901 8.81788C13.5655 8.78788 13.636 8.76207 13.7033 8.73207C14.5557 8.35401 15.4075 7.97474 16.2599 7.59608C16.7953 7.35844 17.3816 7.48926 17.737 7.92554C18.0836 8.35161 18.0956 9.00091 17.7175 9.39938C17.4942 9.63402 17.2161 9.82665 16.9431 10.0115C16.7273 10.1573 16.4832 10.2677 16.2473 10.3853C15.4421 10.7862 14.6356 11.1853 13.8266 11.5801C13.653 11.6648 13.4737 11.7464 13.2875 11.7974C12.6949 11.9594 12.1929 11.8088 11.8349 11.3293C11.6147 11.0334 11.4518 10.6992 11.2599 10.3775C11.2461 10.4153 11.2235 10.4664 11.2077 10.5198C11.0983 10.8942 11.0121 11.2765 10.8737 11.6401C10.7774 11.8922 10.8598 12.02 11.0618 12.1736C11.9324 12.8367 12.7943 13.5095 13.6473 14.1936C13.9405 14.4282 14.2204 14.6863 14.4651 14.9659C15.0099 15.5882 14.9816 16.1517 14.3695 16.7092C14.0594 16.9918 13.7109 17.2403 13.3554 17.4719C12.0148 18.3451 10.6648 19.205 9.31796 20.0679C8.98266 20.2828 8.61465 20.3968 8.20763 20.3656C7.65403 20.323 7.26085 20.0481 7.06395 19.5603C6.86453 19.0658 6.89976 18.5659 7.30678 18.1824C7.64397 17.8644 8.04092 17.5991 8.43095 17.3381C9.09841 16.891 9.78223 16.4667 10.4572 16.0305C10.6183 15.9267 10.7737 15.815 10.958 15.689C10.0754 15.0085 9.21165 14.343 8.32715 13.6619C8.17051 14.145 8.02393 14.604 7.87295 15.0625C7.62384 15.818 7.37346 16.573 7.11931 17.3273C6.88718 18.0168 6.49086 18.5953 5.93978 19.1066C5.35662 19.6479 4.83762 20.2528 4.30542 20.8415C3.7103 21.5004 3.10953 22.1509 2.3628 22.6616C1.99227 22.9148 1.59217 23.0672 1.12917 22.982C0.176104 22.8068 -0.329051 21.678 0.232721 20.9207C0.539086 20.5078 0.914649 20.14 1.277 19.7673C2.06084 18.9608 2.86355 18.1704 3.64362 17.3609C4.09404 16.8934 4.39349 16.3461 4.59731 15.7316C5.50822 12.9814 6.43675 10.2365 7.18536 7.44006C7.20612 7.36264 7.22248 7.28463 7.24701 7.17961H7.24827Z" fill="currentColor"/>
</g>
<defs>
<clipPath id="clip0_2327_955">
<rect width="18" height="23" fill="white" transform="translate(0 0.00543213)"/>
</clipPath>
</defs>
</svg>
