<svg width="24" height="27" viewBox="0 0 24 27" fill="none" xmlns="http://www.w3.org/2000/svg">
<g clip-path="url(#clip0_2307_288)">
<path d="M18.4738 23.5241C17.635 23.5241 16.7962 23.526 15.9576 23.5218C15.8553 23.5212 15.8162 23.55 15.8004 23.6552C15.668 24.5413 15.2849 25.3071 14.6505 25.921C14.0098 26.541 13.2328 26.8938 12.3451 26.9821C10.3743 27.1781 8.5104 25.7327 8.19396 23.66C8.17649 23.5452 8.13618 23.5214 8.0302 23.5216C6.39158 23.525 4.75296 23.5241 3.11434 23.524C1.56894 23.524 0.348707 22.5256 0.0541052 20.9837C-0.134178 19.9982 0.174029 19.1421 0.832433 18.4151C1.39191 17.7973 2.10591 17.4964 2.92018 17.4311C3.35822 17.396 3.42809 17.3239 3.42826 16.8731C3.42893 15.1096 3.40642 13.3456 3.43918 11.5827C3.47697 9.54495 4.15368 7.7341 5.43656 6.16217C6.38553 4.99937 7.56797 4.17205 8.94777 3.62774C9.06282 3.58228 9.14394 3.54776 9.11993 3.38045C8.92895 2.04795 9.63842 0.778679 10.8494 0.236758C11.9932 -0.275084 13.3791 0.0810692 14.1209 0.931292C14.7553 1.65813 15.0131 2.48972 14.8702 3.44812C14.8554 3.54742 14.886 3.57647 14.9666 3.6074C16.227 4.09122 17.3102 4.8483 18.2125 5.85917C19.3086 7.08725 20.0432 8.5134 20.3758 10.1445C20.5086 10.7964 20.5696 11.4559 20.5683 12.1221C20.5649 13.7492 20.5651 15.3765 20.5637 17.0037C20.5634 17.2995 20.6758 17.4094 20.9873 17.4232C21.8716 17.4624 22.628 17.7963 23.2136 18.476C24.0262 19.4186 24.2182 20.4873 23.7446 21.6508C23.2838 22.7821 22.4076 23.3844 21.2342 23.4883C20.4487 23.5578 19.6537 23.5161 18.8628 23.5238C18.7331 23.525 18.6035 23.524 18.4736 23.5238L18.4738 23.5241ZM11.9951 21.7837V21.782C13.1711 21.782 14.347 21.782 15.5231 21.782C17.3216 21.7822 19.1203 21.7817 20.9188 21.7839C21.1926 21.7842 21.4514 21.7379 21.6857 21.5862C22.1194 21.3054 22.3562 20.767 22.2657 20.2673C22.1726 19.7534 21.7546 19.306 21.2532 19.2007C21.0893 19.1664 20.9191 19.1592 20.7515 19.1462C19.6814 19.0628 18.8473 18.1473 18.8472 17.0532C18.8468 15.2545 18.8494 13.4556 18.8445 11.6569C18.8438 11.403 18.8262 11.1461 18.7857 10.8957C18.5155 9.2199 17.7951 7.7864 16.5639 6.62343C15.4944 5.6129 14.2447 4.99202 12.7956 4.82352C11.5908 4.68338 10.4144 4.83155 9.29544 5.33177C7.84998 5.97777 6.74413 7.00197 5.98243 8.41377C5.41472 9.46599 5.14061 10.5859 5.14699 11.7858C5.15606 13.5141 5.15052 15.2426 5.14884 16.971C5.148 17.911 4.67385 18.6504 3.86008 18.9996C3.56296 19.1271 3.24938 19.1483 2.93445 19.1684C2.06005 19.2247 1.48244 20.1574 1.82021 20.9786C2.00513 21.4281 2.40034 21.7895 3.11014 21.7875C6.07178 21.7789 9.03343 21.7839 11.9949 21.7839L11.9951 21.7837ZM9.90665 23.5317C10.0136 24.5073 11.0636 25.3118 12.1558 25.2637C13.2365 25.2162 14.0205 24.2236 14.0865 23.5317H9.90648H9.90665ZM13.217 2.94722C13.2067 2.26123 12.6745 1.73076 11.9947 1.72905C11.3261 1.72734 10.7901 2.26157 10.7789 2.94089C10.7757 3.13811 10.7774 3.13657 10.9734 3.11384C11.6625 3.03386 12.3522 3.01848 13.042 3.10803C13.2198 3.1311 13.2198 3.13213 13.217 2.94722Z" fill="currentColor"/>
<path d="M23.9386 9.52301C23.95 9.97862 23.662 10.3297 23.2437 10.423C22.8823 10.5036 22.471 10.2828 22.324 9.9024C22.2395 9.68331 22.1973 9.44747 22.1342 9.21966C21.6652 7.5293 20.8342 6.05119 19.6223 4.79782C19.4495 4.61906 19.2938 4.43534 19.2812 4.16857C19.2644 3.81259 19.3946 3.52496 19.7008 3.35116C20.0115 3.17462 20.3434 3.17035 20.6254 3.40448C20.8647 3.60323 21.0834 3.83395 21.2845 4.07355C22.5583 5.59199 23.4493 7.31209 23.8921 9.26358C23.9152 9.36595 23.9292 9.47037 23.9384 9.52335L23.9386 9.52301Z" fill="currentColor"/>
<path d="M0.887182 10.4408C0.349709 10.4351 -0.0414701 9.92754 0.0776137 9.37691C0.367681 8.03518 0.874081 6.78283 1.5906 5.61867C2.05786 4.85953 2.60038 4.16004 3.22166 3.52584C3.65013 3.08851 4.27242 3.15635 4.58567 3.66512C4.77664 3.9753 4.74388 4.37418 4.49161 4.6671C4.29241 4.8985 4.07372 5.1128 3.87839 5.34711C2.82611 6.60937 2.11665 8.04834 1.75268 9.6618C1.66366 10.0567 1.45287 10.3268 1.05346 10.4202C0.999379 10.4329 0.942609 10.4341 0.887014 10.4406L0.887182 10.4408Z" fill="currentColor"/>
</g>
<defs>
<clipPath id="clip0_2307_288">
<rect width="24" height="27" fill="currentColor"/>
</clipPath>
</defs>
</svg>
