<svg width="24" height="26" viewBox="0 0 24 26" fill="none" xmlns="http://www.w3.org/2000/svg">
<path d="M22.56 4.72727H18.24V3.30909C18.24 2.43147 17.886 1.58979 17.2559 0.96921C16.6258 0.348635 15.7711 0 14.88 0H9.12C8.22887 0 7.37424 0.348635 6.74412 0.96921C6.114 1.58979 5.76 2.43147 5.76 3.30909V4.72727H1.44C1.05809 4.72727 0.691819 4.87669 0.421766 5.14265C0.151714 5.40861 0 5.76933 0 6.14545C0 6.52158 0.151714 6.8823 0.421766 7.14826C0.691819 7.41422 1.05809 7.56364 1.44 7.56364H1.92V23.6364C1.92 24.2632 2.17286 24.8644 2.62294 25.3077C3.07303 25.751 3.68348 26 4.32 26H19.68C20.3165 26 20.927 25.751 21.3771 25.3077C21.8271 24.8644 22.08 24.2632 22.08 23.6364V7.56364H22.56C22.9419 7.56364 23.3082 7.41422 23.5782 7.14826C23.8483 6.8823 24 6.52158 24 6.14545C24 5.76933 23.8483 5.40861 23.5782 5.14265C23.3082 4.87669 22.9419 4.72727 22.56 4.72727ZM8.64 3.30909C8.64 3.18372 8.69057 3.06348 8.78059 2.97482C8.87061 2.88617 8.9927 2.83636 9.12 2.83636H14.88C15.0073 2.83636 15.1294 2.88617 15.2194 2.97482C15.3094 3.06348 15.36 3.18372 15.36 3.30909V4.72727H8.64V3.30909ZM19.2 23.1636H4.8V7.56364H19.2V23.1636ZM10.56 11.3455V18.9091C10.56 19.2852 10.4083 19.6459 10.1382 19.9119C9.86818 20.1779 9.50191 20.3273 9.12 20.3273C8.73809 20.3273 8.37182 20.1779 8.10177 19.9119C7.83171 19.6459 7.68 19.2852 7.68 18.9091V11.3455C7.68 10.9693 7.83171 10.6086 8.10177 10.3426C8.37182 10.0767 8.73809 9.92727 9.12 9.92727C9.50191 9.92727 9.86818 10.0767 10.1382 10.3426C10.4083 10.6086 10.56 10.9693 10.56 11.3455ZM16.32 11.3455V18.9091C16.32 19.2852 16.1683 19.6459 15.8982 19.9119C15.6282 20.1779 15.2619 20.3273 14.88 20.3273C14.4981 20.3273 14.1318 20.1779 13.8618 19.9119C13.5917 19.6459 13.44 19.2852 13.44 18.9091V11.3455C13.44 10.9693 13.5917 10.6086 13.8618 10.3426C14.1318 10.0767 14.4981 9.92727 14.88 9.92727C15.2619 9.92727 15.6282 10.0767 15.8982 10.3426C16.1683 10.6086 16.32 10.9693 16.32 11.3455Z" fill="currentColor"/>
</svg>
