<svg width="22" height="23" viewBox="0 0 22 23" fill="none" xmlns="http://www.w3.org/2000/svg">
<g clip-path="url(#clip0_970_57)">
<path d="M22 11.5C22 10.7881 21.9327 10.0929 21.8096 9.4188H11.2277V13.5812H17.632C17.2161 15.0218 16.3431 16.2538 15.1745 17.1047L18.479 19.6805C20.6572 17.667 22.0009 14.749 22.0009 11.5H22Z" fill="#3284FF"/>
<path d="M11.366 4.95984C12.9756 4.95984 14.4262 5.53096 15.5499 6.48136L18.6083 3.44272C16.6978 1.6176 14.1199 0.5 11.2277 0.5C6.91715 0.5 3.07368 2.98072 1.2027 6.59048L4.95724 9.39504C5.91743 6.8096 8.46747 4.95984 11.3651 4.95984H11.366Z" fill="#FF3424"/>
<path d="M1.27367 16.5424L4.89438 13.7211C4.67432 13.0682 4.55216 12.373 4.55216 11.6496C4.55216 10.8585 4.69677 10.0999 4.95815 9.39592L1.20361 6.59136C0.437431 8.06888 0 9.73472 0 11.5C0 13.2653 0.464378 15.0314 1.27367 16.5424Z" fill="#FFBB00"/>
<path d="M4.89347 13.7202L1.27277 16.5415C3.168 20.0791 6.97015 22.4991 11.2268 22.4991C14.0535 22.4991 16.582 21.4326 18.4772 19.6796L15.1727 17.1038C14.1092 17.8782 12.8023 18.3367 11.3642 18.3367C8.39921 18.3367 5.79798 16.3998 4.89168 13.7194L4.89347 13.7202Z" fill="#26B14C"/>
</g>
<defs>
<clipPath id="clip0_970_57">
<rect width="22" height="22" fill="white" transform="translate(0 0.5)"/>
</clipPath>
</defs>
</svg>
