<svg width="24" height="23" viewBox="0 0 24 23" fill="none" xmlns="http://www.w3.org/2000/svg">
<g clip-path="url(#clip0_970_64)">
<path d="M16.3825 0.113503C16.4355 0.113503 16.4885 0.113503 16.5445 0.113503C16.6745 1.7195 16.0615 2.9195 15.3165 3.7885C14.5855 4.6515 13.5845 5.4885 11.9655 5.3615C11.8575 3.7785 12.4715 2.6675 13.2155 1.8005C13.9055 0.992503 15.1705 0.273502 16.3825 0.113503Z" fill="black"/>
<path d="M21.2835 16.8295C21.2835 16.8455 21.2835 16.8595 21.2835 16.8745C20.8285 18.2525 20.1795 19.4335 19.3875 20.5295C18.6645 21.5245 17.7785 22.8635 16.1965 22.8635C14.8295 22.8635 13.9215 21.9845 12.5205 21.9605C11.0385 21.9365 10.2235 22.6955 8.86853 22.8865C8.71353 22.8865 8.55853 22.8865 8.40653 22.8865C7.41153 22.7425 6.60853 21.9545 6.02353 21.2445C4.29853 19.1465 2.96553 16.4365 2.71753 12.9685C2.71753 12.6285 2.71753 12.2895 2.71753 11.9495C2.82253 9.46751 4.02853 7.44951 5.63153 6.47151C6.47753 5.95151 7.64053 5.50851 8.93553 5.70651C9.49053 5.79251 10.0575 5.98251 10.5545 6.17051C11.0255 6.35151 11.6145 6.67251 12.1725 6.65551C12.5505 6.64451 12.9265 6.44751 13.3075 6.30851C14.4235 5.90551 15.5175 5.44351 16.9595 5.66051C18.6925 5.92251 19.9225 6.69251 20.6825 7.88051C19.2165 8.81351 18.0575 10.2195 18.2555 12.6205C18.4315 14.8015 19.6995 16.0775 21.2835 16.8295Z" fill="black"/>
</g>
<defs>
<clipPath id="clip0_970_64">
<rect width="22.773" height="22.773" fill="white" transform="translate(0.613525 0.113503)"/>
</clipPath>
</defs>
</svg>
