<svg width="23" height="27" viewBox="0 0 23 27" fill="none" xmlns="http://www.w3.org/2000/svg">
<path d="M22.694 15.6228C22.7107 16.2257 22.6539 16.8683 22.5435 17.5027C22.4682 17.9388 22.3462 18.3666 22.2408 18.7961C22.0351 19.6336 21.6672 20.4034 21.2475 21.1534C20.9147 21.748 20.5318 22.3064 20.0953 22.8284C19.8211 23.1571 19.5134 23.4611 19.2074 23.7617C18.7408 24.2209 18.2408 24.6422 17.6873 24.9973C17.0903 25.3806 16.485 25.7506 15.8295 26.0331C15.0953 26.3503 14.3378 26.5997 13.5535 26.7616C12.5887 26.9598 11.6121 27.0209 10.6271 26.9449C10.1405 26.9086 9.6589 26.8425 9.18064 26.7418C8.00339 26.494 6.88801 26.0876 5.8529 25.483C5.08367 25.0337 4.35123 24.5332 3.70407 23.9153C3.00842 23.2513 2.36127 22.5492 1.83954 21.7414C1.44656 21.1335 1.09372 20.5058 0.836195 19.8285C0.560276 19.1033 0.314455 18.3716 0.175659 17.6067C0.0786697 17.0682 0.0167986 16.5247 0.0101097 15.9779C0.00843746 15.7781 0.0101083 15.5765 0.00341933 15.3767C-0.0166475 14.7836 0.0535833 14.1988 0.162279 13.6174C0.284352 12.9682 0.433183 12.3239 0.645557 11.6995C0.841209 11.1197 1.05192 10.5448 1.27767 9.97658C1.42315 9.60986 1.59873 9.2547 1.77432 8.90119C1.99505 8.46013 2.21913 8.02072 2.45993 7.59123C2.87966 6.84457 3.32615 6.11277 3.82615 5.41402C4.41478 4.59137 5.04354 3.80011 5.75926 3.07988C6.16895 2.6669 6.5753 2.24732 7.03684 1.88886C7.30774 1.67906 7.59537 1.4891 7.87463 1.29087C8.28098 1.00178 8.71409 0.762257 9.17229 0.564029C9.56359 0.393883 9.96158 0.24356 10.3763 0.144445C10.8629 0.0288122 11.3629 0.000729635 11.8612 0.0403753C12.2944 0.0750653 12.7074 0.20061 13.1154 0.349282C13.8412 0.613586 14.4933 1.00509 15.1221 1.44119C15.893 1.97641 16.5686 2.61569 17.1923 3.30784C17.5886 3.74725 17.9666 4.20483 18.3311 4.67066C18.6438 5.06712 18.9432 5.47514 19.2191 5.89803C19.7776 6.75206 20.301 7.62592 20.7508 8.54273C21.2375 9.53552 21.6906 10.5448 22.0301 11.5971C22.189 12.091 22.3345 12.5915 22.4381 13.0987C22.607 13.9164 22.6873 14.7456 22.6906 15.6244L22.694 15.6228ZM1.97331 15.8194C1.99338 16.1266 1.99839 16.5495 2.0519 16.9674C2.10374 17.3622 2.19907 17.7521 2.28769 18.1419C2.40977 18.6772 2.60374 19.1876 2.83786 19.6848C3.1723 20.3951 3.61378 21.0427 4.11545 21.644C4.65223 22.2882 5.26093 22.8664 5.96829 23.3322C6.28099 23.5387 6.59036 23.7568 6.91979 23.9335C7.28434 24.1284 7.67062 24.2854 8.05188 24.4489C8.53014 24.6537 9.02847 24.8008 9.5385 24.9015C9.90305 24.9726 10.2726 25.0172 10.6405 25.07C11.1321 25.1411 11.6255 25.1278 12.1171 25.0898C12.6907 25.0452 13.2509 24.9114 13.8044 24.7595C14.3964 24.5959 14.9649 24.3713 15.5134 24.0987C16.1773 23.77 16.7793 23.3471 17.3562 22.8895C17.7642 22.5657 18.107 22.1825 18.4482 21.7926C19.0101 21.1484 19.4549 20.4282 19.8211 19.665C20.1054 19.0736 20.3111 18.4525 20.4532 17.8083C20.6221 17.0451 20.7442 16.2769 20.7291 15.4939C20.7157 14.8051 20.6238 14.1262 20.4799 13.4505C20.2977 12.5899 20.0468 11.7507 19.6973 10.9446C19.5117 10.5184 19.2993 10.1021 19.102 9.68089C18.7124 8.84502 18.2475 8.04881 17.7575 7.2658C17.1188 6.24328 16.3746 5.30499 15.5368 4.43774C15.1656 4.0545 14.7843 3.68282 14.3729 3.34088C14.0234 3.05014 13.6455 2.80236 13.2525 2.57605C12.7525 2.28862 12.2308 2.06231 11.6388 2.02927C11.2224 2.00614 10.8178 2.04909 10.4231 2.16968C9.91141 2.32661 9.45824 2.59422 9.01509 2.88991C8.38801 3.30619 7.83617 3.80672 7.30941 4.33367C6.69068 4.95479 6.11711 5.61555 5.58033 6.3077C5.32782 6.63312 5.05524 6.94699 4.87464 7.32197C4.83952 7.39465 4.78769 7.45908 4.74588 7.52846C4.53351 7.88692 4.31611 8.24373 4.11042 8.60715C3.96661 8.86154 3.83785 9.1242 3.70575 9.3852C3.51344 9.76679 3.29939 10.1401 3.14053 10.5349C2.95157 10.9991 2.72916 11.4517 2.59705 11.939C2.5101 12.2628 2.40642 12.5816 2.32448 12.9054C2.25424 13.1829 2.20073 13.4637 2.1489 13.7462C2.10709 13.9692 2.06361 14.1939 2.04689 14.4185C2.01512 14.8447 2.00174 15.2726 1.97499 15.8144L1.97331 15.8194Z" fill="currentColor"/>
<path d="M11.3244 6.09125C11.4113 6.19037 11.4849 6.25644 11.5368 6.33573C11.8645 6.828 12.2274 7.29549 12.5953 7.75967C12.7475 7.95129 12.8829 8.15448 13.0334 8.3461C13.2224 8.58397 13.4214 8.81524 13.612 9.05146C13.806 9.29264 14.0016 9.53382 14.1889 9.7783C14.515 10.2061 14.8378 10.6356 15.1605 11.0651C15.6454 11.711 16.0668 12.3916 16.3177 13.1631C16.5334 13.8238 16.6153 14.5011 16.5986 15.1949C16.5903 15.5269 16.5334 15.849 16.4515 16.1695C16.3695 16.4883 16.2943 16.8105 16.1505 17.1094C16.02 17.382 15.8729 17.648 15.719 17.9073C15.612 18.089 15.4933 18.2674 15.3545 18.426C14.8344 19.0224 14.2291 19.5163 13.4899 19.8301C13.0936 19.9986 12.6822 20.1258 12.2541 20.2018C11.7809 20.2861 11.3043 20.2927 10.8311 20.2431C10.4113 20.1985 10.0033 20.0895 9.60867 19.9441C9.09864 19.7575 8.61536 19.5212 8.17891 19.1925C7.88961 18.9744 7.6321 18.73 7.39129 18.4607C7.06354 18.0907 6.79096 17.6909 6.58193 17.2466C6.403 16.8683 6.25919 16.4751 6.18728 16.0638C6.08695 15.4873 6.03343 14.9025 6.12206 14.3194C6.16889 14.0055 6.25082 13.695 6.33109 13.3861C6.48327 12.7947 6.75918 12.2529 7.06854 11.7292C7.24747 11.4269 7.45818 11.1411 7.66721 10.857C7.88961 10.5563 8.12874 10.2673 8.35784 9.97157C8.56018 9.70892 8.75584 9.44296 8.9565 9.17866C9.29931 8.73099 9.65885 8.29324 9.98326 7.83236C10.3244 7.3467 10.704 6.89243 11.0652 6.42494C11.1438 6.32252 11.2224 6.2201 11.3227 6.0896L11.3244 6.09125ZM11.2458 11.3427C11.2893 11.1609 11.1973 11.0404 11.0468 10.9429C10.8177 10.7942 10.5786 10.7149 10.3043 10.8041C10.1404 10.8586 9.99496 10.9478 9.87791 11.0684C9.58192 11.3724 9.29429 11.6829 9.00667 11.9935C8.94814 12.0563 8.89964 12.1306 8.85616 12.2049C8.70232 12.4659 8.55015 12.7286 8.40132 12.9913C8.25584 13.2506 8.17055 13.5281 8.17055 13.8255C8.17055 14.0055 8.21403 14.0699 8.39129 14.1212C8.64547 14.1955 8.908 14.1955 9.17055 14.1806C9.28927 14.174 9.36286 14.1129 9.39798 14.0039C9.41135 13.9626 9.4264 13.9229 9.44145 13.8816C9.49329 13.7445 9.53509 13.6041 9.59864 13.4736C9.77589 13.1036 10.1003 12.8508 10.3762 12.5601C10.5401 12.3867 10.7391 12.2462 10.9047 12.0744C11.0986 11.8729 11.2642 11.6483 11.2458 11.3394V11.3427ZM8.75918 15.0198C8.68226 15.0198 8.60534 15.0231 8.53009 15.0181C8.28761 15.0016 8.14881 15.1619 8.14546 15.3964C8.14045 15.8623 8.2943 16.2736 8.54012 16.6634C8.66721 16.865 8.84111 16.9823 9.07523 17.0269C9.31268 17.0715 9.47992 16.9476 9.48159 16.7097C9.48159 16.6073 9.48159 16.5032 9.45817 16.4024C9.39129 16.1001 9.34947 15.7962 9.33609 15.4873C9.33275 15.3915 9.30935 15.294 9.28092 15.2015C9.24246 15.0809 9.15216 15.0181 9.02005 15.0181C8.93309 15.0181 8.84446 15.0181 8.75751 15.0181L8.75918 15.0198Z" fill="currentColor"/>
<path d="M17.6069 18.5649C17.7708 18.5649 17.9213 18.6095 18.0567 18.6971C18.2842 18.8458 18.3761 19.0836 18.2724 19.3331C18.1955 19.5164 18.0885 19.6882 17.9781 19.8551C17.6236 20.4002 17.1738 20.8644 16.6905 21.2988C16.6186 21.3649 16.5367 21.4194 16.4597 21.4806C16.1688 21.7102 15.8878 21.9513 15.5852 22.1644C15.3327 22.3428 15.0584 22.4932 14.7892 22.6468C14.6487 22.7277 14.4915 22.7178 14.3427 22.6683C13.9246 22.5295 13.719 21.9943 13.9832 21.6325C14.1086 21.4607 14.2725 21.3385 14.4614 21.2493C14.8945 21.0444 15.2858 20.7818 15.627 20.4481C15.7942 20.2846 15.9631 20.1227 16.132 19.9608C16.4397 19.6668 16.7123 19.343 16.9597 18.9977C17.0133 18.9234 17.0718 18.8507 17.132 18.7813C17.2607 18.6343 17.4146 18.5666 17.6069 18.5682V18.5649Z" fill="currentColor"/>
<path d="M6.84082 7.42451C6.85085 7.18994 6.94784 7.01153 7.07159 6.84304C7.36423 6.44328 7.70871 6.08647 8.05654 5.73626C8.34751 5.44388 8.65185 5.16305 8.95285 4.87893C9.13346 4.70878 9.35753 4.60306 9.58663 4.51386C9.70034 4.46925 9.80904 4.49568 9.89098 4.57663C10.0181 4.70217 10.1435 4.83267 10.2472 4.97639C10.3625 5.13497 10.3475 5.2886 10.2171 5.43727C10.1435 5.52317 10.0582 5.60246 9.96456 5.66688C9.2572 6.1575 8.68195 6.77366 8.18028 7.46416C8.1067 7.56492 8.02143 7.65743 7.93447 7.74663C7.8241 7.85896 7.68195 7.91843 7.52811 7.9399C7.20369 7.98451 7.0047 7.81931 6.86089 7.5484C6.83915 7.50876 6.84584 7.45424 6.84082 7.42451Z" fill="currentColor"/>
<path d="M19.211 16.1101C19.1859 16.3298 19.1708 16.5511 19.134 16.7692C19.1123 16.8997 19.0638 17.0302 19.0103 17.1524C18.9451 17.3011 18.8297 17.382 18.6541 17.3952C18.4551 17.4101 18.2611 17.4151 18.0705 17.3539C17.8765 17.2912 17.8498 17.2433 17.8682 17.0467C17.9083 16.6106 17.9434 16.1745 17.9819 15.7384C17.9869 15.6905 17.9936 15.6409 18.0103 15.5963C18.114 15.3271 18.4969 15.1272 18.7778 15.1916C18.9601 15.2329 19.1742 15.4675 19.1859 15.6558C19.1959 15.8061 19.1875 15.9581 19.1875 16.1101C19.1959 16.1101 19.2026 16.1101 19.211 16.1117V16.1101Z" fill="currentColor"/>
</svg>
