<svg width="23" height="25" viewBox="0 0 23 25" fill="none" xmlns="http://www.w3.org/2000/svg">
<g clip-path="url(#clip0_2046_564)">
<path d="M12.9645 7.46927C12.9551 7.64671 12.9475 7.82604 12.9343 8.00348C12.9191 8.22434 12.9078 8.44898 12.8775 8.66795C12.8492 8.87371 12.8019 9.07758 12.7508 9.27956C12.6903 9.51741 12.6204 9.75525 12.5485 9.99121C12.3235 10.7255 11.9245 11.3598 11.3988 11.911C11.0017 12.3263 10.5894 12.7265 10.1829 13.1323C9.77254 13.5438 9.36031 13.9553 8.95564 14.3725C8.74007 14.5953 8.53962 14.8293 8.3354 15.0615C8.28812 15.1163 8.25219 15.1861 8.22761 15.2541C8.19168 15.3485 8.23707 15.4108 8.33351 15.3862C8.481 15.3485 8.63039 15.2975 8.76276 15.2239C8.89135 15.1521 8.99535 15.0427 9.11448 14.952C9.31682 14.7991 9.51915 14.6481 9.72338 14.499C9.75174 14.4782 9.78767 14.4707 9.83116 14.4537C9.8652 14.6085 9.81793 14.7387 9.75931 14.8558C9.63072 15.1087 9.49646 15.3598 9.34518 15.5995C9.15608 15.8959 8.9424 16.1772 8.74952 16.4716C8.48479 16.8737 8.22383 17.2796 7.97422 17.6911C7.75676 18.0516 7.5374 18.4122 7.22728 18.701C6.868 19.0389 6.45387 19.2975 5.96789 19.4164C5.72774 19.4749 5.48569 19.4372 5.25877 19.3428C4.88436 19.188 4.57613 18.9577 4.36623 18.5953C4.12418 18.1762 3.92752 17.7364 3.78003 17.2796C3.61929 16.7812 3.47936 16.2772 3.34888 15.7713C3.1768 15.1087 3.01985 14.4424 2.85912 13.7779C2.82319 13.6288 2.78915 13.4778 2.75511 13.3267C2.74377 13.2739 2.73999 13.2192 2.73242 13.1531C3.01418 13.0625 3.20517 12.8624 3.40561 12.6698C3.73086 12.3584 4.08069 12.0714 4.40216 11.7562C5.03942 11.1352 5.66722 10.5028 6.29881 9.87418C6.79425 9.38149 7.28779 8.88881 7.77945 8.39046C8.28434 7.88078 8.78356 7.36545 9.28467 6.85389C9.87655 6.24983 10.4684 5.64388 11.0622 5.03982C11.2173 4.88126 11.3685 4.71703 11.5368 4.57356C11.724 4.41311 11.7808 4.42821 11.9207 4.62453C12.2025 5.01906 12.4218 5.44567 12.592 5.89683C12.6355 6.01198 12.6809 6.12713 12.7187 6.24416C12.7603 6.37064 12.7357 6.40839 12.6147 6.47824C12.5409 6.52165 12.4691 6.57262 12.4086 6.63303C11.6616 7.373 10.9147 8.11108 10.1753 8.85672C9.48701 9.5495 8.81193 10.2536 8.12739 10.9502C7.24052 11.8544 6.37256 12.7774 5.44031 13.6382C5.22284 13.8383 5.01862 14.0554 4.82006 14.2763C4.72741 14.3782 4.62718 14.4839 4.61395 14.6632C4.67068 14.6632 4.71795 14.6708 4.76334 14.6632C5.03375 14.6028 5.30983 14.5575 5.57457 14.4726C5.85254 14.3839 6.09459 14.2177 6.30827 14.0158C6.70348 13.642 7.11193 13.2814 7.50148 12.902C7.96666 12.449 8.42238 11.9846 8.87622 11.5221C9.78389 10.5953 10.6897 9.66464 11.5973 8.73402C11.968 8.35271 12.3405 7.97328 12.7149 7.59574C12.7735 7.53723 12.8435 7.49192 12.9078 7.44095C12.9248 7.45039 12.9437 7.46172 12.9607 7.47116L12.9645 7.46927ZM4.5818 16.8888C4.59693 16.9983 4.59693 17.1134 4.63286 17.2135C4.77468 17.608 5.06211 17.861 5.44409 18.0195C5.68992 18.1215 5.93953 18.1328 6.18535 18.0648C6.59759 17.9497 6.86611 17.6665 7.0552 17.2909C7.29914 16.8039 7.24052 16.3452 6.92851 15.9185C6.61461 15.49 6.01895 15.3164 5.55566 15.4881C4.94109 15.7147 4.5818 16.2904 4.5818 16.8869V16.8888Z" fill="currentColor"/>
<path d="M11.0475 3.67319C10.5936 4.14511 10.1549 4.60381 9.71054 5.05875C9.40041 5.37776 9.07895 5.68734 8.76883 6.00636C8.30743 6.48017 7.8517 6.95964 7.39408 7.43723C6.90243 7.95068 6.41834 8.47168 5.92101 8.97758C5.30077 9.60617 4.67107 10.2272 4.03948 10.8445C3.75205 11.1258 3.45517 11.3976 3.1545 11.6637C2.98432 11.8148 2.79711 11.9488 2.61747 12.0885C2.59477 12.1055 2.56263 12.1111 2.52481 12.1262C2.42648 11.9998 2.41513 11.8469 2.38109 11.7072C2.28465 11.3315 2.20145 10.9502 2.11825 10.5708C2.07665 10.3782 2.05017 10.1819 2.00857 9.98937C1.99155 9.91009 2.01235 9.86101 2.08043 9.81948C2.12203 9.79494 2.15796 9.75908 2.192 9.7251C2.68932 9.22675 3.18854 8.7284 3.68398 8.22817C4.00923 7.89782 4.33069 7.5637 4.65594 7.23336C5.03036 6.85393 5.41044 6.48395 5.78108 6.10075C6.64147 5.21354 7.4962 4.31877 8.35848 3.43156C8.58162 3.20127 8.82367 2.98796 9.05815 2.7671C9.1092 2.71991 9.15648 2.68404 9.23779 2.71991C9.85236 2.98985 10.4726 3.25035 11.0475 3.6713V3.67319Z" fill="currentColor"/>
<path d="M1.89704 8.58302C1.89704 8.43012 1.87813 8.27533 1.90082 8.12621C1.94998 7.79775 2.01428 7.47118 2.07857 7.14461C2.12395 6.91431 2.17501 6.68779 2.23174 6.45938C2.32629 6.07241 2.47568 5.70808 2.6799 5.36641C2.99002 4.84919 3.37011 4.39048 3.81638 3.98085C4.30047 3.53914 4.84697 3.19369 5.43506 2.9162C5.6563 2.81238 5.89835 2.7482 6.1385 2.69157C6.47888 2.6104 6.82304 2.53111 7.17098 2.4877C7.43194 2.45561 7.70046 2.48203 8.00301 2.48203C7.3563 3.21634 6.64907 3.85627 5.98912 4.5415C5.32349 5.2305 4.65787 5.92139 3.97901 6.59718C3.30203 7.27108 2.65154 7.97142 1.94053 8.61134C1.9254 8.6019 1.91216 8.59246 1.89704 8.58302Z" fill="currentColor"/>
<path d="M13.0631 12.0621C13.3543 11.7091 13.863 11.3844 14.5268 11.1295C14.714 10.1933 14.8558 9.13426 14.9031 7.95257C14.9144 7.10689 14.8274 6.27442 14.557 5.46838C14.4152 5.04554 14.2318 4.64158 14.0105 4.2546C13.7571 3.80722 13.4829 3.37494 13.1463 2.98608C12.5753 2.32161 11.8794 1.81005 11.1192 1.38721C10.6767 1.13992 10.2021 0.960595 9.7161 0.811468C9.45137 0.730297 9.18474 0.651015 8.91244 0.59816C8.47751 0.516989 8.03124 0.5 7.58497 0.5C7.16328 0.5 6.74159 0.52454 6.32936 0.603823C5.92847 0.681218 5.54271 0.813355 5.16073 0.956819C4.5386 1.19089 3.95996 1.50425 3.40968 1.87612C2.93883 2.19325 2.53227 2.57834 2.1484 2.99174C1.6662 3.51085 1.24073 4.0715 0.915477 4.70009C0.758526 5.0059 0.652631 5.33813 0.51648 5.65526C0.272544 6.22912 0.138284 6.83129 0.0683178 7.44479C0.00402443 8.00354 -0.0262313 8.56607 0.0361711 9.1286C0.0947915 9.65526 0.145848 10.1838 0.213923 10.7105C0.251743 11.005 0.302799 11.2975 0.368984 11.5864C0.524044 12.2603 0.677214 12.9342 0.854966 13.6024C1.03461 14.2763 1.23505 14.9446 1.44117 15.6109C1.56787 16.0168 1.72293 16.4151 1.86475 16.8171C1.99145 17.172 2.09923 17.5326 2.24862 17.878C2.46986 18.3915 2.57387 18.9238 2.58521 19.4807C2.59278 19.8336 2.62114 20.1848 2.6306 20.5359C2.64383 20.9644 2.68733 21.3834 2.87832 21.778C3.05796 22.1461 3.2376 22.5104 3.52503 22.8105C3.82759 23.1258 4.18877 23.3504 4.61045 23.4561C4.96596 23.5448 5.33281 23.5543 5.69777 23.5486C6.05705 23.5429 6.41067 23.5146 6.7605 23.4108C7.64926 23.1484 8.34703 22.6218 8.90487 21.8988C9.06561 21.6892 9.19797 21.4552 9.34169 21.2343C9.62534 20.8001 9.91276 20.3679 10.1907 19.9299C10.3363 19.6996 10.4366 19.5033 10.5406 19.2806C10.9169 18.769 12.3465 16.8058 12.7644 15.9884L12.7492 13.7289C12.7776 13.1418 12.6887 12.517 13.0631 12.0621ZM11.3537 13.9101C11.1892 14.1385 11.0757 14.4047 10.9225 14.6425C10.69 15.0068 10.4422 15.3598 10.2021 15.7204C9.6953 16.4811 9.18663 17.24 8.68363 18.0026C8.44536 18.3631 8.22034 18.7331 7.98396 19.0956C7.79676 19.3806 7.56417 19.6317 7.3051 19.8544C7.11979 20.0149 6.88152 20.079 6.65839 20.1697C6.27641 20.3244 5.87363 20.349 5.47274 20.3131C5.01701 20.2716 4.60478 20.1074 4.22848 19.8355C3.82191 19.5411 3.59689 19.1314 3.42292 18.6859C3.27164 18.2952 3.14116 17.8969 3.01825 17.4967C2.92748 17.2022 2.86508 16.9002 2.78188 16.6038C2.70245 16.3188 2.61169 16.0394 2.53038 15.7544C2.42448 15.3863 2.31669 15.0201 2.22025 14.6501C2.05763 14.0234 1.89501 13.3966 1.74562 12.7681C1.59434 12.1319 1.45062 11.4939 1.32204 10.8539C1.26342 10.5576 1.25207 10.2537 1.21993 9.95163C1.19345 9.70057 1.16509 9.44762 1.14429 9.19656C1.09701 8.60194 1.10836 8.01109 1.21047 7.42213C1.25964 7.14276 1.29367 6.86149 1.34851 6.58211C1.45441 6.05734 1.67376 5.57598 1.91013 5.10028C2.23538 4.44337 2.70435 3.89972 3.21869 3.38627C3.74249 2.86527 4.35706 2.48395 5.01512 2.15927C5.48976 1.9252 5.98709 1.75531 6.50522 1.66659C7.01767 1.57787 7.53958 1.52501 8.0596 1.58353C8.46995 1.63072 8.88218 1.68924 9.28307 1.78174C9.79741 1.90255 10.2683 2.13851 10.7259 2.39712C11.5163 2.84073 12.1479 3.46366 12.6849 4.18287C13.0631 4.69066 13.3487 5.25319 13.5283 5.86291C13.5794 6.0328 13.5945 6.21402 13.6248 6.38957C13.6512 6.53492 13.6834 6.68027 13.7004 6.82751C13.7439 7.20694 13.7798 7.58825 13.8195 7.96956C13.7987 8.60005 13.6928 9.20788 13.5208 9.81383C13.2768 10.6727 12.8532 11.4448 12.4297 12.2206C12.1101 12.8077 11.747 13.3664 11.3575 13.9082L11.3537 13.9101Z" fill="currentColor"/>
<path d="M22.996 17.7893C22.996 19.2844 22.9903 20.7794 22.9998 22.2745C23.0035 22.7672 22.8069 23.1447 22.4325 23.4448C22.1488 23.6714 21.8292 23.8375 21.4908 23.9602C21.2506 24.047 21.0086 24.1225 20.7627 24.1924C20.4224 24.2886 20.0725 24.3415 19.7246 24.3925C19.5015 24.4246 19.2764 24.4378 19.0533 24.4585C18.5938 24.5019 18.1343 24.5133 17.6748 24.485C17.3155 24.4623 16.9562 24.4302 16.5988 24.3906C16.2017 24.3472 15.8084 24.266 15.4245 24.1565C14.9631 24.0262 14.5149 23.862 14.1103 23.5977C13.9079 23.4656 13.7245 23.3127 13.5808 23.1164C13.4163 22.8918 13.335 22.6426 13.335 22.3651C13.335 20.9984 13.335 19.6317 13.335 18.265C13.335 16.5793 13.335 14.8918 13.335 13.2061C13.335 13.0645 13.3558 12.9286 13.3974 12.7927C13.473 12.551 13.6224 12.3604 13.8058 12.1924C14.0498 11.9696 14.3334 11.8092 14.6341 11.6789C14.9631 11.5355 15.3035 11.426 15.6514 11.3429C16.1071 11.2334 16.5666 11.1466 17.0356 11.1183C17.3873 11.0956 17.7372 11.0635 18.0889 11.0616C18.4746 11.0616 18.8623 11.0918 19.2481 11.1107C19.63 11.1296 20.0063 11.1938 20.3808 11.2693C20.9783 11.3901 21.5588 11.5694 22.0921 11.8752C22.3096 11.9998 22.5081 12.1508 22.6764 12.3415C22.8958 12.5907 22.9998 12.8795 22.9998 13.2098C22.9998 14.737 22.9998 16.2622 22.9998 17.7893H22.996ZM14.2937 16.3302C14.2937 16.5095 14.2937 16.6775 14.2937 16.8455C14.2937 17.9743 14.2956 19.1013 14.2918 20.2301C14.2918 20.3717 14.3391 20.4736 14.4412 20.5605C14.5736 20.6756 14.7229 20.7606 14.878 20.8398C15.1673 20.9871 15.4774 21.0815 15.7895 21.1626C16.075 21.2381 16.3643 21.3042 16.6612 21.3306C16.977 21.359 17.2909 21.4061 17.6067 21.4231C18.1362 21.4515 18.6675 21.4401 19.1951 21.3892C19.6168 21.3476 20.0347 21.2872 20.4469 21.191C20.7344 21.123 21.0142 21.0343 21.2865 20.9172C21.487 20.8304 21.6799 20.7304 21.8538 20.5926C21.9786 20.4925 22.041 20.3774 22.0391 20.2075C22.0335 18.9314 22.0373 17.6534 22.0391 16.3774C22.0391 16.3641 22.0391 16.3528 22.0354 16.3321C22.007 16.3453 21.9843 16.3528 21.9635 16.3641C21.7328 16.4774 21.4964 16.5793 21.2506 16.6624C20.7911 16.8172 20.3202 16.9191 19.8418 16.989C19.63 17.0192 19.4182 17.0475 19.2065 17.0664C18.9984 17.0852 18.7904 17.0909 18.5824 17.1003C18.0548 17.1249 17.5292 17.1098 17.0035 17.0532C16.7841 17.0305 16.5648 17.0097 16.3492 16.9682C16.058 16.9153 15.7687 16.8493 15.4812 16.7775C15.0955 16.6832 14.7248 16.5416 14.3712 16.3604C14.3485 16.349 14.3239 16.3396 14.2937 16.3245V16.3302ZM18.0813 14.2367C18.764 14.2405 19.5374 14.1744 20.1406 14.0555C20.4526 13.9932 20.7608 13.9139 21.0596 13.8063C21.3244 13.7101 21.5815 13.6006 21.8047 13.4269C21.8784 13.3703 21.9427 13.2986 22.0013 13.2249C22.0524 13.1626 22.0448 13.089 22.0013 13.0211C21.9408 12.9305 21.8614 12.8606 21.7744 12.7983C21.5664 12.6511 21.3357 12.5473 21.0993 12.4566C20.8384 12.3566 20.5661 12.2849 20.2938 12.2263C20.0461 12.1735 19.7964 12.1263 19.5468 12.0961C19.2386 12.0602 18.9285 12.0432 18.6203 12.0263C18.2194 12.0036 17.8204 12.0187 17.4195 12.0432C17.0867 12.064 16.7539 12.0885 16.4267 12.1527C16.1922 12.1999 15.9578 12.249 15.7252 12.3056C15.4094 12.3811 15.1049 12.4944 14.8156 12.6435C14.6605 12.7228 14.513 12.8134 14.392 12.9418C14.2615 13.0815 14.2634 13.1758 14.3958 13.3137C14.5338 13.4552 14.704 13.5496 14.878 13.6402C15.1692 13.7893 15.4793 13.8837 15.7932 13.9649C16.0769 14.0385 16.3643 14.0952 16.6555 14.1329C17.1566 14.1971 17.6559 14.2405 18.0851 14.2386L18.0813 14.2367Z" fill="currentColor"/>
<path d="M18.7204 17.4873C19.212 17.5043 19.6035 17.7025 19.855 18.1329C20.01 18.3972 20.046 18.6841 19.9533 18.9842C19.6999 19.8016 19.195 20.4094 18.4462 20.8191C18.2571 20.9229 18.0585 21.0097 17.8486 21.0569C17.2738 21.1872 16.7802 20.8983 16.5439 20.4227C16.3472 20.0262 16.3472 19.626 16.5609 19.2353C16.7103 18.9616 16.9504 18.786 17.2454 18.6935C17.4307 18.635 17.5442 18.518 17.6009 18.3405C17.7522 17.8743 18.0775 17.6081 18.5464 17.5043C18.6032 17.4911 18.6618 17.493 18.7204 17.4892V17.4873Z" fill="currentColor"/>
<path d="M16.4611 13.6063C16.2229 13.6063 15.9846 13.6081 15.7463 13.6063C15.474 13.6025 15.2471 13.3571 15.2736 13.0871C15.2944 12.8644 15.4646 12.6492 15.7747 12.6492C16.1207 12.6492 16.4687 12.6492 16.8147 12.6492C16.9547 12.6492 17.0946 12.6473 17.2345 12.6568C17.4804 12.6719 17.6543 12.8757 17.6638 13.1173C17.6732 13.376 17.4558 13.6025 17.191 13.6063C16.9471 13.61 16.7032 13.6063 16.4611 13.6063Z" fill="currentColor"/>
</g>
<defs>
<clipPath id="clip0_2046_564">
<rect width="23" height="24" fill="white" transform="translate(0 0.5)"/>
</clipPath>
</defs>
</svg>
