<svg width="27" height="21" viewBox="0 0 27 21" fill="none" xmlns="http://www.w3.org/2000/svg">
<path d="M8.89084 10.1076C8.93432 10.058 8.96943 10.025 8.99619 9.98698C9.10823 9.82675 9.22361 9.66817 9.32896 9.50132C9.69686 8.9182 10.0882 8.34664 10.3841 7.72222C10.5647 7.34063 10.7554 6.96235 10.9092 6.5692C11.0346 6.25203 11.1183 5.91834 11.2102 5.58796C11.3992 4.91399 11.4577 4.22349 11.4393 3.52804C11.4259 3.05394 11.3958 2.57654 11.3306 2.1074C11.2805 1.73903 11.1651 1.38056 11.0764 1.01715C11.0413 0.875082 10.9912 0.73467 10.9678 0.590954C10.951 0.488536 10.9594 0.377859 10.9678 0.273789C10.9744 0.199453 11.0062 0.184586 11.0815 0.197801C11.1166 0.204409 11.1517 0.215972 11.1835 0.230839C11.5447 0.400985 11.8975 0.590954 12.2052 0.846999C12.456 1.05514 12.6985 1.27484 12.9393 1.49455C13.3022 1.82658 13.6718 2.152 13.9945 2.52368C14.1701 2.72521 14.339 2.93335 14.4995 3.14645C14.7537 3.48509 15.0012 3.83034 15.247 4.17393C15.3407 4.30444 15.4209 4.44319 15.5062 4.57865C15.7771 5.0131 16.0396 5.45251 16.2621 5.91504C16.4544 6.3115 16.635 6.71291 16.7788 7.12919C16.9142 7.51904 17.0263 7.9155 17.1199 8.32021C17.2286 8.79101 17.2704 9.26675 17.3005 9.74581C17.3039 9.80362 17.3089 9.86144 17.3189 9.9176C17.3239 9.94403 17.344 9.96716 17.3707 10.02C17.4109 9.95064 17.4443 9.90439 17.4661 9.85483C17.7085 9.27667 17.8306 8.67537 17.8156 8.0493C17.8122 7.91715 17.7871 7.785 17.7771 7.65119C17.7687 7.54547 17.762 7.4381 17.7637 7.33237C17.7637 7.24978 17.7888 7.23326 17.8707 7.2283C17.9661 7.22335 18.0447 7.26465 18.1216 7.31255C18.359 7.45792 18.5396 7.6611 18.7119 7.87255C18.9778 8.19632 19.1584 8.56965 19.349 8.93803C19.4711 9.1759 19.5931 9.41377 19.6985 9.65826C19.7754 9.83666 19.8289 10.0266 19.8858 10.2133C20.0714 10.8262 20.0931 11.4572 20.0764 12.0882C20.0664 12.488 20.0313 12.8861 19.9928 13.2842C19.9761 13.456 19.9293 13.6245 19.8875 13.7913C19.8423 13.9714 19.7938 14.1531 19.7319 14.3298C19.5681 14.8023 19.344 15.2466 19.0614 15.6613C18.7955 16.0495 18.5045 16.4145 18.1734 16.7482C17.8222 17.1017 17.4276 17.4024 16.9895 17.6452C16.66 17.8269 16.3306 18.0119 15.9895 18.1672C15.6801 18.3076 15.3557 18.4249 15.0079 18.4365C14.6768 18.448 14.5447 18.4249 14.3189 18.2713C14.344 18.2465 14.3624 18.2151 14.3908 18.1986C14.4945 18.1375 14.5982 18.0714 14.7085 18.0251C15.0982 17.8616 15.4393 17.6336 15.7453 17.3429C16.0831 17.0208 16.3507 16.6524 16.5814 16.2527C16.7654 15.9338 16.8825 15.5919 16.9577 15.2301C17.0631 14.7296 17.0814 14.2258 17.0564 13.7186C17.0396 13.3883 16.9393 13.0727 16.8607 12.7539C16.7738 12.3988 16.64 12.0601 16.5062 11.7198C16.4159 11.4886 16.3423 11.249 16.2403 11.0227C16.0597 10.6263 15.8741 10.2315 15.645 9.85814C15.4845 9.59548 15.344 9.32292 15.1885 9.05696C14.8674 8.50523 14.5179 7.97497 14.1383 7.46122C13.9343 7.1837 13.7269 6.91114 13.4644 6.68318C13.354 6.58737 13.2336 6.49981 13.1149 6.41392C13.0397 6.35775 12.9594 6.30654 12.8774 6.26194C12.8373 6.24047 12.7838 6.2223 12.742 6.23055C12.6818 6.24212 12.6885 6.30654 12.6902 6.35445C12.6952 6.49651 12.6985 6.63858 12.7119 6.78064C12.757 7.21344 12.7186 7.64128 12.6534 8.06912C12.6333 8.20458 12.6233 8.34499 12.5898 8.47714C12.4678 8.94298 12.3005 9.39065 12.0748 9.81849C11.8624 10.2183 11.6116 10.5899 11.3206 10.9352C11.0915 11.2094 10.8457 11.4687 10.6199 11.7463C10.3808 12.0403 10.15 12.3426 9.97612 12.6812C9.90756 12.815 9.85237 12.9588 9.81391 13.1041C9.71023 13.4989 9.60154 13.8937 9.52629 14.2952C9.45104 14.6883 9.49451 15.0815 9.59485 15.4697C9.66843 15.7505 9.75037 16.0247 9.89251 16.2807C10.1684 16.7829 10.5129 17.2289 10.9878 17.5626C11.2219 17.7278 11.4728 17.8666 11.7186 18.0169C11.8407 18.0912 11.9644 18.1623 12.0882 18.2382C12.1166 18.2564 12.14 18.2812 12.1768 18.3126C12.043 18.4216 11.9142 18.4976 11.747 18.4943C11.344 18.4844 10.9494 18.4266 10.5748 18.2713C10.1149 18.0797 9.66341 17.8699 9.23866 17.6072C9.0497 17.4899 8.86743 17.3545 8.69686 17.2108C8.2303 16.8176 7.80723 16.3799 7.4594 15.8793C7.2788 15.62 7.1283 15.3408 6.96442 15.0699C6.82228 14.837 6.71526 14.5859 6.62496 14.3315C6.43767 13.7963 6.33232 13.2429 6.31058 12.6746C6.29386 12.1989 6.30891 11.7231 6.34235 11.249C6.36075 10.9963 6.41426 10.7485 6.48951 10.5057C6.52964 10.3785 6.55305 10.2463 6.59653 10.1208C6.70857 9.79702 6.80556 9.46663 6.94937 9.15773C7.09653 8.84056 7.28716 8.54157 7.46944 8.24092C7.55974 8.09225 7.67178 7.95845 7.77378 7.81803C7.91592 7.62476 8.08816 7.46453 8.28716 7.33072C8.34569 7.29108 8.41091 7.25804 8.47947 7.23822C8.58315 7.20683 8.62997 7.24152 8.61826 7.34724C8.59987 7.53226 8.5798 7.71892 8.54469 7.90228C8.48616 8.20954 8.47278 8.51844 8.47947 8.83065C8.4895 9.25849 8.62663 9.65 8.82729 10.0217C8.839 10.0448 8.85739 10.0646 8.88749 10.1076H8.89084Z" fill="currentColor"/>
<path d="M24.5226 12.0189C24.0962 12.0189 23.6681 12.0205 23.2416 12.0189C22.8303 12.0156 22.5075 11.6687 22.5326 11.2623C22.5393 11.1599 22.5761 11.074 22.6463 10.998C22.8035 10.8262 22.9992 10.7403 23.2316 10.7403C23.6497 10.7403 24.0677 10.7452 24.4858 10.7452C24.9089 10.7452 25.3319 10.7485 25.7533 10.737C26.0543 10.7287 26.2232 10.9005 26.3553 11.1318C26.3687 11.1549 26.3737 11.183 26.3754 11.2078C26.3888 11.401 26.3587 11.5894 26.2734 11.7645C26.1931 11.928 26.0711 12.0271 25.8721 12.0255C25.4222 12.0205 24.9724 12.0255 24.5226 12.0255V12.0172V12.0189Z" fill="currentColor"/>
<path d="M1.88079 12.0089C1.45771 12.0089 1.03464 11.9974 0.611561 12.0122C0.340658 12.0222 0.195174 11.8801 0.086479 11.6703C0.0145729 11.5332 -0.0088384 11.3829 0.00286725 11.2309C0.0246063 10.9649 0.270425 10.7353 0.539655 10.7287C0.728617 10.7254 0.91758 10.7287 1.10654 10.7287C1.75035 10.7271 2.39416 10.7238 3.0363 10.7238C3.15169 10.7238 3.27376 10.7238 3.38413 10.7535C3.84232 10.8807 3.8858 11.3779 3.71523 11.6505C3.69182 11.6885 3.66506 11.7232 3.63998 11.7612C3.51791 11.9478 3.35737 12.0469 3.12159 12.0238C2.9159 12.004 2.70854 12.0089 2.50119 12.0056C2.29383 12.0023 2.08647 12.0056 1.88079 12.0056V12.0089Z" fill="currentColor"/>
<path d="M20.3825 18.1226C20.5614 18.116 20.7052 18.1969 20.8273 18.3142C20.9812 18.4629 21.1233 18.6231 21.2772 18.7734C21.528 19.0212 21.7822 19.2657 22.0363 19.5118C22.0748 19.5498 22.1133 19.5862 22.1484 19.6275C22.324 19.8356 22.339 20.0256 22.2103 20.2667C22.1333 20.4105 22.038 20.536 21.9193 20.6483C21.7036 20.8515 21.441 20.8614 21.2203 20.6632C21.1166 20.5707 21.0263 20.4666 20.9293 20.3675C20.732 20.1676 20.5297 19.971 20.3374 19.7662C20.1618 19.5762 19.9945 19.378 19.829 19.1798C19.7772 19.1187 19.7404 19.0476 19.6986 18.9783C19.6133 18.8411 19.6183 18.7024 19.7287 18.5851C19.8574 18.4496 19.9929 18.3191 20.1333 18.1969C20.2236 18.1193 20.2521 18.1209 20.3842 18.1242L20.3825 18.1226Z" fill="currentColor"/>
<path d="M4.0713 19.9645C4.05291 19.796 4.16662 19.6655 4.28535 19.5449C4.67832 19.1484 5.0713 18.752 5.47096 18.3621C5.55959 18.2762 5.66494 18.2035 5.77029 18.1374C5.9325 18.0383 6.09638 18.0615 6.25022 18.1655C6.42581 18.2828 6.55457 18.4414 6.64822 18.6264C6.71511 18.7619 6.71176 18.8973 6.62982 19.0328C6.54287 19.1765 6.40909 19.2773 6.2937 19.3945C6.08467 19.6076 5.88066 19.8273 5.67163 20.0404C5.47096 20.2453 5.27197 20.4485 5.06461 20.645C4.87397 20.8251 4.58133 20.8251 4.37732 20.655C4.18501 20.4947 4.06963 20.2453 4.0713 19.9645Z" fill="currentColor"/>
<path d="M1.97383 17.4238C1.96882 17.214 2.05912 17.0951 2.18621 17.0026C2.33671 16.8919 2.49223 16.7862 2.64942 16.6805C3.01396 16.436 3.37851 16.1948 3.74306 15.952C3.7949 15.9173 3.85175 15.8892 3.90526 15.8578C4.04406 15.7785 4.18118 15.7868 4.31329 15.8677C4.53402 16.0015 4.67449 16.1981 4.74305 16.4426C4.79657 16.6359 4.73971 16.8011 4.59088 16.9365C4.56078 16.9629 4.52901 16.9877 4.49556 17.0108C3.95209 17.3875 3.41028 17.7674 2.86346 18.1407C2.79657 18.187 2.71129 18.22 2.63102 18.2316C2.49055 18.2514 2.36681 18.2035 2.26982 18.0945C2.08754 17.8913 1.99892 17.6485 1.97383 17.4238Z" fill="currentColor"/>
<path d="M4.04304 2.79956C4.04304 2.70374 4.07481 2.60959 4.13167 2.52038C4.23368 2.3651 4.35575 2.2313 4.52465 2.14705C4.67348 2.07272 4.82899 2.04629 4.99454 2.09419C5.09488 2.12228 5.1718 2.17844 5.23702 2.25443C5.55307 2.63106 5.90926 2.9697 6.27548 3.29843C6.38752 3.3992 6.48952 3.51318 6.59153 3.62551C6.70691 3.7527 6.71026 3.89146 6.63668 4.04509C6.56477 4.19211 6.47113 4.316 6.35407 4.42998C6.10324 4.67281 5.7019 4.59187 5.51963 4.41677C5.29387 4.20037 5.06645 3.98562 4.83735 3.77253C4.66344 3.61064 4.48451 3.45536 4.31227 3.29513C4.2504 3.23731 4.19689 3.17123 4.1417 3.10681C4.06813 3.02091 4.04137 2.92014 4.04304 2.80121V2.79956Z" fill="currentColor"/>
<path d="M21.6049 2.09593C21.7754 2.09262 21.9494 2.18678 22.0815 2.35032C22.1567 2.44283 22.2186 2.54855 22.2754 2.65427C22.349 2.78973 22.3373 2.93179 22.2621 3.06229C22.2203 3.13497 22.1667 3.20435 22.1082 3.26382C21.931 3.44058 21.7487 3.61072 21.5664 3.78252C21.3457 3.99066 21.1216 4.19715 20.8992 4.40364C20.8691 4.43172 20.839 4.45815 20.8072 4.48128C20.5614 4.6729 20.3239 4.66959 20.0848 4.47136C19.9142 4.3293 19.7989 4.1542 19.7437 3.93945C19.7019 3.77756 19.7721 3.65367 19.8808 3.54299C20.0213 3.39928 20.1684 3.26217 20.3089 3.11845C20.4895 2.93344 20.6651 2.74347 20.849 2.56011C20.9761 2.43457 21.1082 2.31232 21.2437 2.19834C21.3473 2.11244 21.4243 2.09427 21.6032 2.09593H21.6049Z" fill="currentColor"/>
<path d="M24.3909 17.4338C24.3708 17.5048 24.3558 17.5792 24.3273 17.6469C24.2588 17.8071 24.1869 17.9624 24.0615 18.0912C23.8658 18.2895 23.6484 18.3242 23.4076 18.1755C23.2889 18.1028 23.1752 18.0235 23.0648 17.9409C22.7855 17.7311 22.5063 17.523 22.2354 17.3033C22.0966 17.191 21.9645 17.0687 21.8474 16.9366C21.6685 16.7334 21.6702 16.5087 21.8324 16.294C21.9595 16.1255 22.0999 15.9719 22.3123 15.9025C22.3842 15.8793 22.4544 15.8678 22.523 15.8992C22.6451 15.9553 22.7738 15.9999 22.8809 16.0776C23.2922 16.37 23.6969 16.6723 24.1016 16.9746C24.1685 17.0241 24.2287 17.0869 24.2839 17.1497C24.3541 17.2289 24.3892 17.3248 24.3909 17.4371V17.4338Z" fill="currentColor"/>
<path d="M4.61766 6.31638C4.61097 6.60547 4.4588 6.80865 4.21465 6.94906C4.04576 7.04487 3.87017 7.01844 3.71633 6.91437C3.40863 6.70788 3.10596 6.48983 2.80161 6.27839C2.66951 6.18588 2.53907 6.09338 2.40529 6.00252C2.25646 5.90176 2.10931 5.80099 2.01232 5.64406C1.93038 5.51191 1.93205 5.37149 1.98891 5.23439C2.06416 5.05102 2.1879 4.8974 2.34008 4.76855C2.5374 4.60171 2.74308 4.59014 2.97385 4.72725C3.11098 4.80985 3.23138 4.92052 3.36516 5.00973C3.71298 5.23934 4.03405 5.50199 4.34843 5.77291C4.51398 5.91662 4.62769 6.08512 4.61599 6.31473L4.61766 6.31638Z" fill="currentColor"/>
<path d="M22.4442 7.02351C22.3422 7.0202 22.2553 6.98056 22.1767 6.9277C22.0028 6.80876 21.879 6.64687 21.7854 6.46021C21.7252 6.33962 21.7268 6.21242 21.7971 6.10174C21.8656 5.99437 21.9493 5.8903 22.0446 5.80771C22.2854 5.60122 22.5345 5.40464 22.7854 5.20972C22.986 5.05278 23.1901 4.89916 23.3991 4.75214C23.6399 4.58364 23.869 4.63981 24.0596 4.81656C24.2486 4.99166 24.3489 5.22128 24.4108 5.46576C24.4375 5.57148 24.3991 5.66399 24.3288 5.74824C24.2001 5.90186 24.0329 6.00593 23.8723 6.11992C23.6081 6.31154 23.3456 6.50481 23.078 6.69313C22.9392 6.79059 22.7954 6.8831 22.6482 6.96569C22.588 6.99873 22.5111 7.00368 22.4426 7.02185L22.4442 7.02351Z" fill="currentColor"/>
<path d="M2.56312 9.22041C2.43938 9.19233 2.33068 9.16425 2.22032 9.14278C2.02634 9.10643 1.83068 9.07835 1.63671 9.04036C1.53972 9.02219 1.4444 8.99741 1.35243 8.96272C0.991222 8.82231 0.854099 8.24249 1.16848 7.93523C1.26714 7.83942 1.37918 7.76674 1.50962 7.7304C1.55811 7.71718 1.61831 7.71883 1.66681 7.7337C1.89256 7.80804 2.11497 7.89063 2.33904 7.96827C2.42767 7.99966 2.51965 8.02113 2.60827 8.05252C2.82901 8.13016 2.99122 8.26396 3.03971 8.50349C3.09322 8.76284 2.94607 9.06844 2.7153 9.17581C2.66346 9.19894 2.60493 9.2072 2.56145 9.22041H2.56312Z" fill="currentColor"/>
<path d="M23.3926 14.201C23.421 14.0903 23.4444 13.978 23.4779 13.869C23.528 13.6988 23.7019 13.5485 23.9511 13.5782C24.0932 13.5964 24.2337 13.6261 24.3725 13.6625C24.62 13.7269 24.8625 13.8046 25.1116 13.8657C25.3006 13.9119 25.4026 14.0375 25.4143 14.2126C25.4344 14.4884 25.3374 14.7346 25.1401 14.9361C25.0197 15.0583 24.8658 15.0699 24.7153 15.027C24.4879 14.9625 24.2638 14.8832 24.0397 14.8023C23.8725 14.7412 23.7053 14.6768 23.5665 14.5545C23.4578 14.4587 23.3959 14.3513 23.3943 14.201H23.3926Z" fill="currentColor"/>
<path d="M1.02645 14.3364C1.02311 14.1019 1.11842 13.9317 1.35087 13.8524C1.54986 13.7847 1.7522 13.7219 1.95287 13.6592C2.08163 13.6195 2.21207 13.5865 2.34083 13.5485C2.60504 13.4675 2.86926 13.6525 2.9629 13.8359C3.11173 14.1316 3.04317 14.4124 2.76056 14.5875C2.63681 14.6652 2.49635 14.7197 2.35755 14.7692C2.13013 14.8502 1.89769 14.9196 1.66692 14.9939C1.55989 15.0269 1.46123 15.0022 1.36926 14.946C1.14016 14.8056 1.02812 14.6007 1.02645 14.3348V14.3364Z" fill="currentColor"/>
<path d="M25.3426 8.36159C25.3175 8.46896 25.2991 8.57799 25.2673 8.68206C25.2305 8.80595 25.1369 8.88524 25.0148 8.92158C24.8125 8.9827 24.6085 9.03721 24.4045 9.08677C24.2556 9.12311 24.1051 9.14954 23.9563 9.18093C23.7305 9.22718 23.5399 9.13633 23.4463 8.93149C23.3894 8.8076 23.3677 8.6771 23.3844 8.54164C23.4111 8.3335 23.5449 8.20631 23.7239 8.12536C23.9847 8.00808 24.2523 7.90236 24.5198 7.79994C24.5984 7.7702 24.6854 7.75864 24.769 7.75038C25.08 7.719 25.2958 7.98 25.3158 8.20961C25.3208 8.25752 25.3225 8.30707 25.3259 8.35498C25.3309 8.35498 25.3359 8.35828 25.3409 8.35828L25.3426 8.36159Z" fill="currentColor"/>
</svg>
