<svg width="27" height="23" viewBox="0 0 27 23" fill="none" xmlns="http://www.w3.org/2000/svg">
<g clip-path="url(#clip0_2046_581)">
<path d="M24.327 11.2877C24.0936 11.2638 23.857 11.2527 23.6267 11.2129C23.4141 11.1764 23.2158 11.0841 23.04 10.9617C22.4756 10.572 22.0391 10.079 21.8312 9.4142C21.7081 9.02455 21.6409 8.62536 21.6665 8.21663C21.6745 8.08939 21.6857 7.96216 21.7657 7.84606C21.9735 7.5423 22.1878 7.49617 22.5459 7.58206C22.8561 7.65521 23.1423 7.80471 23.4237 7.95421C23.5756 8.03532 23.7275 8.11802 23.8698 8.21345C23.9865 8.29137 24.092 8.38362 24.1959 8.47904C24.3302 8.6015 24.3702 8.61105 24.4885 8.47745C24.7891 8.14029 25.1696 7.93353 25.5885 7.78404C25.7356 7.73155 25.8827 7.67748 26.033 7.63454C26.2105 7.58365 26.396 7.55661 26.5734 7.62818C26.8245 7.72837 26.9604 7.92558 26.9796 8.19277C26.9891 8.33273 26.9795 8.47427 26.97 8.61423C26.9508 8.87823 26.9092 9.14224 26.8149 9.39034C26.599 9.96289 26.3144 10.4957 25.7932 10.8503C25.3567 11.1461 24.8722 11.3131 24.3302 11.2925L24.327 11.2877ZM26.0506 8.5363C25.9962 8.54743 25.9499 8.54902 25.9099 8.56651C25.3807 8.79871 24.9154 9.11679 24.5797 9.5955C24.5061 9.70047 24.4182 9.74659 24.2887 9.73705C24.1879 9.73069 24.1064 9.69252 24.0408 9.62095C23.9769 9.55256 23.9193 9.47781 23.865 9.40147C23.566 8.99274 23.1695 8.71919 22.6898 8.56174C22.5747 8.52357 22.5475 8.54902 22.5539 8.6683C22.5635 8.86869 22.6322 9.05159 22.6994 9.23766C22.8705 9.70842 23.1886 10.0392 23.6427 10.2476C23.8122 10.3255 23.9961 10.3303 24.1751 10.3668C24.8275 10.4973 25.4414 10.1537 25.7548 9.64799C25.9035 9.40943 25.9978 9.14224 26.0458 8.86392C26.0634 8.76531 26.049 8.66035 26.049 8.5363H26.0506Z" fill="currentColor"/>
<path d="M26.9982 12.4868C27.0174 13.0386 26.8432 13.538 26.557 14.0024C26.4099 14.241 26.2612 14.4779 26.0581 14.6783C25.7399 14.9964 25.3578 15.1841 24.9181 15.2556C24.7071 15.289 24.4912 15.324 24.2802 15.3145C23.8613 15.297 23.4488 15.2302 23.0778 15.0123C22.9835 14.9567 22.8908 14.8962 22.8092 14.8247C22.3727 14.4493 22.0082 14.0183 21.8355 13.4569C21.706 13.0307 21.6325 12.5981 21.6772 12.1496C21.7028 11.9015 21.8643 11.7647 22.061 11.655C22.1953 11.5786 22.3439 11.5771 22.4878 11.6168C22.9835 11.7552 23.46 11.9381 23.8789 12.2434C24.0164 12.3436 24.1363 12.4709 24.2626 12.587C24.3649 12.6792 24.3697 12.684 24.4608 12.5854C24.8558 12.1591 25.3626 11.9174 25.8982 11.7281C26.0533 11.6741 26.2164 11.6168 26.3875 11.6486C26.4946 11.6677 26.6033 11.6884 26.7009 11.7329C26.8927 11.8188 26.995 11.9747 26.9966 12.1894C26.9966 12.288 26.9966 12.3866 26.9966 12.4868H26.9982ZM26.0501 12.6029C26.0117 12.6013 25.9942 12.5949 25.9814 12.5997C25.7591 12.6903 25.5497 12.8048 25.3546 12.9464C25.0828 13.1436 24.8414 13.3742 24.6175 13.6207C24.456 13.7973 24.237 13.7893 24.0723 13.6144C24.0116 13.5492 23.946 13.4887 23.8948 13.4171C23.6102 13.0323 23.2121 12.7953 22.7964 12.5822C22.7181 12.5424 22.6349 12.5058 22.539 12.544C22.4974 12.6235 22.515 12.7046 22.5326 12.7858C22.5438 12.8319 22.5614 12.8748 22.5678 12.9209C22.6094 13.2152 22.7277 13.476 22.9051 13.7146C23.161 14.0597 23.4951 14.2839 23.922 14.3205C24.2466 14.3475 24.5696 14.4207 24.9037 14.3412C25.2267 14.2632 25.5033 14.1328 25.6936 13.8577C25.8806 13.5873 25.9798 13.2804 26.0469 12.9655C26.0709 12.8526 26.0501 12.7301 26.0501 12.6029Z" fill="currentColor"/>
<path d="M23.1147 16.043C23.8374 16.1002 24.389 16.3674 24.76 16.9463C24.8783 17.1308 24.947 17.336 24.9646 17.5602C24.979 17.7272 24.9886 17.8894 24.9678 18.0564C24.9422 18.2568 24.8799 18.4413 24.7823 18.6131C24.6496 18.8437 24.4929 19.0584 24.3027 19.2476C24.0724 19.4751 23.7958 19.6102 23.4793 19.6675C23.3769 19.6866 23.273 19.7104 23.1691 19.7152C22.7278 19.7359 22.3553 19.5768 22.0339 19.2778C21.7317 18.9963 21.5111 18.6687 21.4167 18.2679C21.3544 18.0023 21.348 17.7336 21.4295 17.4664C21.4887 17.2708 21.551 17.0799 21.6742 16.9129C21.9252 16.5678 22.2529 16.3102 22.6399 16.14C22.7966 16.0716 22.9836 16.0684 23.1147 16.043ZM23.2506 18.7482C23.3753 18.761 23.516 18.7132 23.6487 18.6321C24.0053 18.4158 24.1332 17.9149 23.9877 17.5443C23.9142 17.355 23.7719 17.2151 23.6072 17.099C23.5048 17.0258 23.3929 16.9765 23.2586 16.9813C22.8317 16.9972 22.5295 17.204 22.3345 17.5713C22.2977 17.6429 22.2737 17.7272 22.2689 17.8067C22.2417 18.3443 22.7006 18.7546 23.249 18.7466L23.2506 18.7482Z" fill="currentColor"/>
<path d="M26.0468 5.43658C26.042 5.97254 25.847 6.36696 25.5384 6.7073C25.1003 7.1892 24.5471 7.35778 23.906 7.25281C23.5318 7.19079 23.2376 7.00789 23.0058 6.7089C22.8171 6.46556 22.6764 6.20156 22.6061 5.90415C22.5581 5.70058 22.5597 5.48747 22.6029 5.2839C22.6381 5.11213 22.6956 4.94355 22.758 4.77815C22.8731 4.47279 23.0586 4.21038 23.2808 3.97023C23.4887 3.74757 23.7541 3.65374 24.0483 3.62511C24.4512 3.58694 24.8109 3.71258 25.1531 3.90979C25.6008 4.16903 25.8502 4.5714 25.9829 5.05488C26.0229 5.19802 26.0341 5.3491 26.0484 5.43658H26.0468ZM23.4615 5.47315C23.4487 5.67355 23.4999 5.87553 23.6565 6.02979C23.8964 6.26676 24.1986 6.33992 24.5215 6.28585C24.8621 6.22859 25.0715 5.93596 25.1035 5.72126C25.1547 5.37773 25.0683 5.07555 24.7885 4.85767C24.4016 4.55549 24.2353 4.56186 23.8788 4.76384C23.8692 4.76861 23.8612 4.77338 23.8516 4.77974C23.6006 4.93719 23.4455 5.1503 23.4631 5.47475L23.4615 5.47315Z" fill="currentColor"/>
<path d="M22.0757 21.991C21.8391 21.983 21.5833 21.7874 21.5065 21.5425C21.3738 21.121 21.5689 20.8252 21.9382 20.663C22.0677 20.6058 22.2148 20.6248 22.3427 20.7059C22.5714 20.8507 22.736 21.0399 22.7201 21.3246C22.7041 21.6268 22.5442 21.8399 22.258 21.9496C22.2004 21.9719 22.1381 21.9767 22.0773 21.991H22.0757Z" fill="currentColor"/>
<path d="M22.9408 2.35279C22.645 2.35279 22.4164 2.14763 22.362 1.84545C22.3045 1.52737 22.4899 1.18862 22.7857 1.05184C22.9344 0.983456 23.0799 0.994589 23.203 1.07729C23.3165 1.15363 23.4205 1.257 23.4988 1.36992C23.5931 1.5067 23.6139 1.66415 23.5404 1.82796C23.462 2.0029 23.3597 2.15399 23.203 2.26532C23.1199 2.32416 23.0319 2.3671 22.9408 2.34961V2.35279Z" fill="currentColor"/>
<path d="M1.21056 10.8456C0.687736 10.4909 0.403139 9.95813 0.188891 9.38558C0.0961571 9.13748 0.0545866 8.87348 0.0338014 8.60947C0.0242082 8.46951 0.0130162 8.32797 0.0242082 8.18801C0.0433946 7.92083 0.179298 7.72521 0.430319 7.62342C0.606194 7.55185 0.791663 7.57889 0.970735 7.62978C1.12103 7.67272 1.26812 7.7268 1.41522 7.77928C1.83412 7.92878 2.21465 8.13553 2.51524 8.47269C2.63355 8.60629 2.67352 8.59675 2.80783 8.47428C2.91175 8.38045 3.01728 8.28662 3.134 8.20869C3.2763 8.11326 3.42819 8.03056 3.58008 7.94945C3.86148 7.79996 4.14608 7.65046 4.45786 7.5773C4.816 7.49301 5.02865 7.53913 5.2381 7.84131C5.31804 7.9574 5.32924 8.08464 5.33723 8.21187C5.36281 8.62219 5.29406 9.02138 5.17255 9.40944C4.9631 10.0742 4.52661 10.5673 3.96381 10.9569C3.78793 11.0794 3.58967 11.1716 3.37702 11.2082C3.14519 11.2479 2.91016 11.2591 2.67672 11.2829C2.13631 11.3036 1.65025 11.1366 1.21376 10.8408L1.21056 10.8456ZM0.953148 8.86393C1.00271 9.14225 1.09705 9.40944 1.24414 9.648C1.55752 10.1537 2.17308 10.4973 2.82382 10.3669C3.00289 10.3303 3.18676 10.3255 3.35624 10.2476C3.81032 10.0392 4.12849 9.70843 4.29957 9.23768C4.36672 9.0516 4.43707 8.8687 4.44506 8.66831C4.44986 8.54903 4.42268 8.52518 4.30916 8.56176C3.8295 8.71921 3.43298 8.99116 3.134 9.40149C3.07964 9.47783 3.02048 9.55099 2.95812 9.62096C2.89257 9.69253 2.81103 9.7307 2.7103 9.73706C2.58239 9.7466 2.49285 9.70048 2.41931 9.59552C2.08354 9.11681 1.61987 8.79873 1.08905 8.56653C1.04908 8.54903 1.00431 8.54744 0.948351 8.53631C0.948351 8.66036 0.933961 8.76533 0.951549 8.86393H0.953148Z" fill="currentColor"/>
<path d="M0.000240704 12.1894C0.000240704 11.9747 0.104167 11.8188 0.29603 11.7329C0.393561 11.6884 0.503883 11.6693 0.609408 11.6486C0.780486 11.6168 0.945169 11.6741 1.09866 11.7281C1.63428 11.9174 2.14112 12.1607 2.53604 12.5854C2.62717 12.684 2.63197 12.6792 2.7343 12.587C2.86221 12.4709 2.98052 12.3436 3.11802 12.2434C3.53693 11.9381 4.01339 11.7552 4.50904 11.6168C4.65293 11.5771 4.80163 11.5786 4.93593 11.655C5.13259 11.7663 5.29408 11.9015 5.31966 12.1496C5.36443 12.5981 5.29248 13.0307 5.16137 13.4569C4.98869 14.0199 4.62575 14.4493 4.18766 14.8247C4.10452 14.8962 4.01179 14.9567 3.91905 15.0123C3.54972 15.2302 3.13561 15.297 2.71671 15.3145C2.50566 15.3224 2.28981 15.289 2.07876 15.2556C1.63908 15.1841 1.25855 14.9964 0.938773 14.6783C0.735718 14.4764 0.587023 14.2394 0.439928 14.0024C0.156929 13.538 -0.0173468 13.0386 0.000240704 12.4868C0.000240704 12.3882 0.000240704 12.2896 0.000240704 12.1894ZM0.953163 12.9639C1.02032 13.2804 1.11944 13.5873 1.30651 13.8561C1.49838 14.1328 1.77338 14.2616 2.09635 14.3396C2.43051 14.4207 2.75348 14.3475 3.07805 14.3189C3.50335 14.2823 3.83911 14.0597 4.09493 13.713C4.2724 13.4728 4.39072 13.2136 4.43229 12.9194C4.43868 12.8732 4.45787 12.8287 4.46746 12.7842C4.48665 12.7031 4.50264 12.6219 4.46107 12.5424C4.36514 12.5027 4.282 12.5392 4.20365 12.5806C3.78795 12.7937 3.38983 13.0307 3.10523 13.4156C3.05247 13.4871 2.98852 13.5476 2.92776 13.6128C2.76308 13.7861 2.54403 13.7957 2.38255 13.6191C2.15871 13.3726 1.91568 13.142 1.64547 12.9448C1.45041 12.8033 1.24096 12.6887 1.01872 12.5981C1.00593 12.5933 0.988338 12.5981 0.949965 12.6013C0.949965 12.7285 0.92918 12.851 0.953163 12.9639Z" fill="currentColor"/>
<path d="M4.36017 16.1384C4.74709 16.3086 5.07486 16.5662 5.32588 16.9113C5.4474 17.0783 5.51135 17.2708 5.57051 17.4648C5.65205 17.732 5.64566 18.0008 5.5833 18.2664C5.48897 18.6671 5.26832 18.9963 4.96614 19.2763C4.64477 19.5752 4.27223 19.7343 3.83095 19.7136C3.72702 19.7088 3.62469 19.685 3.52077 19.6659C3.20419 19.6071 2.92759 19.4735 2.69735 19.246C2.50709 19.0568 2.3504 18.8421 2.21769 18.6115C2.12016 18.4397 2.05781 18.2552 2.03223 18.0548C2.00984 17.8878 2.02103 17.724 2.03542 17.5586C2.05301 17.3344 2.12176 17.1292 2.24008 16.9447C2.61261 16.3658 3.16422 16.0986 3.88531 16.0414C4.01641 16.0668 4.20188 16.0684 4.36017 16.1384ZM4.72951 17.8067C4.72471 17.7272 4.70073 17.6413 4.66395 17.5713C4.46889 17.2024 4.16671 16.9956 3.73981 16.9813C3.60551 16.9765 3.49359 17.0258 3.39126 17.099C3.22817 17.2151 3.08588 17.3566 3.01073 17.5443C2.86523 17.9149 2.99314 18.4158 3.34969 18.6321C3.48239 18.7117 3.62309 18.7594 3.74781 18.7482C4.29622 18.7562 4.75509 18.3459 4.72791 17.8083L4.72951 17.8067Z" fill="currentColor"/>
<path d="M1.01903 5.05488C1.15174 4.57299 1.40116 4.16903 1.84884 3.90979C2.191 3.71258 2.55074 3.58694 2.95366 3.62511C3.24785 3.65215 3.51326 3.74598 3.72111 3.97023C3.94335 4.20879 4.12882 4.47279 4.24394 4.77815C4.3063 4.94355 4.36385 5.11213 4.39903 5.2839C4.4406 5.48906 4.4438 5.70058 4.39583 5.90415C4.32548 6.20156 4.18478 6.46556 3.99612 6.7089C3.76428 7.00789 3.47009 7.19238 3.09596 7.25281C2.45481 7.35778 1.90161 7.1892 1.46352 6.7073C1.15494 6.36855 0.958276 5.97254 0.955078 5.43658C0.969468 5.3491 0.98066 5.19802 1.02063 5.05488H1.01903ZM3.15032 4.77974C3.14072 4.77497 3.13273 4.76861 3.12314 4.76384C2.76659 4.56186 2.60031 4.5539 2.21338 4.85767C1.93358 5.07715 1.84724 5.37932 1.89841 5.72126C1.93038 5.93596 2.13984 6.22859 2.48039 6.28585C2.80336 6.34151 3.10555 6.26676 3.34538 6.02979C3.50207 5.87553 3.55163 5.67514 3.54044 5.47315C3.55803 5.14871 3.40454 4.9356 3.15192 4.77815L3.15032 4.77974Z" fill="currentColor"/>
<path d="M4.92471 21.991C5.16134 21.983 5.41716 21.7874 5.49391 21.5425C5.62661 21.121 5.43155 20.8252 5.06221 20.663C4.9327 20.6058 4.78561 20.6248 4.6577 20.7059C4.42906 20.8507 4.26438 21.0399 4.28037 21.3246C4.29636 21.6268 4.45624 21.8399 4.74244 21.9496C4.8 21.9719 4.86235 21.9767 4.92311 21.991H4.92471Z" fill="currentColor"/>
<path d="M4.05991 2.35279C4.3557 2.35279 4.58434 2.14763 4.6387 1.84545C4.69626 1.52737 4.51079 1.18862 4.215 1.05184C4.06631 0.983456 3.92081 0.994589 3.7977 1.07729C3.68418 1.15363 3.58026 1.257 3.50191 1.36992C3.40758 1.5067 3.38679 1.66415 3.46034 1.82796C3.53868 2.0029 3.64101 2.15399 3.7977 2.26532C3.88084 2.32416 3.96878 2.3671 4.05991 2.34961V2.35279Z" fill="currentColor"/>
<path d="M13.6078 22.5C12.6757 22.5 11.7419 22.4968 10.8082 22.4952C10.506 22.4952 10.1974 22.4491 9.83767 22.3537C9.62342 22.2964 9.38839 22.2344 9.14696 22.1183C8.99827 22.0467 8.83998 21.9672 8.68169 21.8654C8.02616 21.4408 7.5449 20.873 7.24911 20.178C7.11801 19.8695 7.03007 19.5355 6.9885 19.1856C6.93573 18.753 6.93573 18.3363 6.93573 17.934V17.7717C6.93573 17.2692 6.93573 16.765 6.93573 16.2624V14.4812H6.91975L6.93414 12.9719C6.94053 12.4614 6.94533 11.9509 6.94693 11.4419C6.94693 10.8344 6.94693 10.2253 6.94373 9.61775L6.94053 8.87345C6.80783 8.75258 6.7087 8.62375 6.62555 8.5172L6.60797 8.49493C6.36814 8.1864 6.18587 7.8206 6.06755 7.40869C6.05476 7.36575 6.04197 7.3244 6.02918 7.28305C5.98441 7.13673 5.93325 6.97133 5.90287 6.78207C5.8533 6.45922 5.80374 6.08071 5.8629 5.67674C5.87089 5.62108 5.87569 5.56701 5.88208 5.51134C5.89008 5.43659 5.89807 5.36185 5.90926 5.28869C5.94444 5.04058 6.01319 4.79089 6.11232 4.55074C6.36494 3.94003 6.7039 3.39929 7.1228 2.94603C7.32905 2.72178 7.61205 2.43233 7.95901 2.17946C8.28837 1.9409 8.60655 1.74687 8.93431 1.58465C9.33083 1.38744 9.73854 1.21885 10.1207 1.06458C10.2965 0.993017 10.4628 0.953257 10.6099 0.918268C10.6611 0.905545 10.7106 0.894412 10.7618 0.880099C10.8002 0.868966 10.837 0.859423 10.8737 0.848291C10.9793 0.816483 11.1008 0.781494 11.2351 0.756047C11.2814 0.746505 11.3294 0.735372 11.3758 0.722649C11.5133 0.68766 11.6844 0.643129 11.8858 0.633587C11.9242 0.631996 11.9817 0.624044 12.0409 0.614502C12.1001 0.60655 12.1592 0.597007 12.2184 0.590646C12.7444 0.534982 13.2832 0.504764 13.8188 0.503174H13.8364C14.2985 0.503174 14.735 0.563609 15.1379 0.630406C15.2418 0.6479 15.3474 0.663804 15.4513 0.679708C15.5616 0.697203 15.6719 0.713107 15.7822 0.732191C15.8686 0.746505 15.9437 0.76718 15.9981 0.783084L16.0317 0.792627C16.1004 0.810121 16.1692 0.827615 16.2379 0.843519C16.417 0.88646 16.6184 0.935763 16.8231 1.00892C17.202 1.1457 17.5938 1.31905 18.0558 1.55443C18.4332 1.74687 18.7561 1.94885 19.0471 2.17309C19.2118 2.30033 19.3573 2.43233 19.498 2.55797C19.5524 2.60727 19.6083 2.65817 19.6643 2.70588C20.1759 3.15596 20.5804 3.74441 20.8986 4.50621C21.0025 4.7559 21.0553 5.00241 21.0937 5.21076C21.1704 5.63698 21.1848 6.07912 21.1368 6.5292C21.0905 6.96656 20.9785 7.34348 20.7963 7.68542C20.67 7.9208 20.5133 8.21343 20.2894 8.48221L20.2383 8.54424C20.1775 8.61739 20.1072 8.70487 20.0208 8.79234V9.07861C20.016 9.49688 20.0112 9.91675 20.0128 10.335C20.016 12.8033 20.0224 15.27 20.0288 17.7383C20.0288 17.8847 20.032 18.031 20.0352 18.1773C20.0384 18.33 20.0416 18.4826 20.0432 18.6353C20.0432 18.815 20.0432 19.025 20.0176 19.2429C19.9952 19.4432 19.9441 19.6261 19.8977 19.7804C19.7762 20.1891 19.6179 20.5311 19.4117 20.8237C19.2981 20.9843 19.1654 21.1402 18.9912 21.3151C18.6666 21.6412 18.3308 21.8829 17.9615 22.0547C17.7808 22.139 17.6065 22.201 17.4387 22.2598C17.3827 22.2789 17.3283 22.2996 17.274 22.3203C16.7959 22.4968 16.3339 22.4984 15.9629 22.5C15.1763 22.5032 14.3896 22.5064 13.603 22.5064L13.6078 22.5ZM8.533 12.8892V16.2609C8.533 16.7618 8.533 17.2628 8.533 17.7654V17.9308C8.533 18.3029 8.533 18.656 8.57457 18.9932C8.59855 19.1951 8.64812 19.3844 8.72166 19.5546C8.89274 19.9585 9.16615 20.2766 9.55467 20.5295C9.63621 20.582 9.74014 20.6345 9.83927 20.6806C9.94639 20.7315 10.0919 20.7696 10.247 20.8126C10.4756 20.873 10.6531 20.9016 10.8146 20.9016C12.5302 20.9064 14.2457 20.908 15.9629 20.9016C16.2843 20.9016 16.5257 20.8937 16.7208 20.8221C16.7815 20.7999 16.8439 20.7776 16.9062 20.7553C17.0453 20.706 17.1781 20.6583 17.2916 20.6058C17.485 20.5168 17.6705 20.38 17.8592 20.1907C17.9695 20.0794 18.0494 19.9872 18.1102 19.9013C18.2141 19.7534 18.3005 19.5657 18.3708 19.324C18.3996 19.2285 18.4268 19.1299 18.4348 19.0568C18.4491 18.9248 18.4507 18.7753 18.4507 18.6337C18.4507 18.4906 18.4475 18.3491 18.4444 18.2059C18.4412 18.0485 18.438 17.8926 18.4364 17.7352C18.43 15.2669 18.4236 12.7986 18.4204 10.3303C18.4204 9.90562 18.4236 9.48257 18.4268 9.05793L18.4316 8.48539C18.4332 8.02895 18.6938 7.80152 18.8489 7.70609C18.8808 7.68542 18.9544 7.59477 19.004 7.53592L19.0647 7.46117C19.1846 7.31804 19.2885 7.12083 19.3909 6.93157C19.4756 6.77412 19.5284 6.58486 19.5524 6.35584C19.5843 6.05685 19.5747 5.76263 19.5252 5.4859C19.5028 5.36185 19.474 5.2203 19.4277 5.11056C19.2022 4.56983 18.9416 4.18336 18.6122 3.89232C18.5515 3.83824 18.4891 3.78258 18.4284 3.72691C18.3052 3.61559 18.1901 3.51062 18.075 3.42315C17.8624 3.25934 17.6209 3.10984 17.3331 2.96193C16.9334 2.75836 16.6009 2.61045 16.2859 2.49754C16.1628 2.453 16.0189 2.41802 15.867 2.38144C15.787 2.36235 15.7071 2.34327 15.6272 2.321L15.5728 2.30669C15.5568 2.30192 15.5392 2.29714 15.5232 2.29396C15.4241 2.27806 15.3186 2.26216 15.2146 2.24625C15.1043 2.22876 14.994 2.21285 14.8837 2.19377C14.5431 2.1381 14.1738 2.08562 13.83 2.08721C13.3488 2.08721 12.8643 2.11584 12.3943 2.16514C12.3559 2.16991 12.3159 2.17468 12.2775 2.18105C12.1864 2.19377 12.0841 2.20967 11.9674 2.21444C11.929 2.21603 11.8522 2.23512 11.7771 2.2542C11.6987 2.27329 11.6204 2.29396 11.5421 2.30828C11.4829 2.31941 11.4094 2.34168 11.3326 2.36394C11.2862 2.37826 11.2383 2.39098 11.1903 2.40529C11.1248 2.42279 11.0592 2.43869 10.992 2.45459C10.8897 2.48004 10.7938 2.50231 10.7266 2.52934C10.3205 2.69315 9.98157 2.83629 9.6506 3.0001C9.40438 3.12256 9.15975 3.27206 8.90393 3.45655C8.6705 3.62513 8.46105 3.84301 8.30436 4.0116C8.01017 4.33127 7.77834 4.70183 7.59447 5.14555C7.5449 5.26483 7.51133 5.3857 7.49534 5.50498C7.48734 5.56064 7.48095 5.61631 7.47615 5.67197C7.46816 5.74672 7.46016 5.82147 7.44897 5.89463C7.42179 6.0823 7.45217 6.30177 7.48734 6.53079C7.49853 6.60554 7.52891 6.70255 7.56089 6.80752C7.57688 6.85841 7.59287 6.91089 7.60726 6.96179C7.67121 7.18285 7.75915 7.36257 7.87587 7.51366L7.89505 7.53751C7.93662 7.59159 7.99898 7.67111 8.02776 7.69655C8.34273 7.84287 8.5346 8.14186 8.54419 8.50129C8.54419 8.55696 8.54419 8.61103 8.54419 8.66352C8.54419 8.68896 8.54419 8.716 8.54419 8.74144L8.54739 9.60344C8.54899 10.2142 8.55218 10.8265 8.55059 11.4372C8.55059 11.9191 8.54419 12.401 8.53939 12.8828L8.533 12.8892Z" fill="currentColor"/>
<path d="M11.3594 8.63638C11.5849 8.96719 11.8375 9.2789 12.1509 9.53496C12.1652 9.54609 12.1796 9.55881 12.1924 9.57313C12.3731 9.75602 12.5762 9.9087 12.7984 10.0343C13.0142 10.1552 13.2461 10.2236 13.5083 10.2252C13.7113 10.2109 13.924 10.187 14.1175 10.0821C14.3093 9.97868 14.49 9.8594 14.6675 9.73376C15.1295 9.40296 15.4845 8.97673 15.7739 8.49484C15.9226 8.24992 16.0089 7.97796 16.0585 7.69805C16.0889 7.52151 16.0729 7.35452 15.929 7.22252C15.7547 7.06189 15.4813 7.02054 15.2686 7.18912C15.0304 7.37838 14.8034 7.57877 14.5619 7.76325C14.2166 8.02408 13.9336 8.33898 13.6938 8.69523C13.6522 8.75725 13.609 8.81928 13.5611 8.87494C13.5131 8.9322 13.4779 8.9322 13.4331 8.87335C13.3852 8.81133 13.3452 8.74294 13.3084 8.67455C13.115 8.32148 12.856 8.02726 12.5378 7.78075C12.3091 7.60421 12.0869 7.42132 11.8599 7.24478C11.7831 7.18594 11.7016 7.13027 11.6168 7.08256C11.401 6.95851 11.2107 7.00463 11.0476 7.14459C10.9789 7.20502 10.9357 7.28295 10.9261 7.37679C10.9101 7.52469 10.9421 7.66465 10.9741 7.80778C11.0428 8.11314 11.1867 8.3851 11.3578 8.63797L11.3594 8.63638Z" fill="currentColor"/>
<path d="M15.3855 12.835C15.3407 12.8669 15.2879 12.8907 15.2432 12.9257C14.9202 13.1802 14.6004 13.441 14.303 13.7273C14.1496 13.8752 14.0041 14.031 13.8586 14.1885C13.7514 14.3046 13.6539 14.427 13.55 14.5447C13.5308 14.567 13.5068 14.5845 13.4668 14.6195C13.4365 14.5781 13.4077 14.5495 13.3901 14.5145C13.211 14.1678 12.976 13.864 12.6786 13.6143C12.354 13.3424 12.0215 13.0816 11.6889 12.8191C11.6281 12.7714 11.553 12.7412 11.4795 12.7126C11.246 12.6219 10.9806 12.8319 10.9454 13.0163C10.9215 13.142 10.9342 13.2788 10.9582 13.4044C10.979 13.5237 11.0302 13.6382 11.0749 13.7543C11.1677 13.9992 11.2828 14.2362 11.4443 14.4429C11.7401 14.8199 12.0534 15.1825 12.4308 15.4831C12.5443 15.5737 12.6642 15.6628 12.7969 15.7216C13.0208 15.8202 13.2654 15.8568 13.51 15.8632C13.6251 15.8663 13.7402 15.8393 13.8554 15.8218C13.9513 15.8075 14.0488 15.7916 14.1416 15.7646C14.4118 15.685 14.6404 15.5292 14.8658 15.3686C15.0321 15.2493 15.1616 15.095 15.2927 14.9407C15.5837 14.594 15.8188 14.2155 15.9659 13.7845C16.0346 13.5809 16.0842 13.3758 16.0714 13.1595C16.065 13.0529 16.0266 12.9623 15.9451 12.8939C15.8204 12.7873 15.5933 12.6871 15.3855 12.835Z" fill="currentColor"/>
<path d="M11.1565 5.16623C11.278 5.59405 11.537 5.94235 11.812 6.27951C12.015 6.5292 12.2613 6.73755 12.5139 6.93953C12.8001 7.16855 13.1183 7.29419 13.486 7.29896C13.6667 7.30214 13.9673 7.25125 14.1447 7.17809C14.3558 7.09062 14.5428 6.97293 14.7139 6.82343C15.0833 6.50217 15.4222 6.15864 15.6541 5.71969C15.8347 5.37935 15.9658 5.02787 15.9978 4.6414C16.0122 4.46487 15.9594 4.3265 15.8123 4.22472C15.782 4.20404 15.7516 4.18177 15.718 4.16428C15.6285 4.11816 15.5373 4.10225 15.435 4.12929C15.3295 4.15792 15.2399 4.20563 15.1584 4.27402C14.9969 4.40761 14.8354 4.5428 14.6787 4.68116C14.2742 5.03741 13.9129 5.42865 13.6459 5.901C13.6235 5.93917 13.5963 5.97734 13.5659 6.00914C13.51 6.0664 13.4508 6.05845 13.4093 5.98847C13.3773 5.93439 13.3485 5.87714 13.3229 5.8183C13.1422 5.39684 12.8608 5.05172 12.5107 4.76068C12.3428 4.62232 12.1717 4.48872 12.0039 4.35036C11.8775 4.24698 11.7448 4.16587 11.5818 4.1277C11.4618 4.09907 11.3579 4.11975 11.2604 4.18018C11.0717 4.29787 10.9806 4.55393 11.0429 4.79408C11.0749 4.91972 11.1181 5.04377 11.1549 5.16941L11.1565 5.16623Z" fill="currentColor"/>
<path d="M11.5881 11.7505C11.8343 12.0526 12.0934 12.3421 12.3987 12.5886C12.6738 12.8113 12.9711 12.9782 13.3341 13.018C13.5947 13.0466 13.8425 13.0053 14.0855 12.9226C14.3334 12.8383 14.546 12.6856 14.7507 12.5298C15.128 12.2435 15.4334 11.892 15.6732 11.4833C15.8475 11.1859 16.0042 10.8821 16.0458 10.5322C16.0777 10.2682 16.0346 10.1569 15.8059 10.0185C15.7931 10.0106 15.7803 10.0042 15.7676 9.99466C15.6924 9.94218 15.6061 9.92309 15.5213 9.95013C15.4334 9.97876 15.3423 10.0122 15.2703 10.0678C15.0976 10.1982 14.9329 10.3414 14.7667 10.4813C14.5892 10.6308 14.4117 10.7803 14.2358 10.933C14.0136 11.1254 13.8089 11.3306 13.6507 11.5803C13.6267 11.6185 13.5963 11.6519 13.5643 11.6837C13.51 11.7393 13.4748 11.7409 13.4236 11.6821C13.382 11.6344 13.3453 11.5819 13.3133 11.5278C13.1262 11.2177 12.9008 10.9409 12.6098 10.7199C12.5235 10.6547 12.4419 10.5815 12.3572 10.5147C12.1381 10.3398 11.9191 10.1632 11.6968 9.99148C11.6073 9.9215 11.5002 9.87856 11.3867 9.8722C11.1021 9.8547 10.9038 10.0726 10.9166 10.3668C10.947 10.4925 10.9662 10.6229 11.0093 10.7453C11.1388 11.1143 11.3387 11.4483 11.5865 11.7505H11.5881Z" fill="currentColor"/>
<path d="M13.9261 16.8938C13.9229 16.8047 13.9133 16.7141 13.8989 16.6266C13.8797 16.5201 13.8173 16.4342 13.707 16.4167C13.5775 16.3976 13.4464 16.3944 13.3153 16.3944C13.2434 16.3944 13.1858 16.4326 13.1682 16.5089C13.1426 16.6218 13.0995 16.7332 13.0947 16.8461C13.0739 17.3391 13.0547 17.8321 13.0547 18.3252C13.0547 18.8325 13.0755 19.3414 13.0899 19.8488C13.0947 20.0189 13.1858 20.1446 13.3345 20.2114C13.4944 20.2829 13.6543 20.2686 13.7982 20.1493C13.9101 20.0555 13.9628 19.9394 13.9628 19.7963C13.9628 19.3064 13.9628 18.8166 13.9628 18.3283C13.9676 18.3283 13.9708 18.3283 13.9756 18.3283C13.9596 17.8496 13.9453 17.3725 13.9293 16.8938H13.9261Z" fill="currentColor"/>
<path d="M13.2171 4.3678C13.409 4.52048 13.6296 4.53002 13.8407 4.38688C13.951 4.31214 14.0118 4.21512 14.015 4.07994C14.0182 3.95748 14.0326 3.83343 14.0421 3.69983C14.0421 3.58691 14.0421 3.46445 14.0421 3.3404C14.0421 3.19568 13.9878 3.07003 13.8919 2.96348C13.7879 2.84897 13.5993 2.74559 13.4154 2.82352C13.1932 2.91736 13.0636 3.02868 13.0716 3.26406C13.0812 3.54715 13.0828 3.83183 13.0908 4.11652C13.094 4.2183 13.1356 4.30418 13.2171 4.36939V4.3678Z" fill="currentColor"/>
</g>
<defs>
<clipPath id="clip0_2046_581">
<rect width="27" height="22" fill="white" transform="translate(0 0.5)"/>
</clipPath>
</defs>
</svg>
