<svg width="33" height="36" viewBox="0 0 33 36" fill="none" xmlns="http://www.w3.org/2000/svg">
<path d="M30 3.75H27C26.9005 3.75 26.8051 3.71049 26.7348 3.64016C26.6645 3.56983 26.625 3.47445 26.625 3.375V1.5C26.625 1.10217 26.4669 0.720644 26.1856 0.439339C25.9043 0.158035 25.5228 0 25.125 0C24.7271 0 24.3456 0.158035 24.0643 0.439339C23.783 0.720644 23.625 1.10217 23.625 1.5V7.73999C23.625 8.13781 23.783 8.51935 24.0643 8.80065C24.3456 9.08195 24.7271 9.23999 25.125 9.23999C25.5228 9.23999 25.9043 9.08195 26.1856 8.80065C26.4669 8.51935 26.625 8.13781 26.625 7.73999V7.12499C26.625 7.02554 26.6645 6.93015 26.7348 6.85983C26.8051 6.7895 26.9005 6.74999 27 6.74999H29.25C29.4489 6.74999 29.6396 6.82901 29.7803 6.96966C29.9209 7.11031 30 7.30108 30 7.49999V23.25C30 23.4489 29.9209 23.6397 29.7803 23.7803C29.6396 23.921 29.4489 24 29.25 24H24.75C23.9543 24 23.1913 24.316 22.6287 24.8787C22.066 25.4413 21.75 26.2043 21.75 27V31.5C21.75 31.6989 21.671 31.8896 21.5303 32.0303C21.3897 32.1709 21.1989 32.25 21 32.25H3.75C3.55108 32.25 3.36032 32.1709 3.21967 32.0303C3.07901 31.8896 3 31.6989 3 31.5V7.49999C3 7.30108 3.07901 7.11031 3.21967 6.96966C3.36032 6.82901 3.55108 6.74999 3.75 6.74999H5.24999C5.34945 6.74999 5.44483 6.71048 5.51516 6.64016C5.58548 6.56983 5.62499 6.47445 5.62499 6.37499V4.125C5.62499 4.02554 5.58548 3.93016 5.51516 3.85983C5.44483 3.7895 5.34945 3.75 5.24999 3.75H3C2.20435 3.75 1.44129 4.06607 0.878679 4.62867C0.31607 5.19128 0 5.95434 0 6.74999V32.25C0 33.0456 0.31607 33.8087 0.878679 34.3713C1.44129 34.9339 2.20435 35.25 3 35.25H23.25C23.4582 35.2514 23.6644 35.2094 23.8555 35.1268C24.0466 35.0441 24.2184 34.9226 24.36 34.77L32.61 25.77C32.8635 25.491 33.0027 25.1269 33 24.75V6.74999C33 5.95434 32.6839 5.19128 32.1213 4.62867C31.5587 4.06607 30.7956 3.75 30 3.75Z" fill="currentColor"/>
<path d="M16.8751 9.23999C17.273 9.23999 17.6545 9.08195 17.9358 8.80065C18.2171 8.51935 18.3751 8.13781 18.3751 7.73999V7.12499C18.3751 7.02554 18.4146 6.93015 18.485 6.85983C18.5553 6.7895 18.6507 6.74999 18.7501 6.74999H21.7501C21.8496 6.74999 21.945 6.71048 22.0153 6.64016C22.0856 6.56983 22.1251 6.47445 22.1251 6.37499V4.125C22.1251 4.02554 22.0856 3.93016 22.0153 3.85983C21.945 3.7895 21.8496 3.75 21.7501 3.75H18.7501C18.6507 3.75 18.5553 3.71049 18.485 3.64016C18.4146 3.56983 18.3751 3.47445 18.3751 3.375V1.5C18.3751 1.10217 18.2171 0.720644 17.9358 0.439339C17.6545 0.158035 17.273 0 16.8751 0C16.4773 0 16.0958 0.158035 15.8145 0.439339C15.5332 0.720644 15.3751 1.10217 15.3751 1.5V7.73999C15.3751 8.13781 15.5332 8.51935 15.8145 8.80065C16.0958 9.08195 16.4773 9.23999 16.8751 9.23999ZM8.62515 9.23999C9.02298 9.23999 9.40451 9.08195 9.68581 8.80065C9.96711 8.51935 10.1251 8.13781 10.1251 7.73999V7.12499C10.1251 7.02554 10.1647 6.93015 10.235 6.85983C10.3053 6.7895 10.4007 6.74999 10.5001 6.74999H13.5001C13.5996 6.74999 13.695 6.71048 13.7653 6.64016C13.8356 6.56983 13.8751 6.47445 13.8751 6.37499V4.125C13.8751 4.02554 13.8356 3.93016 13.7653 3.85983C13.695 3.7895 13.5996 3.75 13.5001 3.75H10.5001C10.4007 3.75 10.3053 3.71049 10.235 3.64016C10.1647 3.56983 10.1251 3.47445 10.1251 3.375V1.5C10.1251 1.10217 9.96711 0.720644 9.68581 0.439339C9.40451 0.158035 9.02298 0 8.62515 0C8.22733 0 7.8458 0.158035 7.56449 0.439339C7.28319 0.720644 7.12515 1.10217 7.12515 1.5V7.73999C7.12515 8.13781 7.28319 8.51935 7.56449 8.80065C7.8458 9.08195 8.22733 9.23999 8.62515 9.23999ZM8.68515 18.315C8.8246 18.4556 8.9905 18.5672 9.17329 18.6433C9.35607 18.7195 9.55213 18.7587 9.75015 18.7587C9.94817 18.7587 10.1442 18.7195 10.327 18.6433C10.5098 18.5672 10.6757 18.4556 10.8151 18.315L15.3151 13.815C15.6056 13.5325 15.7719 13.1463 15.7775 12.7412C15.7831 12.3361 15.6276 11.9454 15.3451 11.655C15.0627 11.3646 14.6764 11.1983 14.2714 11.1926C13.8663 11.187 13.4756 11.3425 13.1851 11.625L9.75015 15.135L8.56515 13.935C8.42135 13.7951 8.25142 13.685 8.06505 13.6108C7.87867 13.5366 7.67951 13.4998 7.47894 13.5026C7.07386 13.5083 6.68761 13.6746 6.40515 13.965C6.1227 14.2554 5.96718 14.6461 5.9728 15.0512C5.97843 15.4563 6.14474 15.8425 6.43515 16.125L8.68515 18.315ZM8.68515 26.625C8.8246 26.7656 8.9905 26.8772 9.17329 26.9533C9.35607 27.0295 9.55213 27.0687 9.75015 27.0687C9.94817 27.0687 10.1442 27.0295 10.327 26.9533C10.5098 26.8772 10.6757 26.7656 10.8151 26.625L15.3151 22.125C15.5976 21.8425 15.7563 21.4594 15.7563 21.06C15.7563 20.6605 15.5976 20.2774 15.3151 19.995C15.0327 19.7125 14.6496 19.5538 14.2501 19.5538C13.8507 19.5538 13.4676 19.7125 13.1851 19.995L9.75015 23.385L8.56515 22.125C8.2827 21.8425 7.8996 21.6838 7.50015 21.6838C7.1007 21.6838 6.71761 21.8425 6.43515 22.125C6.1527 22.4074 5.99402 22.7905 5.99402 23.19C5.99402 23.5894 6.1527 23.9725 6.43515 24.255L8.68515 26.625ZM18.0001 15.75C18.0001 16.1478 18.1582 16.5293 18.4395 16.8106C18.7208 17.0919 19.1023 17.25 19.5001 17.25H25.5001C25.898 17.25 26.2795 17.0919 26.5608 16.8106C26.8421 16.5293 27.0001 16.1478 27.0001 15.75C27.0001 15.3522 26.8421 14.9706 26.5608 14.6893C26.2795 14.408 25.898 14.25 25.5001 14.25H19.5001C19.1023 14.25 18.7208 14.408 18.4395 14.6893C18.1582 14.9706 18.0001 15.3522 18.0001 15.75Z" fill="currentColor"/>
</svg>
