<svg width="21" height="21" viewBox="0 0 21 21" fill="none" xmlns="http://www.w3.org/2000/svg">
<path d="M10.5001 0.871399C15.793 0.871399 20.0834 5.3484 20.0834 10.8714C20.0834 16.3944 15.793 20.8714 10.5001 20.8714C8.97058 20.8736 7.46296 20.4922 6.10421 19.7594L2.43763 20.8264C2.23307 20.886 2.017 20.8877 1.81157 20.8315C1.60615 20.7752 1.41875 20.663 1.26857 20.5063C1.11839 20.3496 1.01084 20.154 0.956936 19.9397C0.903031 19.7253 0.904708 19.4999 0.961798 19.2864L1.9853 15.4634C1.28126 14.0443 0.914765 12.4693 0.916756 10.8714C0.916756 5.3484 5.20721 0.871399 10.5001 0.871399ZM10.5001 2.3714C8.33968 2.3714 6.26776 3.26693 4.74012 4.86099C3.21248 6.45505 2.35426 8.61706 2.35426 10.8714C2.35426 12.3414 2.71171 13.7544 3.38255 15.0084L3.5263 15.2784L2.46063 19.2624L6.28151 18.1504L6.54026 18.3004C7.62737 18.9311 8.83847 19.2936 10.0807 19.3602C11.3229 19.4268 12.5632 19.1956 13.7065 18.6845C14.8498 18.1733 15.8658 17.3958 16.6765 16.4114C17.4872 15.427 18.0711 14.262 18.3834 13.0057C18.6957 11.7493 18.7282 10.435 18.4782 9.16359C18.2283 7.89213 17.7027 6.69728 16.9417 5.67066C16.1806 4.64404 15.2044 3.81292 14.0878 3.24102C12.9712 2.66913 11.7439 2.37165 10.5001 2.3714ZM7.38551 11.8714H11.6961C11.8782 11.8715 12.0535 11.9436 12.1866 12.0734C12.3196 12.2031 12.4005 12.3807 12.4129 12.5703C12.4254 12.7599 12.3683 12.9473 12.2534 13.0947C12.1385 13.2421 11.9742 13.3385 11.7938 13.3644L11.6961 13.3714H7.38551C7.2034 13.3713 7.0281 13.2992 6.89504 13.1694C6.76197 13.0397 6.68106 12.8621 6.66865 12.6725C6.65623 12.4829 6.71325 12.2955 6.82817 12.1481C6.94309 12.0007 7.10735 11.9043 7.28776 11.8784L7.38551 11.8714ZM7.38551 8.3714H13.6195C13.8015 8.37171 13.9766 8.44407 14.1095 8.57388C14.2424 8.70369 14.3231 8.88127 14.3354 9.07078C14.3477 9.26028 14.2906 9.44759 14.1757 9.59489C14.0608 9.74219 13.8966 9.83851 13.7163 9.8644L13.6195 9.8714H7.38551C7.2034 9.87134 7.0281 9.79915 6.89504 9.66943C6.76197 9.5397 6.68106 9.3621 6.66865 9.17252C6.65623 8.98294 6.71325 8.79551 6.82817 8.6481C6.94309 8.50069 7.10735 8.4043 7.28776 8.3784L7.38551 8.3714Z" fill="currentColor"/>
</svg>
