<svg width="25" height="23" viewBox="0 0 25 23" fill="none" xmlns="http://www.w3.org/2000/svg">
<g clip-path="url(#clip0_2254_164)">
<path d="M3.26582 9.1958H9.28697C9.70371 9.1958 10.0427 8.86077 10.0427 8.449C10.0427 8.03724 9.70361 7.70221 9.28697 7.70221H3.26582C2.84909 7.70221 2.51001 8.03724 2.51001 8.449C2.51001 8.86077 2.84909 9.1958 3.26582 9.1958Z" fill="currentColor"/>
<path d="M9.22365 12.6986C9.22365 12.2868 8.88458 11.9519 8.46784 11.9519H1.25581C0.839076 11.9519 0.5 12.2869 0.5 12.6986C0.5 13.1103 0.839076 13.4453 1.25581 13.4453H8.46794C8.88468 13.4453 9.22375 13.1103 9.22375 12.6986H9.22365Z" fill="currentColor"/>
<path d="M8.44377 16.9481C8.44377 16.5363 8.1047 16.2013 7.68796 16.2013H3.45332C3.03659 16.2013 2.69751 16.5363 2.69751 16.9481C2.69751 17.3599 3.03659 17.6948 3.45332 17.6948H7.68796C8.1047 17.6948 8.44377 17.3598 8.44377 16.9481Z" fill="currentColor"/>
<path d="M23.7202 8.88319C23.2206 7.71591 22.5054 6.66776 21.5946 5.76789C20.6839 4.86801 19.6231 4.16135 18.4417 3.66766C17.4193 3.24043 16.3439 2.98928 15.2368 2.91822V1.79735H16.7642C17.1262 1.79735 17.4208 1.50636 17.4208 1.14862C17.4208 0.790888 17.1263 0.5 16.7642 0.5H12.3962C12.0342 0.5 11.7396 0.790986 11.7396 1.14872C11.7396 1.50646 12.0341 1.79745 12.3962 1.79745H13.9237V2.91832C12.1002 3.03568 10.3625 3.64133 8.86307 4.68782C8.56738 4.89424 8.49676 5.29975 8.70557 5.59191C8.80671 5.73343 8.95767 5.82759 9.13043 5.85695C9.30329 5.88632 9.47733 5.84746 9.62057 5.74753C11.0762 4.73158 12.7911 4.19463 14.5801 4.19463C19.3259 4.19463 23.1869 8.00954 23.1869 12.6987C23.1869 17.3878 19.3259 21.2027 14.5801 21.2027C12.5932 21.2027 10.727 20.553 9.18343 19.3237C8.90161 19.0994 8.48744 19.1432 8.2603 19.4217C8.03316 19.7003 8.07764 20.1094 8.35946 20.3338C9.22226 21.0209 10.1863 21.5562 11.2247 21.925C12.2993 22.3066 13.4283 22.5001 14.5801 22.5001C15.919 22.5001 17.2181 22.2408 18.4415 21.7296C19.6229 21.2359 20.6836 20.5293 21.5944 19.6294C22.5052 18.7294 23.2204 17.6814 23.72 16.5141C24.2375 15.3053 24.4998 14.0216 24.4998 12.6988C24.4998 11.376 24.2374 10.0922 23.72 8.88338L23.7202 8.88319Z" fill="currentColor"/>
<path d="M18.0572 9.66578C17.7633 9.33682 17.2534 9.3055 16.9204 9.5959L14.9318 11.3305C14.8193 11.3023 14.7016 11.2872 14.5803 11.2872C13.7927 11.2872 13.1519 11.9204 13.1519 12.6986C13.1519 13.4768 13.7927 14.1099 14.5803 14.1099C15.3679 14.1099 16.0087 13.4768 16.0087 12.6986C16.0087 12.6394 16.0049 12.581 15.9977 12.5237L17.9863 10.789C18.3192 10.4986 18.3509 9.99475 18.057 9.66578H18.0572Z" fill="currentColor"/>
</g>
<defs>
<clipPath id="clip0_2254_164">
<rect width="24" height="22" fill="white" transform="translate(0.5 0.5)"/>
</clipPath>
</defs>
</svg>
