<svg width="26" height="17" viewBox="0 0 26 17" fill="none" xmlns="http://www.w3.org/2000/svg">
<path d="M25.896 1.32627C25.7642 1.00063 25.5118 0.74185 25.1942 0.606615C25.038 0.538327 24.8702 0.502106 24.7004 0.5H18.2023C17.8576 0.5 17.527 0.640408 17.2833 0.890336C17.0396 1.14026 16.9026 1.47924 16.9026 1.83269C16.9026 2.18614 17.0396 2.52512 17.2833 2.77504C17.527 3.02497 17.8576 3.16538 18.2023 3.16538H21.5683L14.3034 10.6151L10.0276 6.21724C9.90681 6.09233 9.76307 5.99318 9.6047 5.92552C9.44633 5.85786 9.27646 5.82303 9.1049 5.82303C8.93333 5.82303 8.76346 5.85786 8.60509 5.92552C8.44672 5.99318 8.30298 6.09233 8.18217 6.21724L0.384426 14.2134C0.262615 14.3373 0.16593 14.4847 0.09995 14.6471C0.0339699 14.8095 0 14.9837 0 15.1596C0 15.3355 0.0339699 15.5097 0.09995 15.6721C0.16593 15.8345 0.262615 15.9819 0.384426 16.1058C0.505243 16.2307 0.648983 16.3298 0.807354 16.3975C0.965725 16.4652 1.13559 16.5 1.30716 16.5C1.47872 16.5 1.64859 16.4652 1.80696 16.3975C1.96533 16.3298 2.10907 16.2307 2.22989 16.1058L9.1049 9.04254L13.3807 13.4404C13.5015 13.5653 13.6452 13.6645 13.8036 13.7321C13.962 13.7998 14.1318 13.8346 14.3034 13.8346C14.475 13.8346 14.6448 13.7998 14.8032 13.7321C14.9616 13.6645 15.1053 13.5653 15.2261 13.4404L23.4008 5.04447V8.49614C23.4008 8.84959 23.5377 9.18856 23.7814 9.43849C24.0251 9.68842 24.3557 9.82883 24.7004 9.82883C25.0451 9.82883 25.3756 9.68842 25.6194 9.43849C25.8631 9.18856 26 8.84959 26 8.49614V1.83269C25.9979 1.65854 25.9626 1.48649 25.896 1.32627Z" fill="currentColor"/>
</svg>
