<svg width="20" height="21" viewBox="0 0 20 21" fill="none" xmlns="http://www.w3.org/2000/svg">
<path d="M10 0.5C10.3459 0.5 10.6777 0.637422 10.9223 0.882034C11.1669 1.12665 11.3043 1.45841 11.3043 1.80435V9.19565H18.6957C19.0416 9.19565 19.3734 9.33307 19.618 9.57769C19.8626 9.8223 20 10.1541 20 10.5C20 10.8459 19.8626 11.1777 19.618 11.4223C19.3734 11.6669 19.0416 11.8043 18.6957 11.8043H11.3043V19.1957C11.3043 19.5416 11.1669 19.8734 10.9223 20.118C10.6777 20.3626 10.3459 20.5 10 20.5C9.65407 20.5 9.3223 20.3626 9.07769 20.118C8.83307 19.8734 8.69565 19.5416 8.69565 19.1957V11.8043H1.30435C0.958413 11.8043 0.626647 11.6669 0.382034 11.4223C0.137422 11.1777 0 10.8459 0 10.5C0 10.1541 0.137422 9.8223 0.382034 9.57769C0.626647 9.33307 0.958413 9.19565 1.30435 9.19565H8.69565V1.80435C8.69565 1.45841 8.83307 1.12665 9.07769 0.882034C9.3223 0.637422 9.65407 0.5 10 0.5Z" fill="currentColor"/>
</svg>
