<svg width="22" height="20" viewBox="0 0 22 20" fill="none" xmlns="http://www.w3.org/2000/svg">
<path d="M20.9731 18.2508C19.6878 15.9949 17.6807 14.2371 15.275 13.2605C16.4713 12.3632 17.355 11.1123 17.8009 9.68493C18.2468 8.25754 18.2322 6.72604 17.7593 5.30736C17.2865 3.88869 16.3792 2.65477 15.166 1.78039C13.9529 0.906002 12.4954 0.435486 11 0.435486C9.50457 0.435486 8.04706 0.906002 6.83392 1.78039C5.62078 2.65477 4.7135 3.88869 4.24061 5.30736C3.76772 6.72604 3.75319 8.25754 4.19907 9.68493C4.64495 11.1123 5.52865 12.3632 6.72498 13.2605C4.31928 14.2371 2.31221 15.9949 1.02686 18.2508C0.94721 18.3789 0.894127 18.5216 0.870762 18.6706C0.847396 18.8196 0.854226 18.9718 0.890844 19.1181C0.927462 19.2644 0.993122 19.4018 1.08392 19.5222C1.17472 19.6427 1.2888 19.7436 1.41938 19.819C1.54996 19.8945 1.69438 19.9429 1.84405 19.9614C1.99373 19.9799 2.14559 19.9682 2.29062 19.9268C2.43566 19.8855 2.57089 19.8154 2.6883 19.7207C2.8057 19.6261 2.90288 19.5088 2.97404 19.3758C4.67279 16.4395 7.67279 14.6883 11 14.6883C14.3272 14.6883 17.3272 16.4405 19.0259 19.3758C19.1801 19.6238 19.4248 19.8021 19.7081 19.873C19.9914 19.9439 20.2912 19.9019 20.544 19.7558C20.7969 19.6097 20.9831 19.371 21.0631 19.0901C21.1432 18.8093 21.1109 18.5083 20.9731 18.2508ZM6.12498 7.5633C6.12498 6.59911 6.41089 5.65658 6.94657 4.85489C7.48224 4.0532 8.24361 3.42836 9.1344 3.05939C10.0252 2.69041 11.0054 2.59387 11.951 2.78197C12.8967 2.97007 13.7653 3.43437 14.4471 4.11615C15.1289 4.79793 15.5932 5.66658 15.7813 6.61223C15.9694 7.55789 15.8729 8.53809 15.5039 9.42888C15.1349 10.3197 14.5101 11.081 13.7084 11.6167C12.9067 12.1524 11.9642 12.4383 11 12.4383C9.70751 12.4368 8.4684 11.9227 7.55448 11.0088C6.64056 10.0949 6.12647 8.85577 6.12498 7.5633Z" fill="currentColor"/>
</svg>
